<svg xmlns="http://www.w3.org/2000/svg" viewBox="0 0 512 512"><defs><linearGradient id="g" x1="0" y1="0" x2="1" y2="1"><stop stop-color="#00875A"/><stop offset="0.65" stop-color="#06B6D4"/><stop offset="1" stop-color="#0F172A"/></linearGradient></defs><rect x="18" y="18" width="476" height="476" rx="105" fill="url(#g)"/><path d="M150 78h212a34 34 0 0 1 34 34v300l-31-20-31 20-31-20-31 20-31-20-31 20-31-20-31 20V112a34 34 0 0 1 34-34z" fill="white" opacity=".96"/><circle cx="256" cy="150" r="42" fill="#00875A"/><rect x="230" y="136" width="52" height="32" rx="6" fill="none" stroke="white" stroke-width="7"/><circle cx="256" cy="152" r="8" fill="none" stroke="white" stroke-width="6"/><rect x="184" y="224" width="160" height="14" rx="7" fill="#0F172A" opacity=".75"/><rect x="184" y="266" width="120" height="14" rx="7" fill="#0F172A" opacity=".75"/><rect x="184" y="308" width="180" height="14" rx="7" fill="#0F172A" opacity=".75"/><rect x="184" y="360" width="160" height="26" rx="13" fill="#F59E0B"/></svg>