<svg width="61" height="60" viewBox="0 0 61 60" fill="none" xmlns="http://www.w3.org/2000/svg">
<g clip-path="url(#clip0_3802_18358)">
<path d="M32.288 0C32.6502 0.253711 33.0949 0.261558 33.4951 0.392336C35.8485 1.19433 37.823 2.83684 39.0401 5.0049C42.7803 11.4811 46.5389 17.952 50.2465 24.4399C53.6193 30.3407 50.5656 37.6721 44.0724 39.3906C43.2308 39.6161 42.3635 39.7313 41.4922 39.7332C33.9567 39.7332 26.4212 39.7489 18.8871 39.7332C11.0482 39.7123 6.20153 31.2234 10.1367 24.4321C13.8412 18.037 17.5348 11.6367 21.2175 5.23115C22.7555 2.56065 24.9408 0.784673 27.9723 0.116393C28.0233 0.105931 28.0612 0.0405414 28.1031 0H32.288ZM36.6612 33.7409C41.2385 33.7527 44.2725 29.1767 42.1618 25.2769C40.17 21.5968 38.0854 17.9533 35.8778 14.4027C33.2374 10.1497 27.0254 10.2674 24.4582 14.5661C22.3658 18.0658 20.3505 21.6112 18.3326 25.1592C17.7332 26.2049 17.4664 27.4082 17.5675 28.6092C17.7663 31.0456 19.0754 32.7091 21.3156 33.5565C23.6304 34.4327 25.7621 33.975 27.593 32.2814C28.1344 31.7792 28.6131 31.209 29.1375 30.6872C29.8267 30.0007 30.6323 30.0007 31.3215 30.6872C31.7845 31.1476 32.2121 31.6445 32.6816 32.097C33.2038 32.6198 33.8243 33.0342 34.5073 33.3164C35.1902 33.5985 35.9223 33.7428 36.6612 33.7409Z" fill="#0045E5"/>
<path d="M0 56.0779C0.261558 55.8988 0.245864 55.5849 0.338717 55.3299C1.20316 52.9654 2.08069 50.6022 2.89021 48.2168C3.15177 47.4322 3.70235 47.3354 4.35101 47.3354C4.99967 47.3354 5.51233 47.4727 5.78042 48.2011C6.69587 50.6859 7.5394 53.1995 8.36069 55.7196C8.41431 55.8844 8.46531 56.0505 8.51108 56.2179C8.60524 56.5684 8.91388 56.9489 8.30707 57.1712C7.72772 57.3831 7.17191 57.2589 6.96266 56.7606C6.75126 56.2367 6.56919 55.7014 6.41731 55.1573C6.31923 54.8251 6.17799 54.6577 5.78958 54.6681C4.78868 54.6987 3.78605 54.6987 2.78166 54.6681C2.44295 54.659 2.32132 54.8081 2.23893 55.0827C2.09508 55.5614 1.94468 56.0387 1.79167 56.5147C1.54711 57.2759 0.932453 57.4943 0.245864 57.0627C0.160159 57.0007 0.0780697 56.9339 0 56.8626V56.0779ZM4.4164 48.9021L4.27647 48.893C3.80653 50.2653 3.3366 51.6371 2.86667 53.0086C2.76859 53.2963 2.91767 53.3342 3.15569 53.3329C4.04499 53.3264 4.93559 53.3329 5.8942 53.3329L4.4164 48.9021Z" fill="#0045E5"/>
<path d="M54.5112 60C54.2183 59.5174 54.281 59.1565 54.7388 58.7589C55.326 58.2463 55.7706 57.5819 56.2009 56.928C56.3526 56.6978 56.4062 56.5357 56.1002 56.3657C55.6738 56.1368 55.496 55.6948 55.2959 55.2854C54.5543 53.7401 53.9317 52.1404 53.4336 50.5002C53.3316 50.172 53.1315 49.8254 53.6206 49.6305C54.0744 49.4488 54.5282 49.403 54.8617 49.8346C55.0032 50.0521 55.1099 50.2904 55.1782 50.5408C55.7405 52.1323 56.2911 53.7265 57.0091 55.3796C57.4197 54.6734 57.6237 53.9829 57.8356 53.3041C58.1469 52.3115 58.4215 51.3058 58.6844 50.2962C58.8871 49.5259 59.3971 49.284 60.1229 49.6567L60.3936 49.8006V50.9776C60.1805 51.0809 60.2092 51.3071 60.1609 51.4811C59.2794 54.5792 58.1887 57.5714 55.9498 59.9974L54.5112 60Z" fill="#0045E5"/>
<path d="M37.5414 52.2932C37.5414 51.0089 37.5557 49.7247 37.5335 48.4405C37.5257 47.9173 37.7467 47.6218 38.2397 47.5041C39.6574 47.1667 41.0868 47.0921 42.4979 47.4884C43.96 47.899 44.793 49.2042 44.6544 50.733C44.5001 52.4331 43.4434 53.5107 41.67 53.7161C41.0859 53.7782 40.4976 53.7926 39.9111 53.7592C39.435 53.7357 39.2454 53.8638 39.2768 54.37C39.3186 55.0644 39.2506 55.7654 39.299 56.4624C39.3369 56.9934 39.1512 57.2275 38.6307 57.2209C38.1312 57.2131 37.6185 57.1895 37.5636 56.5396C37.5165 55.9772 37.5427 55.4096 37.5414 54.8395C37.5335 53.9907 37.5414 53.1419 37.5414 52.2932ZM39.2559 50.5852C39.2559 51.0626 39.2559 51.5399 39.2559 52.0173C39.2559 52.2213 39.248 52.4096 39.5449 52.4096C40.2602 52.4017 40.9834 52.4658 41.6779 52.2487C42.5188 51.9872 42.9595 51.3333 42.9347 50.4178C42.9098 49.5024 42.4796 48.9897 41.5863 48.7517C41.0292 48.6026 40.4695 48.6471 39.9058 48.6576C39.3827 48.6654 39.1826 48.8864 39.2519 49.4161C39.2761 49.8054 39.2774 50.1958 39.2559 50.5852Z" fill="#0045E5"/>
<path d="M51.9741 53.8638C51.9741 54.451 51.9545 55.0409 51.9741 55.6267C51.9937 56.2126 51.7269 56.5906 51.2326 56.8168C49.7823 57.4773 48.294 57.5793 46.8018 56.9882C45.8563 56.6128 45.4482 55.8818 45.4875 54.8081C45.5215 53.8926 45.9884 53.2636 46.926 52.9262C47.7552 52.628 48.634 52.6332 49.4958 52.5247C49.7757 52.4894 50.2282 52.6555 50.3014 52.2134C50.3851 51.7152 50.2125 51.2496 49.726 51.0024C49.1956 50.7337 48.5863 50.6641 48.0089 50.8062C47.5865 50.9043 47.1693 51.0233 46.7521 51.1423C46.5389 51.2038 46.3284 51.4261 46.1231 51.1306C46.0203 51.0027 45.9593 50.8464 45.948 50.6827C45.9368 50.519 45.976 50.3559 46.0603 50.2151C46.1345 50.1086 46.2309 50.0194 46.3428 49.9536C47.4766 49.199 49.9954 49.2761 51.0835 50.0844C51.7374 50.5748 51.9309 51.2731 51.9571 52.0369C51.9767 52.645 51.9571 53.2557 51.9571 53.8678L51.9741 53.8638ZM50.3276 54.7296C50.3276 54.4916 50.3276 54.2523 50.3276 54.0129C50.3341 53.8089 50.2949 53.6847 50.0425 53.7082C49.3075 53.7762 48.5647 53.7972 47.8507 54.0012C47.3851 54.1319 47.1196 54.4484 47.1366 54.9598C47.1536 55.4711 47.4217 55.7719 47.8729 55.9223C48.2887 56.0567 48.7291 56.0969 49.1624 56.04C50.2805 55.9079 50.3276 55.853 50.3276 54.7296Z" fill="#0045E5"/>
<path d="M34.9794 53.8299C34.9794 54.4171 34.9559 55.0069 34.9794 55.5915C35.0029 56.176 34.7793 56.5645 34.2758 56.7999C32.8072 57.4864 31.2993 57.5845 29.7901 56.9764C28.8642 56.6024 28.4562 55.8635 28.4915 54.8473C28.5242 53.8966 29.0041 53.2623 29.9667 52.921C30.7762 52.6332 31.6328 52.6398 32.4698 52.5286C32.7627 52.4894 33.244 52.6999 33.3146 52.186C33.3852 51.672 33.2139 51.2313 32.7143 50.9907C32.2614 50.7724 31.7539 50.6936 31.2561 50.7644C30.7597 50.8252 30.2731 50.9496 29.8084 51.1345C29.5469 51.2391 29.2853 51.4235 29.0891 51.0443C28.9139 50.7042 28.8943 50.376 29.1872 50.0883C29.4278 49.8516 29.743 49.7522 30.0569 49.6646C31.1031 49.3716 32.1494 49.3141 33.2034 49.6462C34.3595 50.0111 34.8944 50.6729 34.9611 51.8695C34.9977 52.5234 34.9676 53.1773 34.9676 53.8312L34.9794 53.8299ZM33.3329 54.7453C33.3329 54.4838 33.3329 54.2222 33.3329 53.9606C33.3329 53.7697 33.2662 53.6899 33.0635 53.7082C32.3076 53.7776 31.5438 53.7906 30.8128 54.0208C30.6091 54.0698 30.4297 54.1901 30.3071 54.36C30.1845 54.5298 30.1268 54.738 30.1445 54.9467C30.139 55.1555 30.2011 55.3604 30.3215 55.531C30.4419 55.7017 30.6143 55.8288 30.8128 55.8936C31.244 56.0478 31.7055 56.098 32.1598 56.04C33.2832 55.9145 33.3342 55.8556 33.3329 54.744V54.7453Z" fill="#0045E5"/>
<path d="M12.9353 49.4148C13.5366 49.4169 14.1342 49.5081 14.7087 49.6855C14.9826 49.763 15.2289 49.9167 15.4188 50.1288C15.6804 50.4335 15.6804 50.7579 15.4777 51.0927C15.2501 51.4771 14.9951 51.2117 14.7558 51.1175C14.0391 50.835 13.3172 50.6205 12.5325 50.8298C12.1075 50.9436 11.7479 51.1201 11.7348 51.6328C11.7269 52.1166 12.0657 52.3024 12.4632 52.4253C13.2479 52.6685 14.0731 52.7889 14.8094 53.1877C15.5941 53.6101 15.9864 54.2431 15.9498 55.1494C15.9158 56.0256 15.4803 56.6089 14.7165 56.9908C14.2429 57.2066 13.7292 57.3206 13.2087 57.3256C12.3128 57.3687 11.4248 57.3059 10.614 56.8613C10.2465 56.6599 10.0007 56.38 10.0451 55.9236C10.0974 55.3796 10.3812 55.2109 10.8559 55.4737C11.621 55.8988 12.4253 56.1015 13.3002 55.9655C13.7736 55.8922 14.2 55.7484 14.2732 55.1808C14.3543 54.5491 13.9593 54.2784 13.4441 54.1136C12.6594 53.8612 11.8289 53.7605 11.0979 53.3512C10.8164 53.1977 10.5768 52.9776 10.4 52.7101C10.2233 52.4426 10.1148 52.1359 10.0841 51.8167C10.0534 51.4976 10.1014 51.1758 10.2238 50.8794C10.3463 50.5831 10.5396 50.3214 10.7866 50.117C11.0855 49.863 11.4405 49.6836 11.8224 49.5939C12.2396 49.4854 12.6672 49.386 12.9353 49.4148Z" fill="#0045E5"/>
<path d="M17.251 51.7008C17.251 50.5238 17.2785 49.3468 17.238 48.1789C17.2223 47.7133 17.3543 47.4884 17.816 47.4766C18.2776 47.4649 18.772 47.4479 18.8792 48.0612C18.9157 48.3627 18.9279 48.6667 18.9158 48.9701C18.9158 49.815 18.9158 49.8149 19.7908 49.8149C20.1831 49.8149 20.5754 49.8437 20.9678 49.8084C21.4281 49.7666 21.5327 50.036 21.5484 50.3956C21.5641 50.7801 21.4582 51.1044 20.9992 51.1227C20.476 51.141 19.9529 51.1541 19.4298 51.1227C19.0375 51.1005 18.8975 51.2274 18.9067 51.6328C18.9328 52.6097 18.9145 53.5945 18.9158 54.5675C18.9158 55.7445 19.4102 56.1368 20.6003 55.9328C20.9364 55.8739 21.3588 55.5091 21.534 56.1564C21.6557 56.6076 21.3614 57.0601 20.8004 57.2157C20.1245 57.399 19.4106 57.3882 18.7406 57.1843C17.7519 56.8979 17.2759 56.2689 17.2589 55.2227C17.2393 54.0456 17.2589 52.8686 17.2589 51.6995L17.251 51.7008Z" fill="#0045E5"/>
<path d="M22.8654 53.7409C22.8654 52.8922 22.8745 52.0408 22.8654 51.1973C22.8503 51.0011 22.8903 50.8046 22.9809 50.6299C23.0714 50.4552 23.209 50.3093 23.378 50.2086C24.4517 49.5258 25.746 49.2797 26.9954 49.5207C27.1369 49.5351 27.2717 49.5881 27.3852 49.6739C27.4986 49.7597 27.5864 49.875 27.6388 50.0072C27.8166 50.4636 27.5302 50.8756 27.0529 50.8272C26.3998 50.762 25.7402 50.8219 25.1095 51.0037C24.6806 51.1227 24.4844 51.3333 24.4962 51.8303C24.5354 53.3996 24.4818 54.9611 24.5263 56.5252C24.5419 57.0706 24.3065 57.2223 23.858 57.2144C23.4094 57.2066 22.8863 57.1896 22.8693 56.5461C22.8457 55.6111 22.8693 54.676 22.8693 53.7422L22.8654 53.7409Z" fill="#0045E5"/>
<path d="M36.6612 33.7409C35.9209 33.7419 35.1877 33.5962 34.504 33.3123C33.8202 33.0283 33.1995 32.6117 32.6777 32.0866C32.2082 31.6341 31.7806 31.1371 31.3176 30.6768C30.6284 29.9954 29.8228 29.9954 29.1336 30.6768C28.6105 31.1999 28.1305 31.7688 27.5891 32.271C25.7582 33.9646 23.6304 34.4223 21.3117 33.5461C19.0715 32.6986 17.7624 31.0351 17.5636 28.5987C17.4625 27.3977 17.7293 26.1944 18.3286 25.1488C20.3466 21.606 22.3645 18.0605 24.4543 14.5557C27.0215 10.257 33.2335 10.1393 35.8739 14.3922C38.0815 17.9481 40.1661 21.585 42.1579 25.2665C44.2726 29.1715 41.2411 33.7475 36.6612 33.7409ZM36.9503 30.8638C39.2637 30.8638 40.684 28.4575 39.435 26.2591C37.5082 22.8771 35.564 19.5109 33.6023 16.1603C32.0539 13.5081 28.4065 13.5081 26.845 16.1525C26.1401 17.3478 25.4548 18.5549 24.763 19.7581C23.4552 22.0336 22.116 24.2922 20.8514 26.5926C20.0275 28.09 20.4015 29.6384 21.6844 30.5251C22.9674 31.4118 24.6374 31.209 25.7634 30.0203C26.1819 29.5769 26.6109 29.1427 27.0359 28.7125C28.8485 26.8554 31.5439 26.8345 33.3682 28.6667C33.7514 29.0512 34.1163 29.4514 34.4981 29.8437C35.1141 30.4715 35.8334 30.8716 36.9503 30.852V30.8638Z" fill="#EAE702"/>
<path d="M36.9503 30.852C35.8347 30.8716 35.1193 30.4662 34.4981 29.8385C34.1163 29.4461 33.7514 29.046 33.3682 28.6615C31.5373 26.8306 28.8485 26.8502 27.0359 28.7072C26.6109 29.1427 26.1819 29.5769 25.7634 30.015C24.6374 31.2038 22.9752 31.4118 21.6844 30.5198C20.3936 29.6279 20.0275 28.0847 20.8514 26.5873C22.116 24.2869 23.4552 22.0284 24.763 19.7528C25.4548 18.5497 26.1401 17.3426 26.845 16.1473C28.4065 13.5029 32.0539 13.5029 33.6023 16.1551C35.5605 19.5091 37.503 22.8732 39.4298 26.2473C40.684 28.4457 39.2637 30.8533 36.9503 30.852Z" fill="#0045E5"/>
</g>
<defs>
<clipPath id="clip0_3802_18358">
<rect width="60.3936" height="60" fill="white"/>
</clipPath>
</defs>
</svg>
