<svg width="62" height="66" viewBox="0 0 62 66" fill="none" xmlns="http://www.w3.org/2000/svg">
<g clip-path="url(#clip0_3802_10685)">
<path d="M5.54046 17.2274C5.54046 17.2274 4.35796 14.5024 3.72546 14.2599C3.09296 14.0174 1.73296 22.6174 2.41296 24.4674C2.41296 24.4674 5.93796 27.2399 6.51796 29.6499L8.62296 26.9749L10.028 21.9524L5.53796 17.2274H5.54046Z" fill="url(#paint0_linear_3802_10685)" stroke="#A3822E" stroke-width="0.075" stroke-miterlimit="10"/>
<path d="M6.27035 26.4671C6.27035 26.4671 4.31285 22.3821 4.17285 17.0396" stroke="#A3822E" stroke-width="0.025" stroke-miterlimit="10"/>
<path d="M56.1879 17.2274C56.1879 17.2274 57.3704 14.5024 58.0029 14.2599C58.6354 14.0174 59.9954 22.6174 59.3154 24.4674C59.3154 24.4674 55.7904 27.2399 55.2104 29.6499L53.1054 26.9749L51.7004 21.9524L56.1904 17.2274H56.1879Z" fill="url(#paint1_linear_3802_10685)" stroke="#A3822E" stroke-width="0.075" stroke-miterlimit="10"/>
<path d="M55.458 26.4671C55.458 26.4671 57.4155 22.3821 57.5555 17.0396" stroke="#A3822E" stroke-width="0.025" stroke-miterlimit="10"/>
<path d="M12.5305 10.5948C12.5305 10.5948 11.0155 7.57227 10.2655 7.57227C9.51549 7.57227 7.73549 12.7748 8.55549 15.3298C9.37549 17.8848 10.528 18.1773 10.243 19.7523C9.96049 21.3273 14.8105 17.0173 14.858 16.6648C14.9055 16.3123 14.578 12.5398 14.578 12.5398L12.5305 10.5948Z" fill="url(#paint2_linear_3802_10685)" stroke="#A3822E" stroke-width="0.075" stroke-miterlimit="10"/>
<path d="M16.3229 4.31494C16.3229 4.31494 11.0904 5.56494 12.9154 16.3399C14.7404 27.1149 18.5829 14.8124 18.5829 14.8124C18.5829 14.8124 24.2304 10.3124 22.2154 9.23494C20.2004 8.15744 16.3229 4.31494 16.3229 4.31494Z" fill="url(#paint3_linear_3802_10685)" stroke="#A3822E" stroke-width="0.075" stroke-miterlimit="10"/>
<path d="M12.9153 16.3396C12.9153 16.3396 14.6678 7.78215 18.8403 7.34965C23.0128 6.91715 23.7153 11.8446 23.7153 11.8446L14.8628 15.2121L12.9178 16.3396H12.9153Z" fill="url(#paint4_linear_3802_10685)" stroke="#A3822E" stroke-width="0.075" stroke-miterlimit="10"/>
<path d="M9.17551 54.4472L6.27051 55.4022C6.27051 55.4022 8.56551 57.7447 10.5355 57.2522C12.5055 56.7597 14.9655 54.1022 14.9655 54.1022C14.9655 54.1022 15.1955 52.4147 14.9305 52.3297C14.6655 52.2447 9.30551 53.5247 9.30551 53.5247L9.17801 54.4472H9.17551Z" fill="url(#paint5_linear_3802_10685)" stroke="#A3822E" stroke-width="0.075" stroke-miterlimit="10"/>
<path d="M5.89297 47.8896L2.16797 47.9621C2.16797 47.9621 5.08297 52.9146 8.60047 54.1246C8.60047 54.1246 10.1155 55.4096 12.9605 54.3096C15.8055 53.2096 16.438 51.3221 16.438 51.3221L11.308 46.4946C11.308 46.4946 8.15547 46.8496 7.92297 46.8821C7.69047 46.9146 5.89547 47.8896 5.89547 47.8896H5.89297Z" fill="url(#paint6_linear_3802_10685)" stroke="#A3822E" stroke-width="0.075" stroke-miterlimit="10"/>
<path d="M9.41793 48.4599C9.41793 48.4599 4.66293 48.8524 2.45043 44.9849C0.235431 41.1174 0.587931 39.6074 0.587931 39.6074C0.587931 39.6074 0.412931 38.8699 3.19793 40.8274L9.69293 41.2949C9.69293 41.2949 10.0204 43.1699 10.0329 43.9724C10.0454 44.7749 10.5379 47.2699 10.5379 47.5174C10.5379 47.7649 9.42293 48.4624 9.42293 48.4624L9.41793 48.4599Z" fill="url(#paint7_linear_3802_10685)" stroke="#A3822E" stroke-width="0.075" stroke-miterlimit="10"/>
<path d="M13.9905 53.0597C13.9905 53.0597 10.918 51.5572 9.16047 47.9722C7.40297 44.3872 7.91797 43.2997 7.91797 43.2997L10.123 42.8647C10.123 42.8647 11.4105 44.2447 11.938 45.5472C12.4655 46.8472 14.683 49.6947 15.2105 50.1522C15.7355 50.6097 15.7705 52.0797 15.7705 52.0797L13.9905 53.0597Z" fill="url(#paint8_linear_3802_10685)" stroke="#A3822E" stroke-width="0.075" stroke-miterlimit="10"/>
<path d="M2.7229 32.8548C2.7229 32.8548 0.797902 31.5923 0.0254018 31.5923C0.0254018 31.5923 -0.299598 34.8973 1.3754 38.0948C3.0479 41.2923 4.9079 42.9623 8.4779 43.3773C8.4779 43.3773 11.3104 38.2373 9.5529 36.6198C7.7954 35.0023 2.7254 32.8573 2.7254 32.8573L2.7229 32.8548Z" fill="url(#paint9_linear_3802_10685)" stroke="#A3822E" stroke-width="0.075" stroke-miterlimit="10"/>
<path d="M6.52033 29.65C6.52033 29.65 6.58534 27.0675 1.61784 23.6475C1.61784 23.6475 -1.09966 31.24 5.11034 34.9425L6.41283 35.83L7.92283 32.42L6.52283 29.6525L6.52033 29.65Z" fill="url(#paint10_linear_3802_10685)" stroke="#A3822E" stroke-width="0.075" stroke-miterlimit="10"/>
<path d="M10.4755 19.6396C10.4755 19.6396 10.4305 14.8821 6.27052 13.0771C6.27052 13.0771 3.49052 18.5846 8.78802 22.3096C8.78802 22.3096 10.6655 21.0396 10.4755 19.6396Z" fill="url(#paint11_linear_3802_10685)" stroke="#A3822E" stroke-width="0.075" stroke-miterlimit="10"/>
<path d="M12.1478 52.6724C11.9103 52.7324 10.0078 52.4074 7.28034 50.9874C6.41784 50.5399 5.47534 49.9824 4.47534 49.2949" stroke="#A3822E" stroke-width="0.025" stroke-miterlimit="10"/>
<path d="M7.40547 46.495C7.40547 46.495 3.75047 44.175 2.16797 41.2925" stroke="#A3822E" stroke-width="0.025" stroke-miterlimit="10"/>
<path d="M6.12793 39.9574C6.12793 39.9574 2.37293 37.6349 0.56543 33.1724" stroke="#A3822E" stroke-width="0.025" stroke-miterlimit="10"/>
<path d="M5.54047 32.417C5.54047 32.417 2.90547 30.1145 2.16797 25.332" stroke="#A3822E" stroke-width="0.025" stroke-miterlimit="10"/>
<path d="M8.34288 20.1748L6.70288 14.2598" stroke="#A3822E" stroke-width="0.025" stroke-miterlimit="10"/>
<path d="M49.1979 10.5948C49.1979 10.5948 50.7129 7.57227 51.4629 7.57227C52.2129 7.57227 53.9929 12.7748 53.1729 15.3298C52.3529 17.8848 51.2004 18.1773 51.4854 19.7523C51.7679 21.3273 46.9179 17.0173 46.8704 16.6648C46.8229 16.3123 47.1504 12.5398 47.1504 12.5398L49.1979 10.5948Z" fill="url(#paint12_linear_3802_10685)" stroke="#A3822E" stroke-width="0.075" stroke-miterlimit="10"/>
<path d="M45.4054 4.31494C45.4054 4.31494 50.6379 5.56494 48.8129 16.3399C46.9879 27.1149 43.1454 14.8124 43.1454 14.8124C43.1454 14.8124 37.4979 10.3124 39.5129 9.23494C41.5279 8.15744 45.4054 4.31494 45.4054 4.31494Z" fill="url(#paint13_linear_3802_10685)" stroke="#A3822E" stroke-width="0.075" stroke-miterlimit="10"/>
<path d="M48.8129 16.3396C48.8129 16.3396 47.0604 7.78215 42.8879 7.34965C38.7154 6.91715 38.0129 11.8446 38.0129 11.8446L46.8654 15.2121L48.8104 16.3396H48.8129Z" fill="url(#paint14_linear_3802_10685)" stroke="#A3822E" stroke-width="0.075" stroke-miterlimit="10"/>
<path d="M52.553 54.4472L55.458 55.4022C55.458 55.4022 53.163 57.7447 51.193 57.2522C49.2255 56.7572 46.763 54.1022 46.763 54.1022C46.763 54.1022 46.533 52.4147 46.798 52.3297C47.063 52.2447 52.423 53.5247 52.423 53.5247L52.5505 54.4472H52.553Z" fill="url(#paint15_linear_3802_10685)" stroke="#A3822E" stroke-width="0.075" stroke-miterlimit="10"/>
<path d="M55.8355 47.8896L59.5605 47.9621C59.5605 47.9621 56.6455 52.9146 53.128 54.1246C53.128 54.1246 51.613 55.4096 48.768 54.3096C45.923 53.2096 45.2905 51.3221 45.2905 51.3221L50.4205 46.4946C50.4205 46.4946 53.573 46.8496 53.8055 46.8821C54.038 46.9146 55.833 47.8896 55.833 47.8896H55.8355Z" fill="url(#paint16_linear_3802_10685)" stroke="#A3822E" stroke-width="0.075" stroke-miterlimit="10"/>
<path d="M52.3104 48.4599C52.3104 48.4599 57.0654 48.8524 59.2779 44.9849C61.4929 41.1174 61.1404 39.6074 61.1404 39.6074C61.1404 39.6074 61.3154 38.8699 58.5304 40.8274L52.0354 41.2949C52.0354 41.2949 51.7079 43.1699 51.6954 43.9724C51.6829 44.7749 51.1904 47.2699 51.1904 47.5174C51.1904 47.7649 52.3054 48.4624 52.3054 48.4624L52.3104 48.4599Z" fill="url(#paint17_linear_3802_10685)" stroke="#A3822E" stroke-width="0.075" stroke-miterlimit="10"/>
<path d="M47.7353 53.0597C47.7353 53.0597 50.8078 51.5572 52.5653 47.9722C54.3228 44.3872 53.8078 43.2997 53.8078 43.2997L51.6028 42.8647C51.6028 42.8647 50.3153 44.2447 49.7878 45.5472C49.2603 46.8472 47.0428 49.6947 46.5153 50.1522C45.9878 50.6097 45.9553 52.0797 45.9553 52.0797L47.7353 53.0597Z" fill="url(#paint18_linear_3802_10685)" stroke="#A3822E" stroke-width="0.075" stroke-miterlimit="10"/>
<path d="M59.0053 32.8548C59.0053 32.8548 60.9303 31.5923 61.7028 31.5923C61.7028 31.5923 62.0278 34.8973 60.3528 38.0948C58.6803 41.2923 56.8203 42.9623 53.2503 43.3773C53.2503 43.3773 50.4178 38.2373 52.1753 36.6198C53.9328 35.0023 59.0028 32.8573 59.0028 32.8573L59.0053 32.8548Z" fill="url(#paint19_linear_3802_10685)" stroke="#A3822E" stroke-width="0.075" stroke-miterlimit="10"/>
<path d="M55.2079 29.65C55.2079 29.65 55.1429 27.0675 60.1104 23.6475C60.1104 23.6475 62.8279 31.24 56.6179 34.9425L55.3154 35.83L53.8054 32.42L55.2054 29.6525L55.2079 29.65Z" fill="url(#paint20_linear_3802_10685)" stroke="#A3822E" stroke-width="0.075" stroke-miterlimit="10"/>
<path d="M51.253 19.6396C51.253 19.6396 51.298 14.8821 55.458 13.0771C55.458 13.0771 58.238 18.5846 52.9405 22.3096C52.9405 22.3096 51.063 21.0396 51.253 19.6396Z" fill="url(#paint21_linear_3802_10685)" stroke="#A3822E" stroke-width="0.075" stroke-miterlimit="10"/>
<path d="M15.6079 51.4474C15.3654 51.3374 9.98291 58.4649 9.98291 58.4649C9.98291 58.4649 16.6029 65.7599 31.4779 65.7599C46.3529 65.7599 51.6479 57.8074 51.6479 57.8074L45.8829 50.8149C45.8829 50.8149 35.9004 60.7099 15.6054 51.4474H15.6079Z" fill="url(#paint22_linear_3802_10685)" stroke="#A3822E" stroke-width="0.075" stroke-miterlimit="10"/>
<path d="M15.538 57.905L15.593 57.9425C15.583 58.205 15.613 58.4275 15.683 58.61C15.7555 58.7925 15.8855 58.9475 16.078 59.0775C16.218 59.1725 16.368 59.2225 16.528 59.2275C16.688 59.2325 16.8405 59.1975 16.9855 59.1225C17.1305 59.0475 17.2505 58.94 17.343 58.8C17.4905 58.58 17.533 58.3725 17.4655 58.18C17.398 57.9875 17.263 57.745 17.0605 57.45C16.858 57.155 16.728 56.8925 16.673 56.665C16.618 56.4375 16.6805 56.1875 16.863 55.9175C17.083 55.59 17.3655 55.4125 17.708 55.3875C18.0505 55.3625 18.393 55.465 18.7355 55.695C18.873 55.7875 18.998 55.9025 19.108 56.0375C19.218 56.1725 19.2905 56.315 19.323 56.46C19.253 56.5025 19.108 56.6175 18.8855 56.8L18.833 56.765C18.8755 56.585 18.868 56.415 18.808 56.255C18.748 56.095 18.6405 55.9625 18.4855 55.8575C18.363 55.775 18.233 55.725 18.0955 55.7075C17.958 55.69 17.828 55.7075 17.703 55.765C17.578 55.82 17.4755 55.9075 17.3955 56.0275C17.248 56.245 17.208 56.4475 17.273 56.64C17.338 56.8325 17.473 57.0775 17.6805 57.38C17.888 57.6825 18.0205 57.945 18.078 58.1675C18.1355 58.39 18.078 58.6275 17.9105 58.88C17.7855 59.0675 17.638 59.2125 17.468 59.3175C17.3005 59.4225 17.118 59.4875 16.9255 59.51C16.733 59.5325 16.538 59.52 16.343 59.4675C16.148 59.415 15.958 59.3275 15.7755 59.205C15.633 59.11 15.493 58.975 15.3555 58.7975C15.218 58.6225 15.138 58.46 15.1155 58.31C15.2355 58.2225 15.3755 58.0875 15.5355 57.905H15.538Z" fill="black"/>
<path d="M20.9855 59.725L20.3305 61.0625C20.293 61.1375 20.268 61.195 20.2555 61.2325C20.243 61.27 20.2405 61.3075 20.2555 61.34C20.268 61.375 20.298 61.4025 20.3455 61.4275C20.388 61.4475 20.448 61.4675 20.528 61.485L20.4655 61.6125C20.3855 61.6125 20.318 61.6 20.2605 61.585C20.193 61.565 20.128 61.5425 20.068 61.5125C19.9555 61.4525 19.8755 61.3775 19.8305 61.29C19.7855 61.2025 19.7855 61.09 19.8305 60.96L19.753 60.9875C19.393 61.1125 19.048 61.0925 18.7205 60.9325C18.5105 60.83 18.3605 60.675 18.2755 60.47C18.188 60.265 18.1955 60.0575 18.298 59.8525C18.398 59.65 18.523 59.515 18.6755 59.45C18.828 59.385 18.9855 59.365 19.148 59.39C19.3105 59.415 19.5205 59.4675 19.773 59.545C19.968 59.6025 20.1105 59.64 20.198 59.655C20.2855 59.67 20.3605 59.665 20.418 59.6375C20.4755 59.61 20.528 59.55 20.573 59.4575C20.678 59.2425 20.7005 59.0475 20.6405 58.87C20.5805 58.695 20.443 58.555 20.2305 58.45C20.1055 58.3875 19.9805 58.355 19.8605 58.3525C19.738 58.35 19.633 58.3625 19.5455 58.395C19.458 58.4275 19.3905 58.465 19.348 58.51L19.283 58.4775L19.4405 58.1575C19.853 58.0975 20.2155 58.1425 20.5255 58.295C20.8305 58.445 21.0255 58.64 21.103 58.8775C21.183 59.1175 21.143 59.3975 20.9855 59.72V59.725ZM19.923 60.7275L20.3355 59.885L20.113 59.8275C19.9755 59.7875 19.8455 59.7525 19.728 59.725C19.608 59.695 19.493 59.68 19.378 59.675C19.2655 59.67 19.1555 59.6925 19.0555 59.7425C18.953 59.7925 18.873 59.88 18.813 60.0025C18.7255 60.1825 18.708 60.3425 18.7605 60.4825C18.8155 60.6225 18.9305 60.735 19.113 60.8225C19.1855 60.8575 19.2755 60.875 19.388 60.8725C19.5005 60.8725 19.598 60.8575 19.683 60.8275C19.7105 60.8175 19.7405 60.8075 19.773 60.8C19.8055 60.79 19.838 60.7775 19.8705 60.7625C19.903 60.7475 19.9205 60.735 19.9255 60.725L19.923 60.7275Z" fill="black"/>
<path d="M21.4956 62.1997L22.3181 59.2397C22.3681 59.2572 22.4156 59.2747 22.4556 59.2897C22.4956 59.3047 22.5306 59.3172 22.5606 59.3247C22.5881 59.3322 22.6231 59.3397 22.6656 59.3472C22.7081 59.3547 22.7556 59.3647 22.8131 59.3747L22.6656 59.9072C22.7706 59.8047 22.8781 59.7247 22.9856 59.6647C23.0956 59.6047 23.2131 59.5697 23.3406 59.5547C23.4681 59.5422 23.6006 59.5547 23.7381 59.5922C23.9456 59.6497 24.1181 59.7572 24.2531 59.9122C24.3906 60.0697 24.4631 60.2497 24.4706 60.4572C24.8281 60.1172 25.2081 60.0022 25.6131 60.1147C25.9781 60.2172 26.2081 60.3872 26.3031 60.6297C26.3981 60.8722 26.3881 61.1947 26.2781 61.5972L25.7806 63.3872C25.7406 63.3722 25.7081 63.3597 25.6806 63.3497C25.6531 63.3397 25.6331 63.3322 25.6131 63.3247C25.5931 63.3172 25.5706 63.3097 25.5356 63.2997C25.4981 63.2897 25.4731 63.2822 25.4606 63.2797C25.4481 63.2772 25.4256 63.2722 25.3906 63.2672C25.3556 63.2597 25.3181 63.2547 25.2806 63.2497L25.7381 61.6022C25.7956 61.3922 25.8281 61.2097 25.8356 61.0522C25.8431 60.8947 25.8106 60.7572 25.7331 60.6397C25.6581 60.5222 25.5231 60.4347 25.3331 60.3822C25.0531 60.3047 24.8381 60.3472 24.6881 60.5097C24.5381 60.6747 24.4231 60.8997 24.3431 61.1872L23.8781 62.8597C23.8381 62.8447 23.8056 62.8322 23.7806 62.8222C23.7556 62.8122 23.7331 62.8047 23.7156 62.7972C23.6981 62.7897 23.6731 62.7822 23.6356 62.7722C23.5981 62.7622 23.5681 62.7547 23.5506 62.7522C23.5331 62.7497 23.5081 62.7447 23.4806 62.7397C23.4531 62.7347 23.4206 62.7272 23.3831 62.7222L23.8856 60.9072C23.9681 60.6122 23.9756 60.3822 23.9081 60.2122C23.8431 60.0422 23.6956 59.9272 23.4681 59.8647C23.2631 59.8072 23.0981 59.8047 22.9681 59.8522C22.8381 59.8997 22.7381 59.9822 22.6631 60.0997C22.5906 60.2147 22.5281 60.3597 22.4806 60.5297L21.9806 62.3322C21.9406 62.3172 21.9081 62.3047 21.8831 62.2947C21.8556 62.2847 21.8356 62.2772 21.8181 62.2697C21.8006 62.2622 21.7756 62.2547 21.7381 62.2447C21.7081 62.2372 21.6706 62.2272 21.6231 62.2197C21.5756 62.2097 21.5306 62.2022 21.4856 62.1947L21.4956 62.1997Z" fill="black"/>
<path d="M27.7579 63.0249L27.5954 65.2274C27.5529 65.2199 27.5204 65.2149 27.4929 65.2099C27.4654 65.2049 27.4429 65.2024 27.4254 65.1974C27.4079 65.1949 27.3804 65.1899 27.3429 65.1874C27.3029 65.1849 27.2729 65.1824 27.2554 65.1849C27.2379 65.1849 27.2129 65.1849 27.1854 65.1849C27.1579 65.1849 27.1229 65.1849 27.0854 65.1849L27.4304 60.4824C27.4854 60.4899 27.5329 60.4974 27.5779 60.5049C27.6229 60.5124 27.658 60.5174 27.688 60.5199C27.7155 60.5199 27.7504 60.5224 27.7929 60.5199C27.8354 60.5174 27.8854 60.5199 27.9454 60.5199L27.8979 61.1674H27.9104C28.0304 60.9749 28.1654 60.8174 28.3154 60.6999C28.4654 60.5824 28.7079 60.5374 29.0454 60.5624C29.2454 60.5774 29.4229 60.6274 29.5754 60.7174C29.7304 60.8049 29.8579 60.9224 29.9604 61.0699C30.0629 61.2174 30.1379 61.3824 30.1804 61.5599C30.2254 61.7374 30.2379 61.9274 30.2254 62.1249C30.1879 62.6449 30.0304 63.0449 29.7529 63.3299C29.4754 63.6124 29.1304 63.7399 28.7154 63.7099C28.2779 63.6774 27.9629 63.4474 27.7754 63.0224H27.7629L27.7579 63.0249ZM27.8229 62.1399C27.7954 62.5049 27.8529 62.8074 27.9929 63.0474C28.1329 63.2874 28.3604 63.4199 28.6729 63.4424C28.8804 63.4574 29.0529 63.4074 29.1929 63.2949C29.3329 63.1799 29.4404 63.0224 29.5129 62.8199C29.5879 62.6174 29.6354 62.3824 29.6554 62.1174C29.6729 61.8899 29.6604 61.6774 29.6179 61.4824C29.5754 61.2874 29.4929 61.1249 29.3704 60.9949C29.2479 60.8649 29.0779 60.7949 28.8629 60.7799C28.6329 60.7624 28.4429 60.8224 28.2929 60.9574C28.1429 61.0924 28.0304 61.2699 27.9579 61.4849C27.8854 61.6999 27.8404 61.9199 27.8229 62.1424V62.1399Z" fill="black"/>
<path d="M30.9005 62.2001C30.8805 61.9726 30.9055 61.7626 30.9705 61.5676C31.0355 61.3726 31.138 61.2001 31.2755 61.0476C31.413 60.8976 31.578 60.7776 31.7655 60.6876C31.953 60.5976 32.1655 60.5451 32.4005 60.5251C32.693 60.5026 32.9555 60.5426 33.1905 60.6526C33.4255 60.7601 33.6155 60.9276 33.758 61.1551C33.9005 61.3826 33.988 61.6526 34.013 61.9676C34.0305 62.1726 34.013 62.3726 33.958 62.5701C33.9055 62.7676 33.8155 62.9476 33.6905 63.1101C33.5655 63.2726 33.4055 63.4051 33.2105 63.5051C33.018 63.6051 32.793 63.6676 32.5405 63.6876C32.263 63.7101 32.003 63.6676 31.763 63.5576C31.5205 63.4476 31.323 63.2776 31.1705 63.0426C31.0155 62.8076 30.9255 62.5276 30.9005 62.2001ZM32.408 60.7226C32.153 60.7451 31.953 60.8301 31.808 60.9826C31.6605 61.1351 31.563 61.3226 31.513 61.5476C31.463 61.7726 31.448 62.0076 31.468 62.2551C31.488 62.4876 31.538 62.6976 31.623 62.8901C31.708 63.0826 31.828 63.2351 31.9905 63.3476C32.1505 63.4601 32.3455 63.5076 32.5755 63.4901C32.803 63.4701 32.983 63.3776 33.1205 63.2076C33.258 63.0376 33.348 62.8426 33.398 62.6176C33.4455 62.3926 33.463 62.1801 33.448 61.9851C33.4355 61.8251 33.4055 61.6676 33.363 61.5176C33.318 61.3676 33.2555 61.2301 33.1705 61.1051C33.0855 60.9801 32.9805 60.8826 32.853 60.8126C32.7255 60.7426 32.578 60.7126 32.408 60.7276V60.7226Z" fill="black"/>
<path d="M37.3631 62.1525L37.4306 62.4825C37.2881 62.635 37.1331 62.765 36.9631 62.8725C36.7931 62.9775 36.6156 63.0525 36.4356 63.0925C36.1481 63.1575 35.8781 63.15 35.6256 63.0775C35.3731 63.0025 35.1606 62.865 34.9831 62.6575C34.8081 62.4525 34.6831 62.1925 34.6131 61.875C34.5481 61.58 34.5456 61.305 34.6031 61.0475C34.6606 60.79 34.7856 60.57 34.9731 60.3875C35.1606 60.205 35.4056 60.0825 35.7081 60.015C35.8781 59.9775 36.0456 59.97 36.2131 59.995C36.3806 60.0175 36.5356 60.075 36.6781 60.1625C36.8206 60.25 36.9456 60.375 37.0531 60.535C37.1606 60.6975 37.2431 60.895 37.2931 61.1325C37.3006 61.16 37.3056 61.185 37.3081 61.205C37.3106 61.225 37.3156 61.2475 37.3181 61.2725C36.8906 61.3525 36.4656 61.4425 36.0431 61.535L35.1581 61.73C35.1581 61.76 35.1681 61.805 35.1806 61.8625C35.2156 62.02 35.2731 62.1675 35.3506 62.2975C35.4281 62.43 35.5281 62.54 35.6456 62.6275C35.7631 62.715 35.9006 62.775 36.0506 62.805C36.2006 62.835 36.3606 62.83 36.5281 62.7925C36.8456 62.7225 37.1231 62.51 37.3606 62.1525H37.3631ZM35.1081 61.495L36.7756 61.1275C36.6956 60.8075 36.5756 60.5575 36.4156 60.38C36.2556 60.2025 36.0331 60.145 35.7531 60.2075C35.5681 60.25 35.4231 60.335 35.3181 60.4675C35.2131 60.5975 35.1456 60.755 35.1131 60.9375C35.0806 61.12 35.0806 61.3075 35.1106 61.4975L35.1081 61.495Z" fill="black"/>
<path d="M38.6104 62.4623L37.6604 59.5423C37.7129 59.5298 37.7629 59.5173 37.8054 59.5073C37.8479 59.4973 37.8854 59.4873 37.9129 59.4798C37.9379 59.4723 37.9704 59.4573 38.0104 59.4423C38.0504 59.4248 38.0979 59.4048 38.1504 59.3823L38.3504 59.9948L38.3554 59.9098C38.4729 59.4498 38.6654 59.1748 38.9379 59.0873C39.0179 59.0623 39.0829 59.0498 39.1354 59.0548L39.2179 59.5948C39.1979 59.5948 39.1504 59.5948 39.0754 59.5823C39.0004 59.5698 38.9404 59.5748 38.8954 59.5898C38.8229 59.6123 38.7554 59.6498 38.6929 59.6973C38.6304 59.7473 38.5829 59.8048 38.5554 59.8698C38.4954 60.0148 38.4679 60.1448 38.4779 60.2598C38.4879 60.3748 38.5229 60.5273 38.5854 60.7173L39.1004 62.2973C39.0604 62.3073 39.0254 62.3148 38.9979 62.3198C38.9704 62.3273 38.9479 62.3323 38.9279 62.3348C38.9104 62.3373 38.8829 62.3473 38.8504 62.3573C38.8129 62.3698 38.7879 62.3773 38.7779 62.3823C38.7679 62.3873 38.7454 62.3948 38.7129 62.4098C38.6804 62.4223 38.6454 62.4373 38.6129 62.4548L38.6104 62.4623Z" fill="black"/>
<path d="M40.8629 61.7002L39.6479 58.8802C39.7004 58.8627 39.7454 58.8477 39.7879 58.8327C39.8304 58.8202 39.8654 58.8077 39.8904 58.7952C39.9154 58.7827 39.948 58.7677 39.9855 58.7477C40.023 58.7277 40.0679 58.7027 40.1204 58.6752L40.353 59.2127C40.4055 58.7377 40.6379 58.4102 41.0529 58.2302C41.3929 58.0827 41.6755 58.0727 41.903 58.1927C42.1305 58.3152 42.3279 58.5727 42.4979 58.9702L43.2329 60.6752C43.1929 60.6877 43.1604 60.6977 43.1329 60.7077C43.1054 60.7177 43.0829 60.7252 43.0679 60.7302C43.0504 60.7352 43.0254 60.7452 42.9904 60.7602C42.9529 60.7752 42.9279 60.7877 42.9104 60.7977C42.8929 60.8077 42.8729 60.8177 42.8479 60.8327C42.8229 60.8452 42.7929 60.8627 42.7604 60.8802L42.083 59.3102C41.9955 59.1077 41.9054 58.9452 41.8079 58.8177C41.7129 58.6902 41.598 58.6052 41.4655 58.5652C41.333 58.5227 41.1804 58.5402 41.0054 58.6152C40.7154 58.7402 40.558 58.9252 40.528 59.1702C40.5005 59.4152 40.573 59.7352 40.743 60.1302L41.333 61.4977C41.293 61.5102 41.2604 61.5202 41.2329 61.5302C41.2054 61.5402 41.183 61.5477 41.1655 61.5527C41.148 61.5577 41.1204 61.5677 41.0879 61.5827C41.0504 61.5977 41.0279 61.6077 41.0179 61.6152C41.0079 61.6202 40.9879 61.6327 40.9554 61.6502C40.9229 61.6677 40.8904 61.6852 40.8579 61.7027L40.8629 61.7002Z" fill="black"/>
<path d="M45.273 57.2951L45.9905 58.6001C46.0305 58.6726 46.063 58.7276 46.088 58.7601C46.113 58.7926 46.143 58.8151 46.1755 58.8251C46.2105 58.8351 46.2505 58.8251 46.298 58.8001C46.338 58.7776 46.388 58.7401 46.448 58.6851L46.5155 58.8101C46.468 58.8751 46.4205 58.9251 46.378 58.9601C46.323 59.0051 46.268 59.0426 46.208 59.0751C46.0955 59.1326 45.988 59.1551 45.888 59.1426C45.788 59.1301 45.698 59.0651 45.618 58.9526L45.598 59.0326C45.493 59.3976 45.2805 59.6701 44.9605 59.8451C44.7555 59.9576 44.543 59.9901 44.3255 59.9451C44.108 59.8976 43.943 59.7726 43.833 59.5726C43.723 59.3751 43.6855 59.1951 43.7205 59.0326C43.7555 58.8701 43.828 58.7301 43.943 58.6126C44.0555 58.4926 44.218 58.3526 44.4305 58.1901C44.5905 58.0651 44.703 57.9701 44.7655 57.9051C44.828 57.8426 44.8655 57.7776 44.878 57.7151C44.8905 57.6526 44.8705 57.5751 44.8205 57.4851C44.7055 57.2751 44.558 57.1426 44.3805 57.0901C44.203 57.0376 44.0105 57.0701 43.8005 57.1851C43.678 57.2526 43.5805 57.3351 43.5055 57.4326C43.433 57.5301 43.383 57.6251 43.3605 57.7151C43.3355 57.8051 43.3305 57.8826 43.3405 57.9426L43.278 57.9776L43.1055 57.6651C43.293 57.2926 43.538 57.0226 43.843 56.8551C44.1405 56.6901 44.4105 56.6451 44.653 56.7176C44.893 56.7901 45.1005 56.9826 45.2755 57.2976L45.273 57.2951ZM45.4805 58.7426L45.028 57.9201L44.853 58.0701C44.7405 58.1601 44.638 58.2451 44.5455 58.3251C44.453 58.4051 44.373 58.4901 44.303 58.5826C44.233 58.6751 44.1905 58.7751 44.173 58.8876C44.1555 59.0001 44.1805 59.1151 44.248 59.2376C44.3455 59.4126 44.4655 59.5201 44.6105 59.5551C44.7555 59.5901 44.9155 59.5601 45.093 59.4651C45.163 59.4276 45.228 59.3626 45.293 59.2701C45.358 59.1776 45.4005 59.0901 45.4255 59.0051C45.433 58.9776 45.443 58.9476 45.453 58.9151C45.463 58.8826 45.473 58.8501 45.478 58.8126C45.483 58.7776 45.483 58.7551 45.478 58.7451L45.4805 58.7426Z" fill="black"/>
<path d="M19.743 11.4697C19.743 11.4697 18.9705 5.64972 16.2305 4.31222C16.2305 4.31222 30.573 -5.39028 45.4055 4.31222C45.4055 4.31222 41.4905 7.93472 41.6555 10.9747L19.743 11.4697Z" fill="url(#paint23_linear_3802_10685)" stroke="#A3822E" stroke-width="0.075" stroke-miterlimit="10"/>
<path d="M23.7255 7.74462L22.738 2.80462L24.158 2.51962C24.5205 2.44712 24.828 2.41962 25.078 2.43462C25.328 2.45212 25.528 2.52212 25.678 2.64462C25.828 2.76712 25.928 2.95212 25.9755 3.19712C26.008 3.36212 26.0105 3.51962 25.9805 3.66962C25.9505 3.81962 25.8955 3.95962 25.813 4.09212C25.7305 4.22462 25.628 4.33962 25.5055 4.44212C25.383 4.54212 25.2405 4.63212 25.083 4.70962C25.2355 4.68712 25.3955 4.68212 25.5605 4.69462C25.7255 4.70712 25.883 4.74462 26.028 4.80462C26.1755 4.86462 26.3055 4.95962 26.4155 5.08712C26.5255 5.21462 26.6005 5.37962 26.643 5.58212C26.7455 6.09712 26.6105 6.54962 26.2355 6.93712C26.1255 7.04712 25.9905 7.14212 25.828 7.21962C25.668 7.29962 25.5055 7.35962 25.3455 7.40212C25.183 7.44462 24.9905 7.48712 24.7605 7.53462L23.728 7.74212L23.7255 7.74462ZM23.428 2.94712L23.8105 4.86212L24.108 4.80212C24.298 4.76462 24.463 4.71962 24.598 4.67212C24.733 4.62462 24.8655 4.55712 24.988 4.46712C25.148 4.34712 25.2605 4.20212 25.328 4.03212C25.393 3.86212 25.408 3.67712 25.368 3.47962C25.323 3.25962 25.2405 3.09462 25.118 2.98212C24.9955 2.86962 24.838 2.80462 24.648 2.78712C24.458 2.76962 24.228 2.78712 23.9605 2.84212L23.428 2.94962V2.94712ZM23.8655 5.13212L24.308 7.34962L24.9955 7.21212C25.2355 7.16462 25.4355 7.07462 25.6005 6.94212C25.7655 6.80962 25.883 6.64712 25.9505 6.45462C26.018 6.26212 26.0305 6.05962 25.988 5.84712C25.908 5.44462 25.7205 5.18962 25.428 5.07712C25.133 4.96712 24.7455 4.95712 24.2655 5.05462L23.8605 5.13462L23.8655 5.13212Z" fill="black"/>
<path d="M30.2281 4.5772L30.3206 6.2897C30.3256 6.3872 30.3331 6.4572 30.3406 6.5047C30.3481 6.5522 30.3681 6.5872 30.3981 6.6147C30.4281 6.6422 30.4756 6.6547 30.5381 6.6497C30.5906 6.6472 30.6631 6.6322 30.7531 6.6047L30.7606 6.7672C30.6781 6.8097 30.6056 6.8397 30.5406 6.8547C30.4631 6.8722 30.3831 6.8847 30.3081 6.8897C30.1606 6.8922 30.0406 6.8622 29.9431 6.7997C29.8481 6.7372 29.7856 6.6247 29.7581 6.4672L29.6956 6.5397C29.4031 6.8647 29.0456 7.0397 28.6281 7.0622C28.3581 7.0772 28.1231 7.0047 27.9206 6.8472C27.7181 6.6897 27.6106 6.4772 27.5956 6.2122C27.5831 5.9522 27.6331 5.7472 27.7481 5.5972C27.8631 5.4472 28.0106 5.3372 28.1881 5.2722C28.3656 5.2072 28.6031 5.1397 28.9031 5.0772C29.1306 5.0272 29.2956 4.9847 29.3906 4.9497C29.4881 4.9147 29.5581 4.8672 29.6006 4.8072C29.6456 4.7472 29.6631 4.6572 29.6581 4.5397C29.6431 4.2622 29.5556 4.0547 29.3981 3.9122C29.2406 3.7697 29.0231 3.7072 28.7506 3.7222C28.5881 3.7297 28.4456 3.7672 28.3231 3.8322C28.1981 3.8972 28.1006 3.9697 28.0306 4.0522C27.9606 4.1347 27.9156 4.2097 27.8981 4.2772L27.8156 4.2822L27.7931 3.8722C28.1756 3.5797 28.5656 3.4222 28.9606 3.4022C29.3506 3.3822 29.6556 3.4697 29.8681 3.6647C30.0831 3.8597 30.2006 4.1647 30.2231 4.5797L30.2281 4.5772ZM29.7206 6.1797L29.6631 5.1022L29.4056 5.1697C29.2431 5.2072 29.0956 5.2447 28.9606 5.2822C28.8256 5.3197 28.6981 5.3672 28.5806 5.4272C28.4631 5.4872 28.3681 5.5697 28.2931 5.6772C28.2206 5.7847 28.1856 5.9172 28.1956 6.0772C28.2081 6.3072 28.2806 6.4772 28.4131 6.5872C28.5456 6.6972 28.7281 6.7472 28.9581 6.7347C29.0506 6.7297 29.1506 6.6947 29.2631 6.6322C29.3756 6.5697 29.4656 6.4997 29.5356 6.4222C29.5581 6.3972 29.5831 6.3697 29.6106 6.3422C29.6381 6.3147 29.6631 6.2847 29.6856 6.2497C29.7081 6.2172 29.7206 6.1947 29.7206 6.1822V6.1797Z" fill="black"/>
<path d="M31.3955 6.90482L31.6755 3.38232C31.738 3.39232 31.793 3.40232 31.843 3.40982C31.893 3.41732 31.9355 3.42482 31.968 3.42732C31.998 3.42732 32.0405 3.42982 32.088 3.42732C32.138 3.42732 32.1955 3.42732 32.263 3.42732L32.208 4.09982C32.518 3.64482 32.9305 3.43732 33.4505 3.47732C33.8755 3.51232 34.1705 3.64982 34.3355 3.89732C34.5005 4.14232 34.563 4.51232 34.523 5.00732L34.353 7.13732C34.3055 7.12982 34.2655 7.12232 34.233 7.11732C34.2005 7.11232 34.1755 7.10732 34.1555 7.10482C34.1355 7.10232 34.103 7.09732 34.0605 7.09482C34.0155 7.09232 33.9805 7.08982 33.9605 7.08982C33.9405 7.08982 33.9105 7.08982 33.878 7.08982C33.8455 7.08982 33.808 7.08982 33.763 7.08982L33.9205 5.12982C33.9405 4.87732 33.9355 4.66232 33.908 4.47982C33.8805 4.29732 33.808 4.15232 33.6955 4.03732C33.583 3.92232 33.418 3.85732 33.203 3.83982C32.8405 3.80982 32.5805 3.91232 32.4205 4.14732C32.2605 4.38232 32.1605 4.74482 32.1205 5.23982L31.9855 6.94982C31.938 6.94232 31.898 6.93482 31.8655 6.92982C31.833 6.92482 31.808 6.91982 31.7855 6.91732C31.763 6.91482 31.733 6.90982 31.693 6.90732C31.648 6.90482 31.618 6.90232 31.6055 6.90232C31.593 6.90232 31.5655 6.90232 31.523 6.90232C31.4805 6.90232 31.4405 6.90232 31.3955 6.90232V6.90482Z" fill="black"/>
<path d="M37.073 1.9948L36.3755 5.2348C36.3555 5.3323 36.343 5.3923 36.343 5.4198C36.343 5.4473 36.348 5.4673 36.3605 5.4798C36.4955 5.5073 36.7355 5.4123 37.0805 5.1873L37.6255 4.8298L38.323 4.3298C38.383 4.3473 38.438 4.3648 38.4855 4.3798C38.533 4.3948 38.5755 4.4073 38.608 4.4123C38.633 4.4173 38.6705 4.4223 38.7205 4.4298C38.7705 4.4348 38.828 4.4423 38.8955 4.4523L38.883 4.5048C38.793 4.5573 38.7155 4.5998 38.6455 4.6348C38.578 4.6698 38.423 4.7498 38.183 4.8773C37.943 5.0048 37.7055 5.1373 37.4755 5.2698C37.2455 5.4023 37.083 5.4973 36.9905 5.5548C37.048 5.6598 37.128 5.8023 37.228 5.9873C37.328 6.1723 37.443 6.3873 37.5755 6.6323C37.708 6.8773 37.8305 7.0998 37.9405 7.3023C38.0505 7.5048 38.158 7.6998 38.263 7.8923L38.2555 7.9273C38.1955 7.9098 38.148 7.8948 38.1105 7.8848C38.0755 7.8748 38.0455 7.8648 38.018 7.8573C37.993 7.8498 37.9555 7.8398 37.9055 7.8298C37.8505 7.8173 37.813 7.8098 37.7955 7.8073C37.778 7.8048 37.7455 7.7998 37.6955 7.7923C37.6455 7.7848 37.593 7.7773 37.5405 7.7723C37.463 7.6048 37.333 7.3523 37.148 7.0123C36.963 6.6723 36.7505 6.2848 36.508 5.8473C36.4555 5.7573 36.408 5.7073 36.3655 5.6973C36.3055 5.6848 36.2555 5.7648 36.2155 5.9423L35.898 7.4173C35.8505 7.4023 35.813 7.3898 35.783 7.3823C35.753 7.3723 35.7255 7.3648 35.7055 7.3573C35.6855 7.3498 35.653 7.3423 35.6155 7.3348C35.5705 7.3248 35.543 7.3198 35.528 7.3173C35.5155 7.3173 35.488 7.3123 35.448 7.3073C35.408 7.3023 35.3655 7.2973 35.323 7.2923L36.493 1.8623C36.553 1.8798 36.608 1.8973 36.6555 1.9123C36.703 1.9273 36.7455 1.9398 36.778 1.9448C36.808 1.9523 36.848 1.9573 36.898 1.9623C36.948 1.9673 37.0055 1.9748 37.073 1.9848V1.9948Z" fill="black"/>
<path d="M30.818 57.8122C44.4263 57.8122 55.458 46.7805 55.458 33.1722C55.458 19.5639 44.4263 8.53223 30.818 8.53223C17.2097 8.53223 6.17798 19.5639 6.17798 33.1722C6.17798 46.7805 17.2097 57.8122 30.818 57.8122Z" fill="url(#paint24_linear_3802_10685)" stroke="#A3822E" stroke-width="0.075" stroke-miterlimit="10"/>
<path d="M31.1855 51.4446C41.6941 51.4446 50.213 42.9257 50.213 32.4171C50.213 21.9086 41.6941 13.3896 31.1855 13.3896C20.6769 13.3896 12.158 21.9086 12.158 32.4171C12.158 42.9257 20.6769 51.4446 31.1855 51.4446Z" fill="white"/>
<path d="M31.1854 52.0798C20.3429 52.0798 11.5254 43.2598 11.5254 32.4198C11.5254 21.5798 20.3429 12.7573 31.1854 12.7573C42.0279 12.7573 50.8454 21.5773 50.8454 32.4173C50.8454 43.2573 42.0254 52.0773 31.1854 52.0773V52.0798ZM31.1854 14.0223C21.0429 14.0223 12.7904 22.2748 12.7904 32.4173C12.7904 42.5598 21.0429 50.8123 31.1854 50.8123C41.3279 50.8123 49.5804 42.5598 49.5804 32.4173C49.5804 22.2748 41.3279 14.0223 31.1854 14.0223Z" fill="black"/>
<path d="M31.1829 15.5449C21.8704 15.5449 14.3154 23.0999 14.3154 32.4199C14.3154 41.7399 21.8704 49.2949 31.1829 49.2949C40.4954 49.2949 48.0579 41.7399 48.0579 32.4199C48.0579 23.0999 40.5029 15.5449 31.1829 15.5449ZM30.6054 42.5899H31.0379C30.8879 42.7699 30.7904 42.8674 30.7904 42.8674C30.7229 42.7774 30.6679 42.6824 30.6054 42.5899Z" fill="#FF0000"/>
<path d="M43.4829 24.385C35.1504 21.4675 30.8279 26.67 30.8279 26.67C24.1154 21.1525 17.6804 25.195 17.6804 25.195C19.5479 33.8075 26.1204 34.7225 26.1204 34.7225C24.0779 41.3975 30.8279 46.8825 30.8279 46.8825C36.5229 43.65 36.2754 34.475 36.2754 34.475C42.8879 32.045 43.4829 24.3825 43.4829 24.3825V24.385ZM30.6329 30.4525C31.0879 29.8325 32.5304 32.7875 32.2529 33.065C31.9754 33.35 29.5629 33.47 29.3554 32.9075C29.1404 32.35 30.6329 30.4525 30.6329 30.4525ZM26.8554 32.085C22.4254 30.9275 21.2304 26.935 21.2304 26.935C26.2804 26.1825 28.9804 28.675 28.9804 28.675C26.8554 29.94 26.8554 32.085 26.8554 32.085ZM30.6454 42.53C28.2854 39.3025 28.5454 35.28 28.5454 35.28C30.5129 35.8425 33.0179 35.28 33.0179 35.28C33.5679 39.6025 30.6454 42.53 30.6454 42.53ZM35.2379 32.085C34.7329 30.4325 32.7254 28.5175 32.7254 28.5175C36.0654 25.72 40.1104 26.6 40.1104 26.6C38.6679 30.3275 35.2379 32.085 35.2379 32.085Z" fill="white" stroke="black" stroke-width="0.125" stroke-miterlimit="10"/>
<path d="M23.4829 54.4424L23.5154 54.4574C23.5304 54.5649 23.568 54.6674 23.6255 54.7624C23.6855 54.8574 23.7579 54.9224 23.8479 54.9624C23.9129 54.9924 23.9854 55.0049 24.0579 54.9999C24.1329 54.9949 24.2029 54.9724 24.2654 54.9324C24.3279 54.8924 24.3754 54.8399 24.4054 54.7699C24.4579 54.6499 24.4579 54.5499 24.4054 54.4724C24.3504 54.3949 24.2529 54.2949 24.1104 54.1749C23.9679 54.0549 23.8704 53.9449 23.8204 53.8424C23.7704 53.7399 23.7804 53.6099 23.8479 53.4524C23.9304 53.2674 24.0579 53.1474 24.2279 53.0974C24.3979 53.0474 24.5804 53.0624 24.7704 53.1474C24.8629 53.1874 24.9454 53.2399 25.0229 53.2999C25.1004 53.3599 25.1529 53.4124 25.1804 53.4549C25.1054 53.5224 25.0304 53.6024 24.9554 53.6974L24.9204 53.6824C24.9204 53.6324 24.9154 53.5774 24.8979 53.5174C24.8804 53.4574 24.8554 53.4074 24.8229 53.3624C24.7904 53.3174 24.7479 53.2849 24.6979 53.2624C24.5929 53.2174 24.4929 53.2074 24.3979 53.2349C24.3029 53.2624 24.2304 53.3299 24.1854 53.4349C24.1354 53.5474 24.1355 53.6449 24.188 53.7249C24.2405 53.8024 24.3354 53.9049 24.4729 54.0274C24.6104 54.1499 24.7054 54.2624 24.7604 54.3674C24.8154 54.4724 24.8079 54.5974 24.7454 54.7424C24.6854 54.8774 24.5979 54.9774 24.4829 55.0424C24.3679 55.1074 24.2429 55.1399 24.1054 55.1349C23.9704 55.1324 23.8404 55.1049 23.7204 55.0499C23.5304 54.9649 23.3804 54.8499 23.2729 54.6999C23.3904 54.5699 23.4604 54.4849 23.4879 54.4424H23.4829Z" fill="black"/>
<path d="M26.9954 54.66L26.7229 55.6425C26.7079 55.6975 26.6979 55.74 26.6929 55.7675C26.6879 55.795 26.6929 55.82 26.7054 55.84C26.7179 55.86 26.7404 55.8775 26.7779 55.8875C26.8079 55.895 26.8504 55.9 26.9079 55.9025L26.8829 55.995C26.8279 56.0025 26.7829 56.005 26.7429 56.0025C26.6954 55.9975 26.6504 55.99 26.6054 55.9775C26.5229 55.9525 26.4579 55.91 26.4179 55.8575C26.3754 55.8025 26.3604 55.73 26.3754 55.635L26.3279 55.665C26.1004 55.7925 25.8679 55.825 25.6254 55.7575C25.4704 55.715 25.3504 55.63 25.2679 55.5025C25.1829 55.375 25.1629 55.235 25.2054 55.085C25.2479 54.935 25.3129 54.83 25.4079 54.7675C25.5029 54.705 25.6054 54.67 25.7179 54.6675C25.8304 54.665 25.9779 54.6725 26.1579 54.6925C26.2979 54.7075 26.3954 54.715 26.4579 54.7125C26.5204 54.71 26.5679 54.6975 26.6029 54.6725C26.6404 54.6475 26.6654 54.6 26.6854 54.5325C26.7304 54.375 26.7204 54.24 26.6579 54.13C26.5954 54.02 26.4854 53.9425 26.3279 53.9C26.2354 53.875 26.1479 53.8675 26.0654 53.88C25.9829 53.8925 25.9129 53.915 25.8604 53.95C25.8054 53.9825 25.7654 54.0175 25.7429 54.0525L25.6954 54.04L25.7604 53.805C26.0304 53.7125 26.2804 53.6975 26.5079 53.76C26.7329 53.8225 26.8879 53.93 26.9704 54.08C27.0529 54.23 27.0629 54.425 26.9979 54.6625L26.9954 54.66ZM26.4054 55.4675L26.5779 54.8475L26.4204 54.8375C26.3204 54.8275 26.2304 54.8225 26.1479 54.8175C26.0654 54.8125 25.9829 54.8175 25.9079 54.8275C25.8304 54.84 25.7604 54.8675 25.6979 54.915C25.6354 54.9625 25.5929 55.03 25.5654 55.1225C25.5279 55.255 25.5379 55.365 25.5904 55.4525C25.6429 55.54 25.7379 55.6025 25.8704 55.6375C25.9229 55.6525 25.9854 55.6525 26.0629 55.6375C26.1404 55.6225 26.2029 55.6 26.2554 55.57C26.2729 55.56 26.2929 55.55 26.3129 55.54C26.3329 55.53 26.3554 55.5175 26.3729 55.5025C26.3929 55.4875 26.4029 55.4775 26.4054 55.47V55.4675Z" fill="black"/>
<path d="M27.5955 56.2024L27.998 52.9224C28.0355 52.9299 28.068 52.9374 28.098 52.9424C28.128 52.9499 28.153 52.9549 28.173 52.9549C28.193 52.9549 28.2155 52.9574 28.2455 52.9599C28.2755 52.9599 28.3105 52.9599 28.3505 52.9649L28.1555 54.5549C28.3505 54.2924 28.603 54.1799 28.9105 54.2174C29.158 54.2474 29.3305 54.3399 29.423 54.4949C29.5155 54.6499 29.5455 54.8699 29.5105 55.1549L29.3555 56.4174C29.328 56.4099 29.3055 56.4049 29.2855 56.4024C29.2655 56.3974 29.2505 56.3949 29.2405 56.3924C29.2305 56.3899 29.2105 56.3874 29.183 56.3824C29.1555 56.3799 29.1355 56.3774 29.123 56.3774C29.1105 56.3774 29.093 56.3774 29.0755 56.3774C29.0555 56.3774 29.033 56.3774 29.008 56.3774L29.1505 55.2149C29.1805 54.9624 29.168 54.7724 29.1105 54.6499C29.053 54.5249 28.9355 54.4524 28.7555 54.4299C28.373 54.3824 28.1555 54.5924 28.098 55.0599L27.953 56.2474C27.9255 56.2399 27.903 56.2349 27.883 56.2324C27.863 56.2299 27.848 56.2249 27.8355 56.2224C27.823 56.2199 27.8055 56.2174 27.7805 56.2124C27.753 56.2099 27.7355 56.2074 27.728 56.2074C27.7205 56.2074 27.703 56.2074 27.6805 56.2074C27.6555 56.2074 27.6305 56.2074 27.6055 56.2074L27.5955 56.2024Z" fill="black"/>
<path d="M31.7431 55.0475L31.7581 56.0675C31.7581 56.125 31.7606 56.1675 31.7656 56.195C31.7681 56.2225 31.7806 56.245 31.7981 56.2625C31.8156 56.28 31.8431 56.2875 31.8806 56.2875C31.9131 56.2875 31.9556 56.28 32.0081 56.2675V56.365C31.9606 56.3875 31.9156 56.405 31.8781 56.4125C31.8306 56.4225 31.7831 56.4275 31.7381 56.4275C31.6506 56.4275 31.5806 56.405 31.5231 56.365C31.4681 56.325 31.4331 56.2575 31.4206 56.1625L31.3831 56.205C31.2006 56.3925 30.9856 56.4875 30.7356 56.49C30.5756 56.4925 30.4356 56.445 30.3206 56.345C30.2031 56.2475 30.1431 56.1175 30.1431 55.96C30.1431 55.805 30.1756 55.685 30.2481 55.5975C30.3206 55.51 30.4106 55.45 30.5181 55.4125C30.6256 55.3775 30.7681 55.345 30.9481 55.3125C31.0856 55.2875 31.1831 55.2675 31.2406 55.2475C31.2981 55.23 31.3431 55.2025 31.3706 55.1675C31.3981 55.1325 31.4106 55.08 31.4106 55.01C31.4106 54.845 31.3606 54.72 31.2706 54.63C31.1806 54.54 31.0531 54.5 30.8881 54.5025C30.7931 54.5025 30.7081 54.5225 30.6306 54.5575C30.5531 54.5925 30.4956 54.635 30.4531 54.6825C30.4081 54.73 30.3806 54.7725 30.3681 54.8125H30.3181L30.3156 54.5675C30.5506 54.4025 30.7856 54.3175 31.0206 54.315C31.2531 54.3125 31.4331 54.37 31.5556 54.4925C31.6781 54.615 31.7406 54.7975 31.7456 55.045L31.7431 55.0475ZM31.4031 55.99L31.3931 55.3475L31.2381 55.3825C31.1406 55.4025 31.0506 55.42 30.9706 55.44C30.8881 55.4575 30.8131 55.485 30.7406 55.5175C30.6706 55.55 30.6106 55.5975 30.5631 55.66C30.5181 55.7225 30.4956 55.8 30.4956 55.895C30.4956 56.0325 30.5381 56.135 30.6131 56.2025C30.6906 56.27 30.7956 56.305 30.9331 56.3025C30.9881 56.3025 31.0481 56.2825 31.1181 56.2475C31.1856 56.2125 31.2406 56.1725 31.2831 56.13C31.2981 56.115 31.3131 56.1 31.3306 56.085C31.3481 56.07 31.3631 56.0525 31.3781 56.0325C31.3931 56.0125 31.4006 56 31.4006 55.9925L31.4031 55.99Z" fill="black"/>
<path d="M32.6531 56.3671L32.1956 53.1071C32.2331 53.1071 32.2656 53.1021 32.2956 53.1021C32.3256 53.1021 32.3506 53.0996 32.3706 53.0946C32.3881 53.0921 32.4131 53.0871 32.4406 53.0796C32.4706 53.0721 32.5031 53.0646 32.5431 53.0571L32.7706 54.6696C32.8456 54.5146 32.9406 54.3896 33.0506 54.2921C33.1631 54.1946 33.3006 54.1371 33.4606 54.1146C33.6556 54.0871 33.8256 54.1146 33.9731 54.1921C34.1181 54.2696 34.2356 54.3821 34.3206 54.5296C34.4056 54.6771 34.4606 54.8321 34.4831 55.0021C34.5031 55.1496 34.5031 55.2946 34.4781 55.4371C34.4531 55.5771 34.4056 55.7071 34.3356 55.8246C34.2656 55.9421 34.1731 56.0421 34.0606 56.1221C33.9456 56.2021 33.8131 56.2521 33.6581 56.2746C33.3856 56.3121 33.1631 56.2396 32.9956 56.0521C32.9656 56.0821 32.9281 56.1221 32.8856 56.1746C32.8431 56.2271 32.7931 56.2871 32.7356 56.3546L32.6531 56.3646V56.3671ZM33.3781 54.3146C33.1481 54.3471 32.9956 54.4671 32.9206 54.6771C32.8456 54.8871 32.8281 55.1371 32.8706 55.4296C32.8931 55.5821 32.9356 55.7171 33.0031 55.8321C33.0681 55.9471 33.1531 56.0321 33.2556 56.0871C33.3581 56.1421 33.4706 56.1596 33.5956 56.1421C33.7131 56.1246 33.8081 56.0821 33.8831 56.0096C33.9581 55.9371 34.0156 55.8471 34.0531 55.7396C34.0906 55.6321 34.1131 55.5246 34.1206 55.4121C34.1281 55.3021 34.1206 55.1871 34.1056 55.0746C34.0831 54.9096 34.0406 54.7671 33.9806 54.6471C33.9206 54.5271 33.8406 54.4371 33.7406 54.3771C33.6406 54.3171 33.5206 54.2946 33.3831 54.3146H33.3781Z" fill="black"/>
<path d="M36.4104 54.2271L36.6654 55.2146C36.6804 55.2696 36.6929 55.3121 36.7029 55.3371C36.7129 55.3621 36.7279 55.3821 36.7504 55.3946C36.7704 55.4071 36.8004 55.4071 36.8354 55.3996C36.8654 55.3921 36.9054 55.3746 36.9554 55.3471L36.9804 55.4396C36.9379 55.4746 36.8979 55.4996 36.8629 55.5171C36.8204 55.5371 36.7754 55.5546 36.7304 55.5646C36.6454 55.5846 36.5704 55.5821 36.5079 55.5546C36.4429 55.5296 36.3954 55.4721 36.3604 55.3821L36.3329 55.4321C36.2004 55.6571 36.0129 55.8021 35.7729 55.8646C35.6179 55.9046 35.4729 55.8921 35.3354 55.8221C35.1979 55.7546 35.1104 55.6446 35.0704 55.4921C35.0329 55.3421 35.0379 55.2171 35.0879 55.1146C35.1379 55.0121 35.2104 54.9321 35.3054 54.8721C35.4004 54.8121 35.5329 54.7471 35.7004 54.6721C35.8279 54.6146 35.9179 54.5721 35.9704 54.5396C36.0229 54.5096 36.0579 54.4721 36.0779 54.4321C36.0954 54.3921 36.0954 54.3371 36.0779 54.2696C36.0354 54.1096 35.9604 53.9971 35.8529 53.9346C35.7429 53.8696 35.6104 53.8596 35.4529 53.8996C35.3604 53.9246 35.2804 53.9621 35.2154 54.0146C35.1504 54.0671 35.1029 54.1221 35.0704 54.1771C35.0404 54.2346 35.0229 54.2821 35.0204 54.3246L34.9729 54.3371L34.9104 54.0996C35.0979 53.8846 35.3079 53.7471 35.5354 53.6871C35.7604 53.6271 35.9479 53.6446 36.0979 53.7321C36.2454 53.8221 36.3504 53.9846 36.4129 54.2221L36.4104 54.2271ZM36.3054 55.2221L36.1429 54.5996L36.0004 54.6696C35.9104 54.7096 35.8279 54.7496 35.7529 54.7871C35.6779 54.8246 35.6104 54.8671 35.5479 54.9171C35.4854 54.9646 35.4404 55.0246 35.4104 55.0971C35.3804 55.1696 35.3754 55.2496 35.4004 55.3421C35.4354 55.4746 35.4979 55.5646 35.5879 55.6146C35.6779 55.6621 35.7904 55.6696 35.9229 55.6346C35.9754 55.6196 36.0304 55.5896 36.0879 55.5371C36.1454 55.4871 36.1904 55.4346 36.2204 55.3821C36.2304 55.3646 36.2429 55.3471 36.2554 55.3271C36.2679 55.3071 36.2804 55.2871 36.2904 55.2646C36.3004 55.2421 36.3029 55.2271 36.3029 55.2196L36.3054 55.2221Z" fill="black"/>
<path d="M36.7304 52.9149L37.0204 52.6724L37.2054 53.2124L37.6454 53.0624C37.6529 53.1049 37.6604 53.1349 37.6654 53.1499C37.6729 53.1724 37.6854 53.1974 37.7004 53.2224L37.2604 53.3724L37.6179 54.4174L37.6704 54.5674C37.7254 54.7274 37.7879 54.8474 37.8629 54.9274C37.9354 55.0099 38.0354 55.0274 38.1604 54.9849C38.1879 54.9749 38.2454 54.9449 38.3379 54.8924L38.3729 54.9924C38.2529 55.0899 38.1429 55.1549 38.0479 55.1874C37.9704 55.2149 37.9004 55.2274 37.8354 55.2274C37.7704 55.2274 37.7079 55.2099 37.6504 55.1724C37.5929 55.1349 37.5379 55.0799 37.4854 54.9999C37.4354 54.9199 37.3879 54.8199 37.3454 54.6949L36.9304 53.4824L36.6729 53.5699C36.6729 53.5499 36.6679 53.5199 36.6554 53.4874C36.6429 53.4499 36.6304 53.4249 36.6179 53.4124L36.8754 53.3249L36.7354 52.9124L36.7304 52.9149Z" fill="black"/>
<path d="M49.5803 52.6724C49.8178 52.7324 51.7203 52.4074 54.4478 50.9874C55.3103 50.5399 56.2528 49.9824 57.2528 49.2949" stroke="#A3822E" stroke-width="0.025" stroke-miterlimit="10"/>
<path d="M54.323 46.495C54.323 46.495 57.978 44.175 59.5605 41.2925" stroke="#A3822E" stroke-width="0.025" stroke-miterlimit="10"/>
<path d="M55.5979 39.9574C55.5979 39.9574 59.3529 37.6349 61.1604 33.1724" stroke="#A3822E" stroke-width="0.025" stroke-miterlimit="10"/>
<path d="M56.188 32.417C56.188 32.417 58.823 30.1145 59.5605 25.332" stroke="#A3822E" stroke-width="0.025" stroke-miterlimit="10"/>
<path d="M53.3855 20.1748L55.0255 14.2598" stroke="#A3822E" stroke-width="0.025" stroke-miterlimit="10"/>
</g>
<defs>
<linearGradient id="paint0_linear_3802_10685" x1="5.68046" y1="21.2399" x2="1.32296" y2="26.4424" gradientUnits="userSpaceOnUse">
<stop stop-color="#F7E349"/>
<stop offset="1" stop-color="#A3822E"/>
</linearGradient>
<linearGradient id="paint1_linear_3802_10685" x1="56.0479" y1="21.2399" x2="60.4054" y2="26.4424" gradientUnits="userSpaceOnUse">
<stop stop-color="#F7E349"/>
<stop offset="1" stop-color="#A3822E"/>
</linearGradient>
<linearGradient id="paint2_linear_3802_10685" x1="11.3855" y1="13.7648" x2="6.18299" y2="14.1148" gradientUnits="userSpaceOnUse">
<stop stop-color="#F7E349"/>
<stop offset="1" stop-color="#A3822E"/>
</linearGradient>
<linearGradient id="paint3_linear_3802_10685" x1="17.7854" y1="9.26494" x2="14.2004" y2="16.8574" gradientUnits="userSpaceOnUse">
<stop stop-color="#F7E349"/>
<stop offset="1" stop-color="#A3822E"/>
</linearGradient>
<linearGradient id="paint4_linear_3802_10685" x1="21.5353" y1="11.8296" x2="10.1478" y2="11.8296" gradientUnits="userSpaceOnUse">
<stop stop-color="#F7E349"/>
<stop offset="1" stop-color="#A3822E"/>
</linearGradient>
<linearGradient id="paint5_linear_3802_10685" x1="5.53051" y1="53.7747" x2="15.0905" y2="55.2497" gradientUnits="userSpaceOnUse">
<stop stop-color="#F7E349"/>
<stop offset="1" stop-color="#A3822E"/>
</linearGradient>
<linearGradient id="paint6_linear_3802_10685" x1="9.57547" y1="48.4246" x2="7.74797" y2="56.5796" gradientUnits="userSpaceOnUse">
<stop stop-color="#F7E349"/>
<stop offset="1" stop-color="#A3822E"/>
</linearGradient>
<linearGradient id="paint7_linear_3802_10685" x1="5.97543" y1="42.8324" x2="2.95293" y2="48.0349" gradientUnits="userSpaceOnUse">
<stop stop-color="#F7E349"/>
<stop offset="1" stop-color="#A3822E"/>
</linearGradient>
<linearGradient id="paint8_linear_3802_10685" x1="9.11297" y1="45.2747" x2="17.408" y2="53.8522" gradientUnits="userSpaceOnUse">
<stop stop-color="#F7E349"/>
<stop offset="1" stop-color="#A3822E"/>
</linearGradient>
<linearGradient id="paint9_linear_3802_10685" x1="5.1829" y1="35.4348" x2="0.825402" y2="45.2773" gradientUnits="userSpaceOnUse">
<stop stop-color="#F7E349"/>
<stop offset="1" stop-color="#A3822E"/>
</linearGradient>
<linearGradient id="paint10_linear_3802_10685" x1="5.62034" y1="27.77" x2="-0.917166" y2="35.7825" gradientUnits="userSpaceOnUse">
<stop stop-color="#F7E349"/>
<stop offset="1" stop-color="#A3822E"/>
</linearGradient>
<linearGradient id="paint11_linear_3802_10685" x1="9.37302" y1="17.4346" x2="3.39802" y2="18.2771" gradientUnits="userSpaceOnUse">
<stop stop-color="#F7E349"/>
<stop offset="1" stop-color="#A3822E"/>
</linearGradient>
<linearGradient id="paint12_linear_3802_10685" x1="50.3429" y1="13.7648" x2="55.5454" y2="14.1148" gradientUnits="userSpaceOnUse">
<stop stop-color="#F7E349"/>
<stop offset="1" stop-color="#A3822E"/>
</linearGradient>
<linearGradient id="paint13_linear_3802_10685" x1="43.9429" y1="9.26494" x2="47.5279" y2="16.8574" gradientUnits="userSpaceOnUse">
<stop stop-color="#F7E349"/>
<stop offset="1" stop-color="#A3822E"/>
</linearGradient>
<linearGradient id="paint14_linear_3802_10685" x1="40.1929" y1="11.8296" x2="51.5804" y2="11.8296" gradientUnits="userSpaceOnUse">
<stop stop-color="#F7E349"/>
<stop offset="1" stop-color="#A3822E"/>
</linearGradient>
<linearGradient id="paint15_linear_3802_10685" x1="56.198" y1="53.7747" x2="46.638" y2="55.2497" gradientUnits="userSpaceOnUse">
<stop stop-color="#F7E349"/>
<stop offset="1" stop-color="#A3822E"/>
</linearGradient>
<linearGradient id="paint16_linear_3802_10685" x1="52.153" y1="48.4246" x2="53.9805" y2="56.5796" gradientUnits="userSpaceOnUse">
<stop stop-color="#F7E349"/>
<stop offset="1" stop-color="#A3822E"/>
</linearGradient>
<linearGradient id="paint17_linear_3802_10685" x1="55.7529" y1="42.8324" x2="58.7754" y2="48.0349" gradientUnits="userSpaceOnUse">
<stop stop-color="#F7E349"/>
<stop offset="1" stop-color="#A3822E"/>
</linearGradient>
<linearGradient id="paint18_linear_3802_10685" x1="52.6153" y1="45.2747" x2="44.3203" y2="53.8522" gradientUnits="userSpaceOnUse">
<stop stop-color="#F7E349"/>
<stop offset="1" stop-color="#A3822E"/>
</linearGradient>
<linearGradient id="paint19_linear_3802_10685" x1="56.5453" y1="35.4348" x2="60.9028" y2="45.2773" gradientUnits="userSpaceOnUse">
<stop stop-color="#F7E349"/>
<stop offset="1" stop-color="#A3822E"/>
</linearGradient>
<linearGradient id="paint20_linear_3802_10685" x1="56.1079" y1="27.77" x2="62.6454" y2="35.7825" gradientUnits="userSpaceOnUse">
<stop stop-color="#F7E349"/>
<stop offset="1" stop-color="#A3822E"/>
</linearGradient>
<linearGradient id="paint21_linear_3802_10685" x1="52.3555" y1="17.4346" x2="58.3305" y2="18.2771" gradientUnits="userSpaceOnUse">
<stop stop-color="#F7E349"/>
<stop offset="1" stop-color="#A3822E"/>
</linearGradient>
<linearGradient id="paint22_linear_3802_10685" x1="30.8179" y1="50.8149" x2="30.8179" y2="65.7574" gradientUnits="userSpaceOnUse">
<stop stop-color="#F7E349"/>
<stop offset="1" stop-color="#A3822E"/>
</linearGradient>
<linearGradient id="paint23_linear_3802_10685" x1="30.818" y1="11.4697" x2="30.818" y2="0.00222279" gradientUnits="userSpaceOnUse">
<stop stop-color="#F7E349"/>
<stop offset="1" stop-color="#A3822E"/>
</linearGradient>
<linearGradient id="paint24_linear_3802_10685" x1="30.818" y1="8.53223" x2="30.818" y2="57.8122" gradientUnits="userSpaceOnUse">
<stop stop-color="#F7E349"/>
<stop offset="1" stop-color="#A3822E"/>
</linearGradient>
<clipPath id="clip0_3802_10685">
<rect width="61.7283" height="65.7597" fill="white"/>
</clipPath>
</defs>
</svg>
