<svg width="80" height="44" viewBox="0 0 80 44" fill="none" xmlns="http://www.w3.org/2000/svg">
<g clip-path="url(#clip0_3802_7619)">
<path d="M26.9913 7.91965L26.469 10.485C31.6302 10.4644 47.8709 4.49613 48.625 0.935499C48.625 0.936123 48.6749 0.702404 48.7235 0.467438C48.7721 0.233719 48.8201 0 48.817 0C41.7811 4.73421 31.1522 7.90906 26.9913 7.91965ZM26.0066 12.3454L25.5198 14.7062C30.4959 14.6969 46.9216 8.71866 47.6758 5.1574L47.8846 4.13901C40.6088 9.17737 30.4205 12.2226 26.0066 12.3454ZM24.9464 16.6533L24.4229 19.2161C29.4301 19.1188 45.826 13.2291 46.5801 9.66912L46.8288 8.45129C41.189 12.3709 29.4875 16.6776 24.9464 16.6533Z" fill="url(#paint0_linear_3802_7619)"/>
<path d="M0.0860086 24.5605H1.97134V31.147H2.01497C2.68684 29.9778 3.89968 29.2187 5.59056 29.2187C8.19139 29.2187 10.0325 31.3851 10.01 34.5718C10.01 38.3188 7.64916 40.1816 5.30823 40.1816C3.79124 40.1816 2.57777 39.597 1.79808 38.2109H1.73326L1.64725 39.9436H0C0.0430043 39.2281 0.0860086 38.1661 0.0860086 37.2349V24.5605ZM1.97134 35.7404C1.97134 35.9784 2.01497 36.2159 2.0586 36.4334C2.42694 37.7547 3.53196 38.6659 4.9187 38.6659C6.91185 38.6659 8.10413 37.0405 8.10413 34.6347C8.10413 32.5325 7.01968 30.735 4.98352 30.735C3.68279 30.735 2.46932 31.6232 2.07917 33.0753C2.03616 33.2922 1.97134 33.5515 1.97134 33.8557V35.7404Z" fill="#1B517E"/>
<path d="M19.5229 37.4299C19.5229 38.3405 19.5659 39.228 19.6961 39.9435H17.9622L17.8108 38.6216H17.7454C17.1607 39.4455 16.0333 40.1816 14.5394 40.1816C12.4153 40.1816 11.3327 38.6877 11.3327 37.1713C11.3327 34.6353 13.5852 33.2479 17.6375 33.2716V33.0535C17.6375 32.1878 17.3995 30.6265 15.2542 30.6265C14.2788 30.6265 13.2611 30.9294 12.5238 31.4068L12.0894 30.1497C12.9569 29.587 14.2146 29.2186 15.5353 29.2186C18.7426 29.2186 19.5229 31.4068 19.5229 33.5084V37.4299ZM17.6812 34.5917C15.6001 34.548 13.2393 34.917 13.2393 36.9525C13.2393 38.1891 14.0619 38.7743 15.0367 38.7743C16.4023 38.7743 17.2686 37.9067 17.5721 37.0192C17.6375 36.8229 17.6812 36.6066 17.6812 36.4128V34.5917Z" fill="#1B517E"/>
<path d="M22.4488 32.2942C22.4488 31.211 22.4263 30.3241 22.3621 29.4565H24.0505L24.1602 31.1898H24.2026C24.7236 30.1945 25.9371 29.2184 27.6704 29.2184C29.1207 29.2184 31.3756 30.0854 31.3756 33.6809V39.944H29.4678V33.8984C29.4678 32.2082 28.8408 30.799 27.0415 30.799C25.785 30.799 24.8084 31.6884 24.4837 32.7504C24.3977 32.9872 24.3541 33.3132 24.3541 33.6392V39.944H22.4488V32.2942Z" fill="#1B517E"/>
<path d="M36.055 34.2671H36.098C36.3586 33.8982 36.7269 33.4432 37.031 33.0755L40.1074 29.4569H42.4041L38.3523 33.7685L42.9663 39.9437H40.6496L37.031 34.9172L36.055 36.0004V39.9437H34.1697V24.5606H36.055V34.2671Z" fill="#1B517E"/>
<path d="M58.6768 29.8279C58.6058 29.7431 58.536 29.6584 58.4606 29.5805C58.3372 29.4533 58.2001 29.333 58.0542 29.2196C57.2652 28.5751 56.3116 28.1962 55.2839 28.1962C54.1745 28.1962 53.153 28.6412 52.3309 29.3823C52.3066 29.3972 52.286 29.414 52.2617 29.4278C52.2324 29.4427 52.1907 29.4645 52.1421 29.4514C52.0074 29.4159 51.8622 29.2719 51.8616 29.0656V24.7771C51.8616 24.5084 51.6403 24.2909 51.3699 24.2909H49.2832C49.0109 24.2909 48.7908 24.5084 48.7908 24.7771V24.9266C48.7908 24.9316 48.7896 24.936 48.7896 24.9422L48.7933 39.2633C48.7933 39.5375 49.0152 39.7606 49.2888 39.7606H51.1779C51.2982 39.7606 51.4072 39.7151 51.4939 39.6428C51.4964 39.641 51.5007 39.641 51.502 39.6385C51.5051 39.6366 51.5063 39.6335 51.5082 39.631C51.5487 39.5955 51.5805 39.5537 51.6073 39.507C51.6397 39.4459 51.6622 39.3817 51.6696 39.3106C51.707 39.0053 51.9152 38.8364 52.0442 38.8806C52.0885 38.8949 52.1308 38.9161 52.1745 38.946C52.2187 38.9735 52.2617 39.0034 52.3041 39.0314C52.4319 39.1249 52.9959 39.5107 53.4316 39.7052C53.6516 39.8024 54.3521 40.0399 55.1655 40.0399C55.9794 40.0399 56.5572 39.8597 56.6937 39.8236C56.8308 39.7868 56.9654 39.7407 57.095 39.6815C57.732 39.4072 58.2437 39.0314 58.6332 38.5546C59.0178 38.0866 59.3369 37.5325 59.5955 36.8962C59.9801 36.0579 60.1988 35.0975 60.1988 34.0741C60.1988 32.4032 59.6136 30.898 58.6768 29.8279ZM54.3683 37.8317C52.8395 37.8317 51.5992 36.185 51.5992 34.1545C51.5992 32.1227 52.8395 30.4761 54.3683 30.4761C55.8965 30.4761 57.1355 32.1227 57.1355 34.1545C57.1355 36.185 55.8965 37.8317 54.3683 37.8317Z" fill="#1B517E"/>
<path d="M65.6308 29.4265C65.6289 29.3984 65.6258 29.371 65.6233 29.3442V28.9777C65.6233 28.7022 65.4014 28.4791 65.1259 28.4791H63.0231C62.7476 28.4791 62.5245 28.7022 62.5245 28.9777V40.3066C62.5139 40.5951 62.163 40.9909 61.7573 41.0887C61.5703 41.1467 61.3827 41.1735 61.1945 41.1648C61.0063 41.1579 60.8772 41.234 60.8043 41.3929C60.7757 41.4639 60.7545 41.5587 60.7389 41.6752C60.7258 41.7905 60.742 43.0046 60.7501 43.105C60.7582 43.2065 60.7757 43.2925 60.8043 43.3642C60.891 43.4951 61.043 43.5817 61.2593 43.6254C61.3316 43.6547 62.7277 43.6584 63.6669 43.4303C64.0353 43.3412 64.3319 43.1629 64.5787 42.9766C64.8224 42.7883 65.0399 42.549 65.2294 42.2598C65.4463 41.9133 65.5647 41.4758 65.5872 40.9485C65.594 40.7896 65.6233 40.3745 65.6233 40.3259V30.0316C65.6258 29.9762 65.6277 29.9201 65.6308 29.8609C65.6383 29.7169 65.6383 29.5717 65.6308 29.4265Z" fill="#1B517E"/>
<path d="M77.9794 29.8279C77.9096 29.7431 77.8392 29.6584 77.7632 29.5805C77.6398 29.4533 77.502 29.333 77.3568 29.2196C76.5684 28.5751 75.6148 28.1962 74.5865 28.1962C73.4777 28.1962 72.4562 28.6412 71.6347 29.3823C71.6098 29.3972 71.5886 29.414 71.5637 29.4278C71.535 29.4427 71.4945 29.4645 71.4453 29.4514C71.3107 29.4159 71.1654 29.2719 71.1636 29.0656V24.7771C71.1636 24.5084 70.9442 24.2909 70.6731 24.2909H68.5864C68.3141 24.2909 68.094 24.5084 68.094 24.7771V24.9266C68.094 24.9316 68.0922 24.936 68.0922 24.9422L68.0953 39.2633C68.0953 39.5375 68.3178 39.7606 68.5927 39.7606H70.4792C70.6014 39.7606 70.7111 39.7151 70.7971 39.6428C70.7996 39.641 70.8021 39.641 70.8052 39.6385C70.8077 39.6366 70.8096 39.6335 70.8114 39.631C70.8501 39.5955 70.8843 39.5537 70.9105 39.507L70.9118 39.5051C70.9442 39.4459 70.9654 39.3817 70.9728 39.3106C71.0102 39.0053 71.2172 38.8364 71.3468 38.8806C71.391 38.8949 71.4347 38.9161 71.4777 38.946C71.5207 38.9735 71.5637 39.0034 71.6079 39.0314C71.7351 39.1249 72.2985 39.5107 72.7348 39.7052C72.9548 39.8024 73.6541 40.0399 74.4693 40.0399C75.2814 40.0399 75.8591 39.8597 75.9969 39.8236C76.134 39.7868 76.268 39.7407 76.3983 39.6815C77.0333 39.4072 77.5475 39.0314 77.9371 38.5546C78.3216 38.0866 78.6407 37.5325 78.8987 36.8962C79.2827 36.0579 79.5014 35.0975 79.5014 34.0741C79.5014 32.4032 78.9156 30.898 77.9794 29.8279ZM73.6721 37.8317C72.1421 37.8317 70.903 36.185 70.903 34.1545C70.903 32.1227 72.1421 30.4761 73.6721 30.4761C75.2004 30.4761 76.4394 32.1227 76.4394 34.1545C76.4394 36.185 75.2004 37.8317 73.6721 37.8317Z" fill="#1B517E"/>
<path d="M64.0374 24.415C63.7382 24.4194 63.4752 24.4873 63.249 24.6188C63.0265 24.7547 62.8544 24.936 62.7323 25.1585C62.6051 25.3848 62.5422 25.6341 62.5422 25.9108C62.5422 26.1782 62.6051 26.4181 62.7229 26.64C62.8407 26.8625 63.0084 27.0395 63.2215 27.1748C63.4391 27.3063 63.6927 27.3742 63.9832 27.3792C64.3091 27.3742 64.5858 27.3063 64.8127 27.1748C65.0389 27.0395 65.211 26.8625 65.3288 26.64C65.4466 26.4181 65.5058 26.1782 65.5058 25.9108C65.5058 25.6341 65.4422 25.3848 65.3244 25.1585C65.2066 24.936 65.0346 24.7547 64.8164 24.6188C64.5989 24.4873 64.3365 24.4194 64.0374 24.415Z" fill="#1B517E"/>
</g>
<defs>
<linearGradient id="paint0_linear_3802_7619" x1="22.8331" y1="0.378168" x2="52.2882" y2="-0.650427" gradientUnits="userSpaceOnUse">
<stop stop-color="#3AA7DF"/>
<stop offset="0.12" stop-color="#227AAB"/>
<stop offset="0.42" stop-color="#1B517E"/>
<stop offset="0.57" stop-color="#8B8666"/>
<stop offset="1" stop-color="#EFC900"/>
</linearGradient>
<clipPath id="clip0_3802_7619">
<rect width="79.5014" height="43.6394" fill="white"/>
</clipPath>
</defs>
</svg>
