<svg width="80" height="28" viewBox="0 0 80 28" fill="none" xmlns="http://www.w3.org/2000/svg">
<g clip-path="url(#clip0_3802_10777)">
<path fill-rule="evenodd" clip-rule="evenodd" d="M34.2475 15.5198L34.2045 15.5525L33.2746 16.3898C32.3808 17.0859 31.8056 17.6565 30.7706 18.3797C29.6644 19.1537 28.7955 19.8271 27.5559 20.5175L25.739 21.426C24.3582 22.0701 21.7819 23.0113 19.9311 22.1514C18.3864 21.435 18.2565 19.9028 18.2475 18.4305C18.2441 17.7955 18.4056 17.348 18.4508 16.8147C18.0599 17.0802 17.3853 20.3898 17.348 20.7616C17.1141 23.0847 17.5718 24.9661 19.3017 26.1638C20.7616 27.1763 22.7469 27.2057 24.4599 27.0147C24.8407 26.9729 25.1763 26.9175 25.5492 26.8429C27.461 26.4599 29.3085 25.7107 30.974 24.8441C31.1232 24.7661 31.1932 24.7085 31.3593 24.6237C31.9153 24.3424 32.0542 24.2271 32.5729 23.9186C33.0588 23.6294 34.2859 22.7887 34.7492 22.4079L37.0565 20.3729C37.3175 20.0565 37.7096 19.7232 38.0271 19.3718L38.3853 18.9706L39.4859 17.6011C39.6802 17.3525 39.8384 17.113 40.0124 16.8655C40.7638 15.8 40.9062 15.5989 41.548 14.513L42.4599 12.8508C42.6136 12.5458 42.7096 12.2904 42.8565 11.9842C42.9932 11.6983 43.1333 11.3785 43.2362 11.1017C44.3887 7.99774 45.1989 3.75367 42.4994 1.14802C41.8972 0.566102 40.6927 0.0689265 39.8079 0.00225989L39.7808 0H38.3322C36.9469 0.100565 35.6395 0.481356 34.3706 1.02373C33.7718 1.2791 33.1943 1.54237 32.6373 1.86667C32.2847 2.07119 31.1966 2.59209 31.0237 2.82825C31.2045 2.77288 31.2045 2.78079 31.3627 2.71299C33.2757 1.88701 36.6938 0.893785 38.5322 1.98531C38.9435 2.22938 39.2395 2.48927 39.4734 2.91186C40.3943 4.57401 39.7638 7.20226 38.9684 8.90396C38.8644 9.12768 38.7932 9.33107 38.6983 9.5435C38.3006 10.4452 37.2147 12.148 36.5492 12.9989C36.4712 13.0983 36.4339 13.1593 36.3559 13.2599L35.2531 14.5299C34.9785 14.8023 34.5932 15.2418 34.3141 15.452L34.2475 15.5198Z" fill="#6579B3"/>
<path d="M0 7.39322H3.29492C3.94915 7.39322 4.43503 7.41921 4.7548 7.47345C5.07684 7.52881 5.36271 7.64181 5.61582 7.81243C5.86893 7.98531 6.08023 8.21356 6.24972 8.49944C6.41808 8.78531 6.50282 9.10734 6.50282 9.46215C6.50282 9.84633 6.39887 10.2011 6.19209 10.5209C5.98418 10.8429 5.70283 11.0836 5.34802 11.2441C5.84859 11.3921 6.23164 11.6418 6.50282 11.9944C6.77062 12.3469 6.90508 12.7616 6.90508 13.2395C6.90508 13.6147 6.81921 13.9797 6.64407 14.3345C6.47006 14.6893 6.23164 14.9729 5.92881 15.1864C5.62825 15.3966 5.25537 15.5277 4.81243 15.5774C4.53672 15.6056 3.86667 15.6249 2.80565 15.6328H0V7.39322ZM1.66893 8.76271V10.661H2.75819C3.40452 10.661 3.80791 10.652 3.96497 10.6328C4.24859 10.6 4.47345 10.5017 4.63616 10.339C4.79887 10.1763 4.8791 9.96271 4.8791 9.69831C4.8791 9.44294 4.80904 9.23842 4.66893 9.0791C4.52881 8.91977 4.31977 8.82373 4.04294 8.79096C3.87797 8.77175 3.40452 8.76271 2.62373 8.76271H1.66893ZM1.66893 12.0305V14.2407H3.2113C3.80904 14.2407 4.19096 14.2237 4.35254 14.191C4.6 14.1446 4.80113 14.035 4.95593 13.861C5.11186 13.6836 5.19096 13.452 5.19096 13.1582C5.19096 12.9096 5.13107 12.7006 5.01017 12.5277C4.89153 12.3548 4.71638 12.2282 4.4904 12.1492C4.26441 12.0712 3.77062 12.0305 3.01356 12.0305H1.66893Z" fill="#332C2B"/>
<path d="M9.47345 11.5017L8.04633 11.2486C8.20791 10.6655 8.48588 10.2339 8.8791 9.95367C9.27232 9.67345 9.85763 9.53333 10.6316 9.53333C11.3356 9.53333 11.8621 9.61582 12.2068 9.78305C12.5503 9.94915 12.7944 10.1605 12.9333 10.4181C13.0734 10.6746 13.1446 11.1446 13.1446 11.8316L13.122 13.6723C13.122 14.1966 13.1469 14.5842 13.1966 14.8328C13.2463 15.0825 13.3401 15.3492 13.4791 15.6328H11.913C11.8734 15.5299 11.8215 15.3763 11.7616 15.1729C11.7367 15.0791 11.7175 15.0169 11.7062 14.9887C11.4373 15.2531 11.1503 15.4508 10.8429 15.5831C10.5367 15.7153 10.2102 15.7831 9.86328 15.7831C9.25085 15.7831 8.76723 15.6158 8.41469 15.2825C8.06215 14.9503 7.88588 14.5277 7.88588 14.0181C7.88588 13.6825 7.9661 13.3808 8.12655 13.1164C8.28814 12.8531 8.513 12.6508 8.80452 12.5107C9.09379 12.3706 9.51187 12.2475 10.0588 12.1424C10.7955 12.0045 11.3073 11.8734 11.591 11.7548V11.5955C11.591 11.2881 11.5164 11.0701 11.3672 10.9379C11.2147 10.8068 10.9311 10.7412 10.5153 10.7412C10.2328 10.7412 10.0147 10.7977 9.85763 10.9107C9.69831 11.0215 9.57175 11.2192 9.47345 11.5017ZM11.591 12.7785C11.3898 12.8463 11.0689 12.9266 10.6305 13.0203C10.1932 13.1141 9.90509 13.2068 9.77062 13.2949C9.5661 13.4429 9.46215 13.6271 9.46215 13.8508C9.46215 14.0734 9.54463 14.2633 9.70961 14.4249C9.87458 14.5853 10.0836 14.6667 10.339 14.6667C10.6226 14.6667 10.8949 14.5718 11.1537 14.3864C11.3435 14.2418 11.4701 14.0701 11.5299 13.8621C11.5695 13.7288 11.591 13.4712 11.591 13.0938V12.7785Z" fill="#332C2B"/>
<path d="M20.1322 15.6328H18.5559V12.5887C18.5559 11.9446 18.5209 11.5288 18.4542 11.3401C18.3853 11.1503 18.2757 11.0045 18.122 10.8994C17.9684 10.7932 17.7842 10.7412 17.5695 10.7412C17.2938 10.7412 17.0463 10.817 16.8282 10.9661C16.6068 11.1153 16.4576 11.3153 16.3774 11.5605C16.2949 11.8079 16.2542 12.2644 16.2542 12.9322V15.6328H14.678V9.65989H16.139V10.5367C16.6621 9.86667 17.3209 9.53333 18.1164 9.53333C18.4655 9.53333 18.7864 9.59661 19.0757 9.7209C19.3672 9.84746 19.5853 10.0068 19.7333 10.2011C19.8836 10.3966 19.9864 10.6169 20.0441 10.8644C20.104 11.1119 20.1322 11.4644 20.1322 11.9254V15.6328Z" fill="#332C2B"/>
<path d="M21.6723 15.6328V7.39322H23.2497V11.7638L25.096 9.65989H27.0418L25.0045 11.8429L27.191 15.6328H25.4881L23.9808 12.9379L23.2497 13.7209V15.6328H21.6723Z" fill="#332C2B"/>
<path d="M45.8124 15.6328V7.39322H47.4282L50.8192 12.9153V7.39322H52.3616V15.6328H50.6949L47.3548 10.2158V15.6328H45.8124Z" fill="#332C2B"/>
<path d="M55.2859 11.5017L53.8599 11.2486C54.0203 10.6655 54.2983 10.2339 54.6915 9.95367C55.0847 9.67345 55.6701 9.53333 56.4452 9.53333C57.1492 9.53333 57.6746 9.61582 58.0192 9.78305C58.3627 9.94915 58.6068 10.1605 58.7469 10.4181C58.887 10.6746 58.9582 11.1446 58.9582 11.8316L58.9345 13.6723C58.9345 14.1966 58.9593 14.5842 59.009 14.8328C59.0599 15.0825 59.1537 15.3492 59.2915 15.6328H57.7266C57.6859 15.5299 57.6339 15.3763 57.5751 15.1729C57.5503 15.0791 57.5311 15.0169 57.5186 14.9887C57.2508 15.2531 56.9627 15.4508 56.6565 15.5831C56.3492 15.7153 56.0226 15.7831 55.6757 15.7831C55.0644 15.7831 54.5808 15.6158 54.2271 15.2825C53.8746 14.9503 53.6983 14.5277 53.6983 14.0181C53.6983 13.6825 53.7785 13.3808 53.9401 13.1164C54.1006 12.8531 54.3254 12.6508 54.6169 12.5107C54.9062 12.3706 55.3243 12.2475 55.8712 12.1424C56.6079 12.0045 57.1198 11.8734 57.4045 11.7548V11.5955C57.4045 11.2881 57.3288 11.0701 57.1797 10.9379C57.0282 10.8068 56.7446 10.7412 56.3277 10.7412C56.0463 10.7412 55.8271 10.7977 55.6701 10.9107C55.5107 11.0215 55.3842 11.2192 55.2859 11.5017ZM57.4045 12.7785C57.2023 12.8463 56.8825 12.9266 56.4429 13.0203C56.0056 13.1141 55.7175 13.2068 55.5842 13.2949C55.3785 13.4429 55.2746 13.6271 55.2746 13.8508C55.2746 14.0734 55.3571 14.2633 55.522 14.4249C55.687 14.5853 55.896 14.6667 56.1514 14.6667C56.435 14.6667 56.7073 14.5718 56.9672 14.3864C57.1571 14.2418 57.2836 14.0701 57.3424 13.8621C57.3831 13.7288 57.4045 13.4712 57.4045 13.0938V12.7785Z" fill="#332C2B"/>
<path d="M60.3638 16.0124L62.1706 16.2316C62.2011 16.4441 62.2701 16.5898 62.3774 16.6712C62.5288 16.7842 62.765 16.8418 63.087 16.8418C63.4994 16.8418 63.809 16.7797 64.0158 16.6554C64.1537 16.5729 64.2599 16.4407 64.3299 16.2565C64.3785 16.1254 64.4034 15.8825 64.4034 15.5311L64.4113 14.6588C63.9356 15.3085 63.3367 15.6328 62.6158 15.6328C61.8136 15.6328 61.1774 15.2938 60.7085 14.6158C60.3412 14.0814 60.1571 13.4136 60.1571 12.6181C60.1571 11.6169 60.3977 10.8531 60.8802 10.3254C61.3616 9.79774 61.9616 9.53333 62.6791 9.53333C63.4169 9.53333 64.0271 9.85763 64.5073 10.5062V9.65989H65.9797V15.0158C65.9797 15.7198 65.922 16.2463 65.8056 16.5944C65.6904 16.9435 65.5277 17.2158 65.3164 17.4147C65.1073 17.6124 64.8271 17.7695 64.4757 17.8814C64.1254 17.9943 63.6825 18.0497 63.1469 18.0497C62.1345 18.0497 61.4169 17.8757 60.9932 17.5277C60.5695 17.1785 60.3582 16.7401 60.3582 16.2045C60.3582 16.1525 60.3593 16.0881 60.3638 16.0124ZM61.7797 12.5254C61.7797 13.1582 61.9017 13.6203 62.1458 13.9141C62.391 14.2079 62.6938 14.3559 63.0531 14.3559C63.4362 14.3559 63.7627 14.2045 64.0271 13.9028C64.2938 13.6011 64.426 13.1571 64.426 12.5661C64.426 11.948 64.2994 11.4904 64.0441 11.191C63.791 10.8915 63.4689 10.7412 63.0802 10.7412C62.7017 10.7412 62.391 10.8893 62.1458 11.1831C61.9017 11.4768 61.7797 11.9232 61.7797 12.5254Z" fill="#332C2B"/>
<path d="M68.7175 11.5017L67.2904 11.2486C67.4508 10.6655 67.7288 10.2339 68.122 9.95367C68.5153 9.67345 69.1006 9.53333 69.8757 9.53333C70.5797 9.53333 71.1051 9.61582 71.4509 9.78305C71.7944 9.94915 72.0373 10.1605 72.1774 10.4181C72.3175 10.6746 72.3887 11.1446 72.3887 11.8316L72.365 13.6723C72.365 14.1966 72.3898 14.5842 72.4396 14.8328C72.4904 15.0825 72.5842 15.3492 72.722 15.6328H71.1571C71.1164 15.5299 71.0644 15.3763 71.0057 15.1729C70.9808 15.0791 70.9616 15.0169 70.9503 14.9887C70.6814 15.2531 70.3932 15.4508 70.087 15.5831C69.7797 15.7153 69.4542 15.7831 69.1062 15.7831C68.4949 15.7831 68.0113 15.6158 67.6588 15.2825C67.3051 14.9503 67.1288 14.5277 67.1288 14.0181C67.1288 13.6825 67.209 13.3808 67.3706 13.1164C67.5322 12.8531 67.7559 12.6508 68.0475 12.5107C68.3367 12.3706 68.7559 12.2475 69.3017 12.1424C70.0384 12.0045 70.5503 11.8734 70.835 11.7548V11.5955C70.835 11.2881 70.7605 11.0701 70.6102 10.9379C70.4588 10.8068 70.1751 10.7412 69.7582 10.7412C69.4768 10.7412 69.2576 10.7977 69.1006 10.9107C68.9412 11.0215 68.8147 11.2192 68.7175 11.5017ZM70.835 12.7785C70.6339 12.8463 70.313 12.9266 69.8734 13.0203C69.4362 13.1141 69.1492 13.2068 69.0147 13.2949C68.809 13.4429 68.7051 13.6271 68.7051 13.8508C68.7051 14.0734 68.7876 14.2633 68.9525 14.4249C69.1175 14.5853 69.3265 14.6667 69.5819 14.6667C69.8655 14.6667 70.139 14.5718 70.3977 14.3864C70.5876 14.2418 70.7141 14.0701 70.7729 13.8621C70.8136 13.7288 70.835 13.4712 70.835 13.0938V12.7785Z" fill="#332C2B"/>
<path d="M75.452 15.6328H73.8746V9.65989H75.3367V10.5073C75.5876 10.1073 75.8147 9.84407 76.0158 9.71977C76.2169 9.59435 76.4452 9.53333 76.7006 9.53333C77.061 9.53333 77.4079 9.63277 77.7424 9.83051L77.2531 11.2079C76.9864 11.035 76.739 10.9492 76.5107 10.9492C76.2881 10.9492 76.0994 11.0102 75.9469 11.1311C75.7932 11.2542 75.6723 11.4723 75.5842 11.791C75.496 12.1096 75.452 12.7774 75.452 13.791V15.6328Z" fill="#332C2B"/>
<path d="M78.4226 8.85424V7.39322H80V8.85424H78.4226ZM78.4226 15.6328V9.65989H80V15.6328H78.4226Z" fill="#332C2B"/>
<path fill-rule="evenodd" clip-rule="evenodd" d="M34.1672 11.4757L34.2621 15.4689L30.0181 15.3661L34.1672 11.4757Z" fill="#E62129"/>
<path fill-rule="evenodd" clip-rule="evenodd" d="M34.2621 15.4689L38.3051 15.4689V19.3345H34.2621V15.4689Z" fill="#FFF000"/>
<path fill-rule="evenodd" clip-rule="evenodd" d="M42.487 19.5243L38.3164 19.3525L38.3503 23.5966L42.487 19.5243Z" fill="#332C2B"/>
</g>
<defs>
<clipPath id="clip0_3802_10777">
<rect width="80" height="27.1066" fill="white"/>
</clipPath>
</defs>
</svg>
