<svg width="80" height="80" viewBox="0 0 80 80" fill="none" xmlns="http://www.w3.org/2000/svg">
<g clip-path="url(#clip0_3802_9577)">
<g clip-path="url(#clip1_3802_9577)">
<path d="M65.744 0H14.256C6.38263 0 0 6.38263 0 14.256V65.744C0 73.6174 6.38263 80 14.256 80H65.744C73.6174 80 80 73.6174 80 65.744V14.256C80 6.38263 73.6174 0 65.744 0Z" fill="#C1C1C3"/>
<path d="M16.4801 3.45605H63.5201C70.7073 3.45605 76.5441 9.29286 76.5441 16.4801V63.5201C76.5441 70.7073 70.7073 76.5441 63.5201 76.5441H16.4801C9.29286 76.5441 3.45605 70.7073 3.45605 63.5201V16.4801C3.45605 9.29286 9.29286 3.45605 16.4801 3.45605Z" fill="#103B99"/>
<path d="M56.2243 24.5853L47.3955 41.7885H56.0099L57.7475 37.6477H63.0403L63.0691 41.7885H70.7811L69.7411 17.6509H58.1091L54.2147 24.5885H56.2243V24.5853ZM62.7843 25.5645L62.8515 32.1309H59.9587L62.7811 25.5645H62.7843Z" fill="white"/>
<path d="M20.9922 41.7886C26.173 41.7886 30.0034 38.0926 30.0034 34.1374C30.0034 32.5022 29.7826 30.1854 27.2034 29.2446C29.7058 27.9838 31.9874 25.5486 31.9874 22.7966C31.9874 19.811 29.6706 17.7438 25.8434 17.7214C22.733 17.699 15.6674 17.7214 15.6674 17.7214L11.933 24.9406L13.7474 24.9502L9.37305 41.7886H20.989H20.9922ZM21.0274 24.0542L23.2386 24.0638C23.8658 24.0638 25.1778 24.1086 24.7938 25.763C24.445 27.2894 23.0466 27.4878 22.2562 27.4878H20.205L21.0242 24.0542H21.0274ZM19.117 31.731H21.8498C22.8866 31.731 23.7218 32.595 23.3794 33.8878C23.0306 35.1742 21.7698 35.6894 20.7266 35.6894H18.0802L19.1138 31.7342L19.117 31.731Z" fill="white"/>
<path d="M42.0321 42.6462C43.5073 42.6014 45.1841 42.3006 45.9553 42.0542L49.8081 34.163C48.6913 35.0206 46.3553 36.2334 44.0321 36.1822C39.9937 36.0926 38.4801 33.5646 38.4993 31.3438C38.5313 28.2014 41.1073 24.947 45.3761 24.8702C47.5457 24.8318 49.4145 25.8206 50.8097 26.9438L54.5921 20.195L49.4401 17.4526L48.7553 18.3518C48.1921 18.0318 47.2033 17.8878 46.5889 17.8878C36.5793 17.8878 30.7361 26.0766 30.7329 32.8094C30.7329 37.9038 33.8401 42.8862 42.0257 42.6462H42.0321Z" fill="white"/>
<path d="M23.4145 51.7757C21.9617 51.7757 20.6401 52.4797 19.4529 53.8813C19.3633 53.2221 19.1137 52.7069 18.7073 52.3325C18.2977 51.9613 17.7665 51.7725 17.1137 51.7725C15.6929 51.7725 14.4449 52.4189 13.3601 53.7085L13.6705 52.0093H12.0129C11.8657 52.7613 11.6385 53.7149 11.3281 54.8701L9.30566 62.4157H11.1681L12.8321 56.2013C13.0305 55.4557 13.4497 54.8029 14.0897 54.2461C14.7265 53.6861 15.3633 53.4077 15.9969 53.4077C16.6305 53.4077 17.0977 53.6637 17.3377 54.1757C17.5745 54.6877 17.5777 55.3853 17.3377 56.2653L15.6897 62.4157H17.5521L19.2641 56.0317C19.4689 55.2637 19.8753 54.6365 20.4801 54.1437C21.0849 53.6541 21.6929 53.4077 22.3009 53.4077C23.0049 53.4077 23.4721 53.6829 23.7025 54.2365C23.9329 54.7869 23.9105 55.5805 23.6353 56.6109L22.0801 62.4157H23.9425L25.5617 56.3741C25.9649 54.8701 25.9553 53.7277 25.5297 52.9437C25.1041 52.1629 24.4001 51.7725 23.4177 51.7725L23.4145 51.7757Z" fill="white"/>
<path d="M34.0387 51.7759C32.5571 51.7759 31.1971 52.2751 29.9587 53.2767C28.7171 54.2751 27.8723 55.6191 27.4211 57.3023C26.9955 58.8863 27.1235 60.1759 27.7987 61.1679C28.4739 62.1599 29.5363 62.6559 30.9827 62.6559C31.9107 62.6559 32.8355 62.4287 33.7539 61.9775C34.6723 61.5263 35.4659 60.8799 36.1347 60.0415C36.8035 59.2031 37.2867 58.2239 37.5875 57.1071C38.0067 55.5391 37.8915 54.2559 37.2355 53.2639C36.5795 52.2719 35.5171 51.7759 34.0419 51.7759H34.0387ZM35.5811 57.1711C35.2675 58.3455 34.7107 59.3055 33.9139 60.0511C33.1171 60.7967 32.2723 61.1679 31.3795 61.1679C30.4867 61.1679 29.8787 60.7967 29.4979 60.0543C29.1171 59.3119 29.0787 58.3711 29.3827 57.2319C29.6867 56.0927 30.2211 55.1455 30.9795 54.3903C31.7379 53.6351 32.5987 53.2575 33.5619 53.2575C34.5251 53.2575 35.1555 53.6383 35.5011 54.4031C35.8467 55.1679 35.8723 56.0895 35.5843 57.1711H35.5811Z" fill="white"/>
<path d="M46.6466 51.776C45.037 51.776 43.6962 52.4224 42.6274 53.712L44.397 47.1104H42.4514L39.0818 59.6864C38.7714 60.848 38.4994 61.7568 38.269 62.416H39.9266L40.4706 60.6975C40.9058 62.0031 41.8978 62.6527 43.4466 62.6527C44.7362 62.6527 45.965 62.1471 47.133 61.1327C48.301 60.1183 49.1138 58.7616 49.5682 57.0624C49.9842 55.5072 49.9202 54.2368 49.3698 53.2512C48.8226 52.2656 47.9138 51.7727 46.6434 51.7727L46.6466 51.776ZM47.6226 57.152C47.3026 58.3488 46.7682 59.2992 46.0226 60.0064C45.277 60.7136 44.429 61.0656 43.4818 61.0656C42.669 61.0656 42.0674 60.7744 41.6738 60.1952C41.2802 59.616 41.1874 58.9375 41.3954 58.1631L41.8498 56.4639C42.0706 55.6384 42.5442 54.9151 43.2738 54.2879C44.0002 53.6607 44.7746 53.3472 45.5938 53.3472C46.5218 53.3472 47.165 53.7024 47.5266 54.416C47.8882 55.1296 47.9202 56.0416 47.6226 57.152Z" fill="white"/>
<path d="M50.3232 62.4191H52.2272L55.0144 52.0127H53.1136L50.3232 62.4191Z" fill="white"/>
<path d="M54.2719 47.9646C53.9775 48.2046 53.7855 48.499 53.6927 48.851C53.5967 49.2094 53.6287 49.5102 53.7887 49.7534C53.9487 49.9966 54.2047 50.1182 54.5599 50.1182C54.9151 50.1182 55.2575 49.9966 55.5487 49.7534C55.8399 49.5102 56.0319 49.2094 56.1279 48.851C56.2207 48.499 56.1855 48.2046 56.0223 47.9646C55.8591 47.7246 55.6031 47.603 55.2543 47.603C54.9055 47.603 54.5663 47.7246 54.2719 47.9646Z" fill="white"/>
<path d="M59.2545 47.1104L55.1553 62.4192H57.0593L61.1585 47.1104H59.2545Z" fill="white"/>
<path d="M66.9311 51.7759C65.4495 51.7759 64.1279 52.3135 62.9631 53.3887C61.7983 54.4639 61.0015 55.7951 60.5759 57.3887C60.1503 58.9791 60.2655 60.2559 60.9215 61.2159C61.5775 62.1759 62.6783 62.6559 64.2207 62.6559C65.5519 62.6559 66.7647 62.4255 67.8655 61.9679L67.9135 60.5695C66.9919 60.9279 65.9807 61.1071 64.8831 61.1071C63.8719 61.1071 63.1327 60.8095 62.6559 60.2079C62.1823 59.6095 62.0831 58.7487 62.3551 57.6223H69.5391C69.6351 57.4143 69.7375 57.1135 69.8431 56.7199C70.2143 55.3375 70.1631 54.1663 69.6895 53.2095C69.2159 52.2527 68.2975 51.7759 66.9311 51.7759ZM68.1439 56.1823H62.7615C63.1167 55.2863 63.6223 54.5631 64.2719 54.0159C64.9247 53.4687 65.6351 53.1935 66.4063 53.1935C67.2191 53.1935 67.7695 53.4687 68.0639 54.0159C68.3583 54.5631 68.3839 55.2863 68.1439 56.1823Z" fill="white"/>
<path opacity="0.16" d="M65.744 0H14.256C6.3808 0 0 6.3808 0 14.256V33.7472C11.0016 37.6864 24.2912 39.9936 38.608 39.9936C54.1536 39.9936 68.4896 37.2736 80 32.6944V14.256C80 6.384 73.6192 0 65.744 0Z" fill="white"/>
</g>
</g>
<defs>
<clipPath id="clip0_3802_9577">
<rect width="80" height="80" fill="white"/>
</clipPath>
<clipPath id="clip1_3802_9577">
<rect width="80" height="80" fill="white"/>
</clipPath>
</defs>
</svg>
