<svg width="80" height="80" viewBox="0 0 80 80" fill="none" xmlns="http://www.w3.org/2000/svg">
<g clip-path="url(#clip0_3802_16495)">
<path d="M6.50758 38.7726C7.64086 30.8953 15.5205 28.7789 16.2833 21.5918C12.7261 23.1707 8.47144 22.6743 5.35494 20.0978C1.90184 26.3211 1.71539 32.4354 6.50758 38.7726Z" fill="#2B3078"/>
<path d="M21.7365 15.9499C25.7683 15.3542 29.2166 12.5283 32.5171 9.73871C37.0865 5.87638 43.4431 1.11081 49.5017 1.57333C38.6726 -1.76838 26.9597 0.607137 19.809 5.00705C22.5574 8.05575 23.1991 12.3297 21.7365 15.9499Z" fill="#2B3078"/>
<path d="M73.4919 41.2263C72.3587 49.1012 64.4766 51.22 63.7163 58.4071C67.271 56.8258 71.5281 57.3222 74.6446 59.9012C78.0977 53.673 78.2841 47.5635 73.4919 41.2263Z" fill="#2B3078"/>
<path d="M58.2633 64.0483C54.2315 64.644 50.7832 67.4699 47.4802 70.2595C42.9132 74.1194 36.5567 78.8874 30.4981 78.4273C41.3271 81.769 53.0401 79.391 60.1908 74.9911C57.4424 71.9424 56.8007 67.666 58.2633 64.0483Z" fill="#2B3078"/>
<path d="M41.2281 6.50647C49.1029 7.63975 51.2217 15.5218 58.4064 16.2822C56.8252 12.7274 57.324 8.47033 59.9005 5.35625C53.6747 1.90073 47.5628 1.71669 41.2281 6.50647Z" fill="#009F3C"/>
<path d="M64.0483 21.7351C64.6464 25.7669 67.4699 29.2152 70.2595 32.5181C74.1218 37.0876 78.8874 43.4441 78.4273 49.5003C81.769 38.6712 79.391 26.9607 74.9911 19.8075C71.9424 22.556 67.6709 23.2001 64.0483 21.7351Z" fill="#009F3C"/>
<path d="M38.7722 73.4922C30.8974 72.3589 28.7786 64.4769 21.5915 63.7141C23.1728 67.2713 22.6763 71.5284 20.0998 74.6449C26.3256 78.1004 32.4375 78.2844 38.7722 73.4922Z" fill="#009F3C"/>
<path d="M15.9517 58.2634C15.3536 54.2291 12.5301 50.7808 9.7381 47.4803C5.87819 42.9133 1.11263 36.5568 1.57272 30.4981C-1.76899 41.3272 0.608952 53.0401 5.00886 60.1909C8.05756 57.4425 12.3316 56.7983 15.9517 58.2634Z" fill="#009F3C"/>
<path d="M74.171 5.82591C77.5152 9.17003 77.5152 14.5918 74.171 17.936C70.8293 21.2801 65.4075 21.2801 62.0634 17.936C58.7193 14.5918 58.7193 9.17003 62.0634 5.82591C65.4075 2.48178 70.8293 2.48178 74.171 5.82591Z" fill="#009F3C"/>
<path d="M17.9365 62.0644C21.2782 65.4085 21.2782 70.8279 17.9365 74.172C14.5923 77.5137 9.17054 77.5137 5.82642 74.172C2.48471 70.8279 2.48471 65.4085 5.82642 62.0644C9.17054 58.7202 14.5923 58.7202 17.9365 62.0644Z" fill="#009F3C"/>
<path d="M74.171 74.172C70.8293 77.5137 65.4075 77.5137 62.0634 74.172C58.7193 70.8279 58.7193 65.4085 62.0634 62.0644C65.4075 58.7202 70.8293 58.7202 74.171 62.0644C77.5152 65.4085 77.5152 70.8279 74.171 74.172Z" fill="#2B3078"/>
<path d="M17.9365 17.9365C14.5923 21.2782 9.17054 21.2782 5.82642 17.9365C2.48471 14.5924 2.48471 9.16819 5.82642 5.82648C9.17054 2.48235 14.5923 2.48235 17.9365 5.82648C21.2782 9.16819 21.2782 14.5924 17.9365 17.9365Z" fill="#2B3078"/>
<path d="M36.354 47.2162V50.2285H43.6452V43.6444L49.9146 49.7031C50.4425 50.2068 50.3989 50.4877 50.4061 50.955V53.0254C50.4061 53.0545 50.4037 53.086 50.4037 53.1174V53.1441C50.4013 53.1659 50.4013 53.1901 50.4013 53.2143L50.3989 53.2385C50.3964 53.2676 50.3964 53.299 50.394 53.3281L50.3916 53.3354C50.3916 53.3644 50.3892 53.3911 50.3843 53.4177L50.3819 53.4468C50.3795 53.4686 50.3771 53.4903 50.3746 53.5146L50.3722 53.5339C50.3674 53.5654 50.365 53.5945 50.3601 53.6211L50.3577 53.6429C50.3529 53.6671 50.348 53.6889 50.3456 53.7131L50.3407 53.7373C50.3359 53.7616 50.3311 53.7834 50.3286 53.8076L50.3238 53.8294C50.3165 53.856 50.3117 53.8851 50.3044 53.9117L50.2996 53.9335C50.2947 53.9553 50.2899 53.9795 50.2826 54.0013L50.2754 54.0255C50.2705 54.0497 50.2633 54.0764 50.256 54.103L50.2536 54.1103C50.2463 54.1393 50.239 54.166 50.2294 54.1926L50.2221 54.2192C50.2148 54.2386 50.2076 54.2604 50.2027 54.2798L50.193 54.304C50.1833 54.3306 50.1737 54.3548 50.1664 54.379L50.1591 54.3984C50.1519 54.4178 50.1422 54.4444 50.1325 54.4662L50.1228 54.4929C50.1155 54.5147 50.1083 54.5316 50.0986 54.551L50.0913 54.5752C50.0792 54.5994 50.0671 54.626 50.055 54.6503L50.0502 54.6696C50.0381 54.689 50.0308 54.7108 50.0211 54.7302L50.0066 54.7568C49.9969 54.7738 49.9872 54.7931 49.9799 54.8125L49.9678 54.8343C49.9557 54.8585 49.9436 54.8827 49.9291 54.9069L49.917 54.9312C49.9073 54.9481 49.8976 54.9651 49.8879 54.982L49.871 55.0111C49.8613 55.028 49.8516 55.0425 49.8419 55.0595L49.8274 55.0861C49.8153 55.1055 49.8007 55.1297 49.7862 55.1515L49.7668 55.1806C49.7572 55.1951 49.7499 55.2072 49.7402 55.2217L49.7184 55.2532C49.7087 55.2677 49.699 55.2823 49.6869 55.2968L49.6651 55.3307C49.6506 55.3501 49.6385 55.367 49.624 55.384L49.6022 55.4155C49.5949 55.4251 49.5828 55.4397 49.5755 55.4518L49.5513 55.4808C49.5392 55.4954 49.5247 55.5123 49.5126 55.5293C49.5029 55.539 49.4932 55.5535 49.4835 55.5656C49.4714 55.5777 49.4617 55.5898 49.4496 55.6068L49.4254 55.6358C49.4133 55.6455 49.4036 55.6576 49.3915 55.6673C49.3842 55.6794 49.3746 55.6891 49.3673 55.6988C49.3528 55.7133 49.3382 55.7278 49.3237 55.7448C49.3116 55.7569 49.2995 55.769 49.2874 55.7811C49.2801 55.7908 49.2704 55.8029 49.2583 55.8102L49.2293 55.8416L49.1978 55.8731C49.1881 55.8804 49.1784 55.8901 49.1687 55.8998H49.1663C49.1494 55.9167 49.1324 55.9337 49.1155 55.9482C49.1058 55.9579 49.0937 55.97 49.084 55.9773C49.0719 55.9869 49.0622 55.9966 49.0525 56.0063L49.021 56.0329L48.9895 56.062C48.9702 56.079 48.9484 56.0935 48.929 56.1104L48.8999 56.1322C48.8878 56.1419 48.8781 56.1516 48.866 56.1613L48.8346 56.1855C48.8224 56.1928 48.8103 56.2 48.7982 56.2097C48.7885 56.217 48.7789 56.2242 48.7692 56.2315C48.745 56.2485 48.7232 56.2654 48.6965 56.2824L48.6723 56.2993C48.6602 56.309 48.6457 56.3187 48.6311 56.326L48.6045 56.3453C48.59 56.3526 48.5755 56.3623 48.5633 56.372L48.5343 56.3889C48.5125 56.4034 48.4883 56.418 48.4641 56.4301L48.4326 56.4519C48.4181 56.4616 48.4035 56.4664 48.3914 56.4761L48.3599 56.493C48.3454 56.5003 48.3309 56.5076 48.3188 56.5148L48.3018 56.5245C48.2703 56.5391 48.2437 56.556 48.2122 56.5681L48.1807 56.5875L48.1396 56.6068C48.1275 56.6117 48.1154 56.6165 48.1033 56.6238C47.5972 56.8563 47.0354 56.9846 46.4421 56.9846H36.354V59.997L29.9055 53.6066L36.354 47.2162ZM43.6452 36.3532H50.2294V43.6444H47.217L53.6074 50.0954L59.9978 43.6444H56.9854V33.5563C56.9854 32.9631 56.8571 32.4013 56.6222 31.8952C56.6173 31.8831 56.6101 31.871 56.6052 31.8589L56.5859 31.8177L56.5689 31.7862C56.5544 31.7572 56.5398 31.7281 56.5253 31.699L56.5156 31.6821C56.5084 31.6676 56.5011 31.653 56.4914 31.6385L56.4745 31.607C56.4672 31.5949 56.4599 31.5804 56.4527 31.5707L56.4333 31.5344C56.4188 31.5102 56.4042 31.4859 56.3897 31.4641L56.3728 31.4375C56.3631 31.4206 56.3534 31.4084 56.3437 31.3939L56.3268 31.3673C56.3171 31.3528 56.3098 31.3382 56.3001 31.3261L56.2832 31.3019C56.2662 31.2753 56.2493 31.2535 56.2323 31.2293C56.2251 31.222 56.2178 31.2099 56.2105 31.2026C56.2033 31.1905 56.1936 31.1784 56.1839 31.1663L56.1597 31.1324C56.15 31.1203 56.1427 31.1106 56.133 31.0985L56.1088 31.0719C56.0943 31.0501 56.0773 31.0283 56.0604 31.0113L56.0071 30.9484C55.9974 30.9363 55.9877 30.9266 55.9781 30.9169C55.9684 30.9048 55.9587 30.8927 55.949 30.8854V30.883C55.932 30.866 55.9175 30.8467 55.9006 30.8297C55.8909 30.8224 55.8812 30.8103 55.8715 30.8006L55.811 30.7401C55.8013 30.728 55.7916 30.7207 55.7795 30.7111C55.7674 30.6989 55.7577 30.6868 55.7456 30.6771C55.7311 30.6626 55.7141 30.6457 55.6996 30.6311C55.6875 30.6239 55.6778 30.6142 55.6705 30.6069C55.656 30.5948 55.6463 30.5851 55.6342 30.5754L55.6051 30.5512C55.5906 30.5391 55.5785 30.527 55.564 30.5173C55.5519 30.5052 55.5422 30.4955 55.5301 30.4858C55.5131 30.4713 55.4962 30.4616 55.4816 30.4471L55.4526 30.4253C55.4405 30.4132 55.4259 30.4035 55.4138 30.3963L55.3848 30.372C55.3678 30.3599 55.3485 30.3454 55.3315 30.3357L55.2976 30.3115C55.2831 30.3018 55.2685 30.2897 55.254 30.28L55.2201 30.2606C55.208 30.251 55.1959 30.2413 55.1814 30.234L55.1499 30.2122C55.1281 30.2001 55.1063 30.1832 55.0845 30.1711L55.0603 30.1565C55.0433 30.1468 55.0288 30.1396 55.0119 30.1275L54.9828 30.1105C54.9659 30.1032 54.9489 30.0911 54.932 30.0839L54.9053 30.0693C54.8835 30.0572 54.8593 30.0427 54.8351 30.033L54.8133 30.0209C54.7939 30.0088 54.7746 29.9991 54.7552 29.9919L54.731 29.9797C54.7092 29.9701 54.6898 29.9604 54.6704 29.9507L54.6535 29.9434C54.6268 29.9313 54.6002 29.9216 54.576 29.9095L54.5518 29.8974C54.5324 29.8902 54.513 29.8853 54.4937 29.8756L54.467 29.8635C54.4452 29.8563 54.421 29.8466 54.3992 29.8369L54.3798 29.832C54.3556 29.8224 54.3314 29.8151 54.3048 29.8054L54.2781 29.7957C54.2588 29.7909 54.2394 29.7836 54.22 29.7788L54.1958 29.7715C54.1668 29.7618 54.1377 29.7521 54.1111 29.7449H54.1038C54.0772 29.7352 54.0505 29.7279 54.0263 29.7231L54.0021 29.7158C53.9779 29.7085 53.9561 29.7061 53.9319 29.6989L53.9149 29.694C53.8859 29.6892 53.8568 29.6819 53.8277 29.6771L53.8084 29.6722C53.7842 29.6674 53.7624 29.6625 53.7406 29.6577L53.7115 29.6528C53.6897 29.6504 53.6679 29.6456 53.6437 29.6407L53.6243 29.6383C53.5929 29.6335 53.5638 29.6286 53.5347 29.6262L53.5154 29.6238C53.4936 29.6214 53.4669 29.6189 53.4451 29.6189L53.4185 29.6141C53.3919 29.6117 53.3652 29.6093 53.3362 29.6068H53.3289C53.2974 29.6044 53.2659 29.602 53.2369 29.5996L53.2127 29.5971C53.1909 29.5971 53.1667 29.5947 53.1449 29.5947H53.1158C53.0868 29.5947 53.0553 29.5947 53.0262 29.5947H50.9558C50.486 29.5996 50.2076 29.556 49.7039 30.0839L43.6452 36.3532ZM36.354 43.6444H29.7723V36.3532H32.7823L26.3919 29.9047L20.0015 36.3532H23.0138V46.4413C23.0138 47.037 23.1446 47.5988 23.3771 48.1049C23.3819 48.1146 23.3892 48.1267 23.394 48.1388L23.4134 48.1824L23.4303 48.2138C23.4449 48.2405 23.4594 48.272 23.4739 48.301L23.4836 48.3155C23.4909 48.3325 23.5006 48.347 23.5078 48.3591L23.5248 48.3906C23.532 48.4051 23.5393 48.4172 23.549 48.4318L23.5684 48.4657C23.5805 48.4899 23.595 48.5141 23.612 48.5359L23.6289 48.5625C23.6362 48.5746 23.6459 48.5892 23.6555 48.6037L23.6725 48.6328C23.6822 48.6449 23.6919 48.6594 23.7016 48.6715L23.7185 48.6981C23.733 48.7224 23.75 48.7442 23.7669 48.7684C23.7742 48.7781 23.7815 48.7877 23.7887 48.7974C23.7984 48.8095 23.8057 48.8216 23.8154 48.8338L23.8396 48.8652C23.8493 48.8749 23.8565 48.887 23.8662 48.8991L23.8904 48.9282C23.905 48.9476 23.9219 48.9694 23.9413 48.9911L23.9655 49.0202L23.9946 49.0517C24.0042 49.0638 24.0115 49.0711 24.0212 49.0856C24.0309 49.0929 24.0406 49.105 24.0503 49.1146C24.0648 49.134 24.0817 49.151 24.0987 49.1679C24.1084 49.1776 24.1181 49.1873 24.1277 49.197L24.1883 49.2575C24.198 49.2696 24.2101 49.2793 24.2198 49.289C24.2319 49.3011 24.2416 49.3132 24.2561 49.3229C24.2706 49.3374 24.2851 49.352 24.3021 49.3665C24.3118 49.3738 24.3215 49.3834 24.3311 49.3931C24.3433 49.4028 24.3529 49.4149 24.365 49.4246L24.3941 49.4488C24.4062 49.4585 24.4207 49.4706 24.4353 49.4803C24.4474 49.4924 24.4595 49.5021 24.4716 49.5118C24.4861 49.5239 24.5031 49.5384 24.52 49.5505L24.5491 49.5747C24.5612 49.582 24.5733 49.5941 24.5854 49.6038L24.6145 49.6256C24.6338 49.6377 24.6508 49.6522 24.6677 49.6643L24.7016 49.6861C24.7162 49.6982 24.7331 49.7079 24.7452 49.7176L24.7791 49.7394C24.7912 49.7491 24.8058 49.7564 24.8179 49.766L24.8494 49.7854C24.8711 49.7999 24.8929 49.8145 24.9147 49.8266L24.939 49.8411C24.9559 49.8508 24.9729 49.8605 24.9874 49.8702L25.0164 49.8871C25.0334 49.8968 25.0528 49.9065 25.0673 49.9162L25.0939 49.9283C25.1157 49.9404 25.1399 49.9549 25.1642 49.9646L25.1884 49.9791C25.2053 49.9888 25.2247 49.9985 25.2441 50.0082L25.2683 50.0203C25.2901 50.03 25.3094 50.0372 25.3312 50.0469L25.3482 50.0542C25.3748 50.0687 25.399 50.0784 25.4257 50.0905L25.4499 50.1002C25.4668 50.1075 25.4862 50.1147 25.5056 50.122L25.5322 50.1341C25.5564 50.1438 25.5782 50.1511 25.6024 50.1607L25.6194 50.1656C25.646 50.1753 25.6678 50.185 25.6945 50.1922L25.7211 50.2019C25.7405 50.2068 25.7598 50.214 25.7792 50.2213L25.8059 50.2285C25.8325 50.2382 25.8616 50.2455 25.8882 50.2552H25.8979C25.9221 50.2625 25.9487 50.2697 25.9729 50.277L25.9972 50.2842C26.0214 50.2891 26.0432 50.2939 26.0674 50.2988L26.0868 50.3036C26.1158 50.3109 26.1424 50.3181 26.1715 50.323L26.1933 50.3254C26.2151 50.3327 26.2369 50.3351 26.2611 50.3399L26.2877 50.3448C26.312 50.3496 26.3313 50.352 26.3555 50.3569L26.3773 50.3593C26.404 50.3642 26.4355 50.3666 26.4645 50.3714L26.4839 50.3738C26.5081 50.3763 26.5323 50.3787 26.5541 50.3835L26.5807 50.3859C26.6074 50.3859 26.634 50.3908 26.6631 50.3932H26.6703C26.7018 50.3956 26.7333 50.3981 26.7624 50.3981H26.7866C26.8108 50.4029 26.8326 50.4029 26.8568 50.4029H29.0459C29.5132 50.3981 29.7917 50.4441 30.2978 49.9162L36.354 43.6444ZM36.354 36.3508L30.0847 30.297C29.5568 29.7909 29.6004 29.5124 29.5955 29.0426V26.9722C29.5955 26.9432 29.5955 26.9141 29.5955 26.8826V26.856C29.598 26.8318 29.598 26.81 29.6004 26.7882V26.764C29.6028 26.7325 29.6052 26.6986 29.6052 26.6719L29.6077 26.6623C29.6101 26.6332 29.6125 26.609 29.6149 26.5799L29.6173 26.5557C29.6198 26.5315 29.6222 26.5073 29.6246 26.4855L29.6294 26.4637C29.6319 26.4346 29.6343 26.4056 29.6391 26.3765L29.6416 26.3547C29.6464 26.3329 29.6512 26.3087 29.6561 26.2869L29.6585 26.2579C29.6633 26.2361 29.6682 26.2143 29.673 26.1901L29.6779 26.1707C29.6827 26.1441 29.6876 26.1126 29.6948 26.0859L29.6997 26.0666C29.7045 26.0423 29.7118 26.0181 29.7166 25.9963L29.7215 25.9721C29.7287 25.9479 29.736 25.9213 29.7433 25.8971L29.7457 25.8898C29.7529 25.8607 29.7626 25.8317 29.7723 25.805L29.7772 25.7784C29.7844 25.759 29.7917 25.7397 29.7965 25.7203L29.8062 25.6937C29.8159 25.667 29.8232 25.6428 29.8329 25.621L29.8401 25.6016C29.8474 25.5774 29.8571 25.5556 29.8668 25.5338L29.8764 25.5048C29.8837 25.4854 29.891 25.466 29.9007 25.4467L29.9103 25.4249C29.9224 25.4006 29.9321 25.374 29.9442 25.3449L29.9515 25.3304C29.9612 25.3086 29.9709 25.2893 29.9806 25.2675L29.9927 25.2432C30.0024 25.2239 30.012 25.2069 30.0193 25.1875L30.0314 25.1633C30.0435 25.1391 30.0581 25.1149 30.0702 25.0907L30.0847 25.0689C30.092 25.0495 30.1016 25.0326 30.1113 25.0156L30.1283 24.9866C30.138 24.972 30.1476 24.9527 30.1573 24.9406L30.1719 24.9139C30.1864 24.8921 30.1985 24.8703 30.213 24.8485L30.2324 24.8195C30.2421 24.8049 30.2518 24.7904 30.2615 24.7759L30.2808 24.7444C30.2905 24.7323 30.3026 24.7178 30.3123 24.7008L30.3365 24.6669C30.3486 24.6475 30.3607 24.6306 30.3753 24.6161L30.3971 24.5846C30.4068 24.5725 30.4164 24.5604 30.4261 24.5483L30.4479 24.5192C30.46 24.5023 30.4746 24.4877 30.4867 24.4708C30.4964 24.4587 30.506 24.4466 30.5157 24.4345C30.5278 24.4199 30.5399 24.4078 30.552 24.3933L30.5738 24.3642C30.5859 24.3545 30.5956 24.34 30.6077 24.3303C30.615 24.3206 30.6247 24.3085 30.632 24.3013C30.6489 24.2843 30.661 24.2698 30.6755 24.2553C30.6877 24.2407 30.6998 24.231 30.7094 24.2189C30.7216 24.2068 30.7312 24.1971 30.7409 24.1875L30.7724 24.156L30.8015 24.1293C30.8136 24.1172 30.8208 24.1076 30.8329 24.0979C30.8499 24.0833 30.8668 24.0664 30.8838 24.0519V24.0494C30.8959 24.0397 30.9056 24.0301 30.9153 24.0204C30.9274 24.0107 30.9371 24.001 30.9468 23.9937L31.0097 23.9405C31.0315 23.9235 31.0509 23.9066 31.0727 23.8872L31.0993 23.8654C31.1114 23.8557 31.1235 23.8484 31.1332 23.8412L31.1671 23.8145C31.1792 23.8073 31.1889 23.7952 31.201 23.7879C31.2107 23.7806 31.2204 23.7734 31.2301 23.7685C31.2543 23.7492 31.2785 23.7346 31.3027 23.7177L31.3269 23.7007C31.339 23.691 31.3536 23.6814 31.3681 23.6717L31.3947 23.6547C31.4093 23.645 31.4238 23.6354 31.4359 23.6257L31.465 23.6111C31.4892 23.5966 31.511 23.5797 31.5352 23.5651L31.5667 23.5482C31.5812 23.5409 31.5957 23.5312 31.6078 23.524L31.6393 23.5046C31.6538 23.4973 31.6684 23.4901 31.6829 23.4828L31.6998 23.4731C31.7289 23.4586 31.7555 23.444 31.787 23.4271L31.8185 23.415L31.8597 23.3932C31.8718 23.3859 31.8839 23.3811 31.896 23.3762C32.4021 23.1414 32.9639 23.0106 33.5572 23.0106H43.6452V20.0006L50.0962 26.391L43.6452 32.7815V29.7715H36.354V36.3508Z" fill="#009F3C"/>
<path d="M36.379 50.1581V43.6199H29.8409V36.3772H36.379V29.8415H43.6218V36.3772H50.1575V43.6199H43.6218V50.1581H36.379Z" fill="white"/>
</g>
<defs>
<clipPath id="clip0_3802_16495">
<rect width="80" height="80" fill="white"/>
</clipPath>
</defs>
</svg>
