<svg width="80" height="41" viewBox="0 0 80 41" fill="none" xmlns="http://www.w3.org/2000/svg">
<g clip-path="url(#clip0_3802_8213)">
<path d="M74.9536 34.9839V39.1142H75.6202V34.9839H74.9536ZM32.9391 34.9839L34.5192 39.137L34.3998 39.4797C34.3337 39.6777 34.2555 39.8242 34.1687 39.917C34.0781 40.0119 33.9811 40.0667 33.8677 40.0817C33.7563 40.0981 33.6342 40.0903 33.4961 40.0531L33.428 40.0345L33.2567 40.612C33.2919 40.6287 33.3519 40.647 33.4384 40.6636C33.5254 40.6815 33.6278 40.6905 33.7456 40.6905C33.9395 40.6905 34.115 40.6558 34.2697 40.5897C34.4266 40.5217 34.5609 40.4141 34.6784 40.2758C34.7959 40.1336 34.8972 39.952 34.9775 39.7334L36.7952 34.9839H36.0709L35.1816 37.433C35.0936 37.6835 35.0158 37.9375 34.9484 38.1944C34.9212 38.298 34.8936 38.3995 34.8656 38.5008C34.8386 38.3998 34.8117 38.2986 34.7855 38.1944C34.7179 37.9372 34.6388 37.6831 34.5484 37.433L33.6694 34.9839H32.9391ZM72.4286 34.9328C72.1356 34.9328 71.8756 34.9839 71.6427 35.085C71.4136 35.1861 71.2297 35.3288 71.0977 35.5123C70.9636 35.6919 70.898 35.9002 70.898 36.1373C70.898 36.4283 70.9906 36.6655 71.1723 36.8533C71.3537 37.0369 71.6323 37.175 72.0078 37.2636L72.6927 37.4267C72.8989 37.4742 73.0495 37.5445 73.1505 37.6395C73.2514 37.7344 73.3011 37.8537 73.3011 37.9961C73.3011 38.1653 73.2167 38.3139 73.0412 38.4336C72.8722 38.5592 72.6431 38.6192 72.3564 38.6192C72.1109 38.6192 71.9003 38.5655 71.7394 38.4602C71.5764 38.355 71.4631 38.1881 71.4055 37.9611L70.7742 38.1158C70.8216 38.3511 70.9184 38.5511 71.0608 38.712C71.2053 38.875 71.3867 38.9969 71.6055 39.0814C71.8283 39.1639 72.0778 39.203 72.3605 39.203C72.6864 39.203 72.9687 39.1494 73.2144 39.042C73.4597 38.9327 73.65 38.7861 73.7862 38.5963C73.9244 38.4086 73.9902 38.1941 73.9902 37.9506C73.9902 37.6678 73.8995 37.4327 73.7242 37.245C73.5406 37.0614 73.2642 36.9231 72.8908 36.8364L72.2658 36.688C72.0264 36.6302 71.8489 36.5563 71.7377 36.4655C71.6262 36.3727 71.5702 36.2511 71.5702 36.0942C71.5702 35.923 71.653 35.7803 71.8159 35.6669C71.9809 35.5534 72.1872 35.4978 72.4327 35.4978C72.6987 35.4978 72.8967 35.5597 73.0289 35.6792C73.1609 35.7989 73.2559 35.9333 73.3116 36.0819L73.9141 35.9248C73.8522 35.733 73.7612 35.5598 73.6355 35.4113C73.5095 35.2606 73.3486 35.1447 73.1506 35.0602C72.9527 34.9756 72.7111 34.9328 72.4286 34.9328ZM68.2036 34.9328C67.8302 34.9328 67.5017 35.0231 67.2253 35.2047C66.9447 35.3863 66.7284 35.6403 66.5758 35.9622C66.4211 36.2861 66.3445 36.6595 66.3445 37.0825C66.3445 37.5075 66.425 37.8766 66.5798 38.1944C66.7366 38.5141 66.9614 38.7592 67.2481 38.9387C67.5391 39.1161 67.8814 39.203 68.2816 39.203C68.5664 39.203 68.82 39.1595 69.043 39.0708C69.2719 38.9802 69.4578 38.8606 69.6125 38.7017C69.7626 38.548 69.8737 38.3604 69.9364 38.1548L69.2948 37.9775C69.2413 38.1178 69.1687 38.2356 69.0739 38.3327C68.9742 38.426 68.8562 38.4977 68.7273 38.543C68.5953 38.5905 68.4489 38.6148 68.2859 38.6148C68.0364 38.6148 67.8136 38.5591 67.6237 38.4477C67.4298 38.3383 67.2834 38.1777 67.1783 37.9652C67.0819 37.772 67.0303 37.5436 67.0209 37.2761H70.0045V36.9978C70.0045 36.6161 69.953 36.2922 69.8498 36.0281C69.7466 35.7641 69.6062 35.5536 69.433 35.3927C69.2662 35.2365 69.0687 35.117 68.8531 35.0416C68.6441 34.9696 68.4246 34.933 68.2036 34.9328ZM68.2036 35.5247C68.4531 35.5247 68.6614 35.5822 68.8305 35.7039C68.9956 35.8236 69.1236 35.9862 69.2083 36.1967C69.2706 36.3533 69.3091 36.5245 69.3253 36.7125H67.0225C67.0337 36.525 67.077 36.3472 67.1594 36.1844C67.2542 35.9863 67.3884 35.8275 67.5658 35.7058C67.7412 35.5841 67.9559 35.5247 68.2036 35.5247ZM63.978 34.9328C63.6664 34.9328 63.3961 35.0131 63.1609 35.1741C62.9797 35.2959 62.8313 35.4883 62.7156 35.7469L62.7114 34.9839H62.0717V39.1164H62.7383V36.6391C62.7383 36.4019 62.7836 36.2036 62.8742 36.0364C62.965 35.8734 63.0908 35.7455 63.2477 35.6608C63.4064 35.5741 63.5817 35.5288 63.7798 35.5288C64.0686 35.5288 64.2956 35.6197 64.4627 35.8013C64.6278 35.9808 64.7123 36.2303 64.7123 36.5459V39.1166H65.3767V36.4905C65.3767 36.1419 65.317 35.8528 65.2014 35.6217C65.0817 35.3906 64.9206 35.2172 64.7123 35.1038C64.5019 34.9881 64.2584 34.9328 63.978 34.9328ZM59.2188 34.9328C58.8434 34.9328 58.513 35.0191 58.2303 35.1984C57.9498 35.3739 57.7314 35.6256 57.5725 35.9475C57.4136 36.2694 57.335 36.6448 57.335 37.0741C57.335 37.4991 57.4136 37.8725 57.5725 38.1922C57.7314 38.512 57.9498 38.7594 58.2303 38.9387C58.5131 39.1161 58.8434 39.203 59.2189 39.203C59.5923 39.203 59.9222 39.1161 60.2089 38.9387C60.4917 38.7592 60.7125 38.512 60.8694 38.1922C61.0261 37.8723 61.1062 37.4991 61.1062 37.0741C61.1062 36.6448 61.0261 36.2694 60.8694 35.9475C60.7127 35.6256 60.4916 35.3739 60.2089 35.1984C59.9222 35.0191 59.5922 34.9328 59.2188 34.9328ZM59.2189 35.527C59.4955 35.527 59.7244 35.5988 59.9039 35.7431C60.0834 35.8855 60.2153 36.0756 60.3039 36.3108C60.3906 36.55 60.4317 36.8017 60.4317 37.0741C60.4317 37.3464 60.3906 37.598 60.3039 37.8289C60.2152 38.0642 60.0834 38.2517 59.9039 38.3941C59.7244 38.5366 59.4955 38.6091 59.2191 38.6091C58.9405 38.6091 58.7136 38.5364 58.5361 38.3941C58.3608 38.2519 58.2286 38.0642 58.1398 37.8289C58.0552 37.598 58.0119 37.3464 58.0119 37.0741C58.0119 36.7997 58.0552 36.5439 58.1398 36.3108C58.2286 36.0756 58.3608 35.8855 58.5361 35.7431C58.7136 35.5988 58.9405 35.527 59.2189 35.527ZM50.3367 34.9328C50.0231 34.9328 49.7505 35.0131 49.5153 35.1741C49.3342 35.2958 49.1875 35.4881 49.0716 35.7463L49.0705 34.9837H48.4286V39.1166H49.093V36.6389C49.093 36.4017 49.1398 36.2034 49.2305 36.0363C49.3155 35.8778 49.4445 35.7473 49.602 35.6606C49.7609 35.5739 49.9383 35.5286 50.1364 35.5286C50.4231 35.5286 50.65 35.6194 50.8172 35.8011C50.9844 35.9806 51.0687 36.2302 51.0687 36.5458V39.1164H51.7333V36.4903C51.7333 36.1417 51.6736 35.8527 51.5558 35.6216C51.4403 35.3905 51.2772 35.217 51.0689 35.1036C50.8564 34.988 50.6131 34.9328 50.3367 34.9328ZM11.2375 34.9328C10.9261 34.9328 10.6519 35.0131 10.4187 35.1741C10.2383 35.2964 10.0897 35.4902 9.97422 35.7506L9.97078 34.9839H9.33125V39.1164H9.9975V36.6391C9.9975 36.4019 10.0409 36.2036 10.1338 36.0364C10.2266 35.8734 10.3483 35.7455 10.5072 35.6608C10.6659 35.5741 10.8413 35.5288 11.0394 35.5288C11.3281 35.5288 11.5552 35.6197 11.7222 35.8013C11.8873 35.9808 11.9717 36.2303 11.9717 36.5459V39.1166H12.6341V36.4905C12.6341 36.1419 12.5762 35.8528 12.4606 35.6217C12.345 35.3906 12.1802 35.2172 11.9717 35.1038C11.7614 34.9881 11.5181 34.9328 11.2375 34.9328ZM78.3208 34.9305C78.1062 34.9305 77.8938 34.9614 77.677 35.0192C77.4617 35.081 77.2601 35.1833 77.083 35.3205C76.8994 35.4627 76.7611 35.6587 76.6517 35.9125L77.2914 36.1209C77.3367 36.0261 77.4028 35.9312 77.4895 35.8384C77.5763 35.7456 77.6917 35.6691 77.8319 35.6092C77.9722 35.5452 78.1413 35.5167 78.3394 35.5167C78.5292 35.5167 78.6898 35.5473 78.8198 35.6114C78.9427 35.6721 79.0437 35.7694 79.1089 35.8898C79.1711 36.0075 79.2038 36.1541 79.2038 36.3253V36.348C79.2038 36.4491 79.1627 36.5194 79.0905 36.5627C79.0161 36.6039 78.8983 36.6345 78.7436 36.6494C78.5427 36.6734 78.342 36.698 78.1413 36.7233C77.9514 36.75 77.7575 36.7811 77.5719 36.8244C77.3893 36.8621 77.2134 36.9268 77.05 37.0164C76.8931 37.1009 76.7672 37.2164 76.6766 37.3648C76.5817 37.5136 76.5341 37.7034 76.5341 37.9406C76.5341 38.213 76.5961 38.4419 76.7239 38.6317C76.8484 38.8202 77.0237 38.9696 77.2295 39.0628C77.4441 39.1639 77.6811 39.2113 77.9431 39.2113C78.1762 39.2113 78.3763 39.1763 78.5434 39.1081C78.7064 39.04 78.8408 38.9516 78.9439 38.8525C79.047 38.7494 79.1211 38.6502 79.1687 38.5531H79.2141V39.1164H79.8678V36.3933C79.8678 36.0694 79.8166 35.8111 79.7072 35.6172C79.5998 35.4234 79.4636 35.2791 79.3006 35.182C79.1449 35.0844 78.972 35.0171 78.7913 34.9839C78.6139 34.9489 78.4548 34.9305 78.3208 34.9305ZM79.2036 37.0514V37.6248C79.2036 37.79 79.1586 37.9508 79.0719 38.1034C78.9811 38.2581 78.8509 38.3839 78.6817 38.4788C78.5105 38.5777 78.3022 38.6256 78.0567 38.6256C77.8937 38.6256 77.7455 38.6009 77.6195 38.5514C77.4895 38.4998 77.3883 38.4297 77.3139 38.3327C77.2417 38.2358 77.2047 38.1181 77.2047 37.9717C77.2047 37.817 77.2438 37.6911 77.3303 37.5983C77.413 37.5055 77.5247 37.4373 77.6628 37.3898C77.8088 37.3403 77.9594 37.3057 78.1123 37.2866C78.1764 37.2803 78.2627 37.2686 78.37 37.2537C78.4814 37.2412 78.5952 37.225 78.7127 37.2044C78.8186 37.1884 78.9234 37.1656 79.0264 37.1361C79.115 37.1114 79.1766 37.0823 79.2036 37.0514ZM39.0747 34.9305C38.8622 34.9305 38.6497 34.9614 38.4287 35.0192C38.2134 35.081 38.0118 35.1833 37.8347 35.3205C37.6552 35.4627 37.513 35.6587 37.4078 35.9125L38.047 36.1209C38.0923 36.0261 38.1586 35.9312 38.2452 35.8384C38.3319 35.7455 38.4455 35.6691 38.5858 35.6092C38.7281 35.5452 38.8972 35.5167 39.0931 35.5167C39.285 35.5167 39.4441 35.5473 39.5741 35.6114C39.6971 35.671 39.7977 35.7686 39.8609 35.8898C39.925 36.0075 39.9597 36.1541 39.9597 36.3253V36.348C39.9597 36.4491 39.9225 36.5194 39.8461 36.5627C39.7677 36.6039 39.6541 36.6345 39.4994 36.6494C39.3467 36.6681 39.1428 36.6923 38.8972 36.7233C38.7053 36.75 38.5133 36.7811 38.3236 36.8244C38.1337 36.8656 37.9627 36.9297 37.8059 37.0164C37.6491 37.1009 37.5233 37.2164 37.4325 37.3648C37.3377 37.5136 37.288 37.7034 37.288 37.9406C37.288 38.213 37.352 38.4419 37.4798 38.6317C37.6038 38.8206 37.7791 38.9701 37.9852 39.0628C38.1997 39.1639 38.437 39.2113 38.6969 39.2113C38.932 39.2113 39.1323 39.1763 39.2953 39.1081C39.4625 39.04 39.5944 38.9516 39.6997 38.8525C39.8028 38.7494 39.8773 38.6502 39.9247 38.5531H39.97V39.1164H40.6242V36.3933C40.6242 36.0694 40.5684 35.8111 40.4633 35.6172C40.3559 35.4234 40.2195 35.2791 40.0567 35.182C39.8936 35.0811 39.7245 35.0148 39.547 34.9839C39.3697 34.9489 39.2148 34.9305 39.0747 34.9305ZM39.9597 37.0514V37.6248C39.9597 37.79 39.9144 37.9508 39.8275 38.1034C39.7369 38.2581 39.6069 38.3839 39.4356 38.4788C39.2664 38.5777 39.0583 38.6256 38.8127 38.6256C38.6455 38.6256 38.5011 38.6009 38.3752 38.5514C38.2453 38.4998 38.1419 38.4297 38.0697 38.3327C37.9975 38.2356 37.9603 38.1181 37.9603 37.9717C37.9603 37.817 38.002 37.6911 38.0845 37.5983C38.1691 37.5055 38.2783 37.4373 38.4186 37.3898C38.5569 37.3423 38.7077 37.3072 38.8684 37.2866C38.9325 37.2803 39.0192 37.2686 39.1306 37.2537C39.238 37.2412 39.3509 37.225 39.4666 37.2044C39.5725 37.1888 39.6773 37.166 39.7802 37.1361C39.8708 37.1114 39.9286 37.0823 39.9597 37.0514ZM26.4547 34.9305C26.2422 34.9305 26.0298 34.9614 25.8133 35.0192C25.5968 35.0816 25.3939 35.1837 25.2148 35.3205C25.0352 35.4627 24.893 35.6587 24.7878 35.9125L25.4272 36.1209C25.4705 36.0261 25.5366 35.9312 25.6253 35.8384C25.7121 35.7455 25.8256 35.6691 25.9659 35.6092C26.1061 35.5452 26.2753 35.5167 26.4733 35.5167C26.6652 35.5167 26.8261 35.5473 26.9541 35.6114C27.0798 35.6753 27.1769 35.7681 27.2408 35.8898C27.3048 36.0075 27.3358 36.1541 27.3358 36.3253V36.348C27.3358 36.4491 27.2986 36.5194 27.2244 36.5627C27.148 36.6039 27.0345 36.6345 26.8798 36.6494C26.723 36.6681 26.5231 36.6923 26.2777 36.7233C26.0838 36.75 25.8934 36.7811 25.7036 36.8244C25.5139 36.8656 25.3389 36.9297 25.1841 37.0164C25.0302 37.0973 24.9006 37.2176 24.8083 37.3648C24.7155 37.5136 24.6683 37.7034 24.6683 37.9406C24.6683 38.213 24.7322 38.4419 24.8559 38.6317C24.9824 38.8201 25.1589 38.9694 25.3656 39.0628C25.5802 39.1639 25.8153 39.2113 26.0773 39.2113C26.3125 39.2113 26.5106 39.1763 26.6758 39.1081C26.8409 39.04 26.9748 38.9516 27.08 38.8525C27.1831 38.7494 27.257 38.6502 27.3045 38.5531H27.35V39.1164H28.002V36.3933C28.002 36.0694 27.9483 35.8111 27.8411 35.6172C27.7337 35.4234 27.5975 35.2791 27.4345 35.182C27.2695 35.0811 27.1005 35.0148 26.9231 34.9839C26.7497 34.9489 26.5908 34.9305 26.4547 34.9305ZM27.3359 37.0514V37.6248C27.3364 37.7935 27.2907 37.959 27.2036 38.1034C27.1169 38.2581 26.9848 38.3839 26.8156 38.4788C26.6466 38.5777 26.4383 38.6256 26.1928 38.6256C26.0256 38.6256 25.8812 38.6009 25.7512 38.5514C25.6214 38.4998 25.5222 38.4297 25.448 38.3327C25.3738 38.2356 25.3364 38.1181 25.3364 37.9717C25.3364 37.817 25.3802 37.6911 25.4645 37.5983C25.5492 37.5055 25.6586 37.4373 25.7969 37.3898C25.943 37.3407 26.0935 37.3061 26.2464 37.2866C26.3123 37.2803 26.3991 37.2686 26.5064 37.2537C26.6179 37.2414 26.7314 37.2249 26.847 37.2044C26.9521 37.1887 27.056 37.1659 27.158 37.1361C27.2509 37.1114 27.3091 37.0823 27.3359 37.0514ZM6.61625 34.9305C6.40375 34.9305 6.18922 34.9614 5.97266 35.0192C5.75721 35.081 5.55549 35.1832 5.37828 35.3205C5.19875 35.4627 5.05641 35.6587 4.95125 35.9125L5.58906 36.1209C5.63942 36.0173 5.7054 35.922 5.78469 35.8384C5.87547 35.7456 5.98891 35.6691 6.12719 35.6092C6.2675 35.5452 6.43672 35.5167 6.63266 35.5167C6.82453 35.5167 6.98531 35.5473 7.11312 35.6114C7.23743 35.6708 7.33953 35.7684 7.40453 35.8898C7.46641 36.0075 7.49922 36.1541 7.49922 36.3253V36.348C7.49922 36.4491 7.46172 36.5194 7.3875 36.5627C7.31109 36.6039 7.19609 36.6345 7.04141 36.6494C6.88672 36.6681 6.68641 36.6923 6.43672 36.7233C6.24688 36.75 6.05531 36.7811 5.86328 36.8244C5.67766 36.8656 5.50234 36.9297 5.34766 37.0164C5.19377 37.0973 5.06406 37.2175 4.97172 37.3648C4.87891 37.5136 4.83156 37.7034 4.83156 37.9406C4.83156 38.213 4.89156 38.4419 5.01937 38.6317C5.14462 38.8203 5.32052 38.9697 5.52688 39.0628C5.73938 39.1639 5.97859 39.2113 6.23859 39.2113C6.47172 39.2113 6.67172 39.1763 6.83891 39.1081C7.00188 39.04 7.13609 38.9516 7.23922 38.8525C7.34641 38.7494 7.41875 38.6502 7.46609 38.5531H7.50953V39.1164H8.16328V36.3933C8.16328 36.0694 8.10781 35.8111 8.00266 35.6172C7.8975 35.4233 7.76125 35.2791 7.59609 35.182C7.43313 35.0811 7.26437 35.0148 7.08687 34.9839C6.91359 34.9489 6.75453 34.9305 6.61625 34.9305ZM7.49906 37.0514V37.6248C7.49906 37.79 7.45375 37.9508 7.36703 38.1034C7.27641 38.2581 7.14859 38.3839 6.97953 38.4788C6.80609 38.5777 6.60187 38.6256 6.35219 38.6256C6.18922 38.6256 6.04063 38.6009 5.91469 38.5514C5.78484 38.4998 5.68391 38.4297 5.61156 38.3327C5.53734 38.2358 5.50016 38.1181 5.50016 37.9717C5.50016 37.817 5.54141 37.6911 5.62594 37.5983C5.70844 37.5055 5.81969 37.4373 5.96 37.3898C6.10539 37.3405 6.25536 37.3059 6.40766 37.2866C6.47172 37.2803 6.55844 37.2686 6.66984 37.2537C6.78125 37.2412 6.89047 37.225 7.01016 37.2044C7.12578 37.1856 7.22891 37.163 7.32188 37.1361C7.4125 37.1114 7.47234 37.0823 7.49906 37.0514ZM41.9031 34V34.9839H41.282V35.5533H41.9031V38.0933C41.9031 38.4336 42.0022 38.6958 42.2003 38.8836C42.4025 39.0733 42.6791 39.1658 43.038 39.1658C43.1227 39.1658 43.2092 39.1595 43.2958 39.1475C43.376 39.1387 43.4549 39.1207 43.5309 39.0938L43.3947 38.5323C43.3411 38.5427 43.2816 38.5511 43.2177 38.5616C43.1643 38.571 43.1104 38.5765 43.0563 38.578C42.8789 38.578 42.7553 38.5344 42.6789 38.4478C42.6047 38.3631 42.5675 38.2294 42.5675 38.0436V35.5533H43.4173V34.9839H42.5673V34H41.9031ZM55.7031 33.6102V35.6464H55.65C55.5913 35.5492 55.5271 35.4555 55.4577 35.3656C55.3711 35.2542 55.2497 35.1553 55.0908 35.0645C54.9341 34.9778 54.7212 34.9327 54.453 34.9327C54.1106 34.9327 53.8072 35.017 53.5431 35.1923C53.2791 35.3636 53.0728 35.6091 52.9244 35.9289C52.7736 36.2488 52.7014 36.6264 52.7014 37.0617C52.7014 37.4991 52.7739 37.8767 52.9223 38.2006C53.0709 38.5183 53.2772 38.7677 53.5413 38.9409C53.8053 39.1162 54.1066 39.203 54.4491 39.203C54.7131 39.203 54.9233 39.1597 55.0822 39.0691C55.2409 38.9783 55.365 38.8794 55.4517 38.7616C55.5406 38.6481 55.6066 38.5532 55.6498 38.4769H55.7239V39.1164H56.3677V33.6102H55.7031ZM54.55 35.527C54.8016 35.527 55.0161 35.5906 55.1875 35.7205C55.3606 35.8464 55.493 36.0258 55.5797 36.2528C55.6661 36.4797 55.7072 36.748 55.7072 37.0533C55.7072 37.3606 55.6661 37.6289 55.5753 37.8641C55.4866 38.0972 55.3566 38.2788 55.1852 38.4109C55.0119 38.5428 54.7995 38.6091 54.55 38.6091C54.292 38.6091 54.0756 38.5406 53.9022 38.4003C53.7269 38.26 53.5948 38.0742 53.5081 37.837C53.4214 37.6019 53.3763 37.342 53.3763 37.0533C53.3763 36.7686 53.4214 36.5087 53.5059 36.2798C53.5927 36.0466 53.7225 35.8648 53.8958 35.7308C54.0711 35.5947 54.288 35.527 54.55 35.527ZM46.477 33.6102V39.1164H47.1783V33.6102H46.477ZM29.1717 33.6102V39.1164H29.8361V37.5902L30.2714 37.1823L31.7838 39.1164H32.6358L30.7787 36.7595L32.5056 34.9839H31.6828L29.9166 36.8058H29.8361V33.6102H29.1717ZM20.1666 33.6102V39.1164H20.8678V36.9791H22.0563C22.0998 36.9789 22.1425 36.978 22.1844 36.9764L23.3291 39.1164H24.1442L22.9089 36.853C22.9806 36.8277 23.0486 36.7992 23.1123 36.7664C23.3889 36.6261 23.5936 36.4302 23.7295 36.1764C23.8639 35.9248 23.9295 35.6381 23.9295 35.308C23.9295 34.9798 23.8639 34.6889 23.7295 34.433C23.5936 34.1772 23.3894 33.975 23.1108 33.8286C22.8342 33.6802 22.4834 33.6102 22.0523 33.6102H20.1666ZM20.8678 34.2248H22.0152C22.3081 34.2248 22.5433 34.2705 22.723 34.3592C22.8961 34.4498 23.0281 34.5758 23.1086 34.7367C23.1911 34.8997 23.2325 35.0894 23.2325 35.308C23.2325 35.5246 23.1912 35.7103 23.1086 35.865C23.0281 36.0219 22.9003 36.1416 22.7228 36.2259C22.5495 36.3106 22.3141 36.3561 22.0231 36.3561H20.8678V34.2248ZM13.8041 33.6102V39.1164H14.4703V37.5898L14.9053 37.1823L16.4158 39.1164H17.27L15.4128 36.7595L17.14 34.9839H16.3167L14.5487 36.8058H14.4703V33.6102H13.8041ZM0.210156 33.6102V39.1164H2.22594C2.65922 39.1164 3.01187 39.0508 3.28203 38.9208C3.55234 38.7948 3.75078 38.6172 3.87859 38.3944C4.00859 38.1736 4.06828 37.9241 4.06828 37.6475C4.06828 37.3608 4.01062 37.1173 3.89719 36.9153C3.78375 36.7172 3.64141 36.5623 3.47016 36.4531C3.29687 36.3458 3.12562 36.288 2.95453 36.2775V36.2259C3.11328 36.1828 3.25953 36.1128 3.39781 36.0242C3.53594 35.9312 3.64563 35.807 3.72813 35.6544C3.81266 35.4997 3.85375 35.3056 3.85375 35.0664C3.85375 34.8003 3.79375 34.5553 3.67203 34.3367C3.54828 34.1138 3.36266 33.9383 3.11516 33.8084C2.86344 33.6764 2.54797 33.6102 2.16219 33.6102H0.210156ZM0.911719 34.2311H2.14953C2.50422 34.2311 2.76672 34.3116 2.93375 34.4786C3.09875 34.6416 3.18109 34.8458 3.18109 35.0831C3.18109 35.273 3.13578 35.4398 3.04078 35.5822C2.94797 35.7225 2.82203 35.83 2.66125 35.9103C2.50031 35.9867 2.32313 36.0259 2.125 36.0259H0.911719V34.2311ZM0.911719 36.6181H2.24453C2.47969 36.6181 2.68391 36.6655 2.85719 36.7583C3.02437 36.8533 3.15646 36.9771 3.25344 37.1298C3.34844 37.2867 3.39156 37.4577 3.39156 37.6414C3.39156 37.8806 3.30281 38.0809 3.12125 38.248C2.94187 38.4109 2.63438 38.4952 2.20734 38.4952H0.911719V36.6181ZM75.2898 33.4284C75.1619 33.4284 75.0548 33.4698 74.9642 33.5544C74.8712 33.6409 74.828 33.7444 74.828 33.8683C74.828 33.988 74.8714 34.0908 74.9642 34.1775C75.0548 34.2642 75.162 34.3073 75.2898 34.3073C75.4156 34.3073 75.5273 34.2642 75.6158 34.1775C75.7088 34.0908 75.7545 33.9878 75.7545 33.8681C75.7545 33.7444 75.7088 33.6411 75.6158 33.5544C75.5272 33.4697 75.4156 33.4284 75.2898 33.4284ZM76.2266 2.64125C76.1778 2.64127 76.1295 2.6509 76.0844 2.6696C76.0394 2.68829 75.9984 2.71569 75.964 2.75021C75.9295 2.78473 75.9022 2.8257 75.8836 2.87079C75.865 2.91588 75.8554 2.96419 75.8555 3.01297V26.8514C75.8555 27.0577 76.0203 27.2248 76.2267 27.2248H79.6309C79.6762 27.2248 79.7216 27.2142 79.7505 27.198C79.8235 27.1743 79.8871 27.1279 79.932 27.0656C79.9769 27.0032 80.0007 26.9282 80 26.8514V3.01297C80.0002 2.96433 79.9908 2.91612 79.9723 2.87111C79.9539 2.8261 79.9268 2.78517 79.8925 2.75065C79.8582 2.71613 79.8175 2.6887 79.7726 2.66993C79.7277 2.65116 79.6796 2.64141 79.6309 2.64125H76.2266ZM55.8106 2.64125C55.7122 2.64158 55.6178 2.68085 55.5482 2.7505C55.4786 2.82014 55.4394 2.9145 55.4391 3.01297V26.8514C55.4391 27.0577 55.6062 27.2248 55.8106 27.2248H59.1195C59.1686 27.2249 59.2172 27.2152 59.2625 27.1965C59.3078 27.1777 59.349 27.1502 59.3837 27.1155C59.4184 27.0808 59.4459 27.0397 59.4647 26.9944C59.4835 26.949 59.4931 26.9005 59.4931 26.8514V18.1887C59.4927 18.1401 59.502 18.0919 59.5204 18.0469C59.5389 18.0019 59.5661 17.9611 59.6004 17.9267C59.6348 17.8923 59.6757 17.8651 59.7207 17.8467C59.7657 17.8283 59.8139 17.819 59.8625 17.8194H62.5383C62.6561 17.8194 62.7694 17.8772 62.8373 17.9741L69.2289 27.0658C69.3011 27.1628 69.4102 27.2248 69.532 27.2248H73.3406C73.6398 27.2248 73.8148 26.8866 73.6416 26.6389L67.6259 18.077C67.4775 17.8666 67.5867 17.5695 67.8383 17.5036C68.8039 17.2498 69.6602 16.8723 70.38 16.3814C71.1022 15.8883 71.7106 15.3064 72.1894 14.6566C72.668 14.0109 73.027 13.2806 73.2539 12.4967C73.4838 11.7014 73.6011 10.8777 73.6023 10.0498C73.6023 8.96875 73.4189 7.96406 73.0661 7.05422C72.7112 6.15891 72.1791 5.37703 71.4797 4.73328C70.772 4.08344 69.8705 3.56562 68.8039 3.19844C67.7228 2.82906 66.4561 2.64125 65.0345 2.64125H55.8106ZM59.8625 6.24125H65.0714C65.3767 6.24125 65.6719 6.26 65.9752 6.29719C66.9097 6.43953 67.6794 6.77781 68.2673 7.30813C69.0781 8.04047 69.4908 8.95062 69.4908 10.0152C69.4908 10.533 69.4041 11.0486 69.2348 11.5417C69.0647 12.045 68.7842 12.5039 68.4137 12.8847C68.0425 13.2684 67.5617 13.5819 66.9903 13.817C66.4189 14.0522 65.7297 14.1719 64.9395 14.1719H59.8625C59.6562 14.1719 59.4931 14.0047 59.4931 13.7984V6.61094C59.4927 6.56231 59.502 6.51408 59.5204 6.46907C59.5388 6.42406 59.566 6.38316 59.6004 6.34877C59.6348 6.31437 59.6756 6.28716 59.7206 6.26873C59.7656 6.2503 59.8139 6.24085 59.8625 6.24125ZM36.4669 2.64125C36.3685 2.64162 36.2742 2.68092 36.2047 2.75057C36.1351 2.82022 36.096 2.91455 36.0958 3.01297V26.8514C36.0958 27.0577 36.2627 27.2248 36.4669 27.2248H45.8559C47.2753 27.2248 48.5277 27.0289 49.5819 26.6492C50.6237 26.2695 51.4986 25.7436 52.1794 25.0855C52.8622 24.4273 53.3739 23.6517 53.702 22.7769C54.0341 21.8981 54.2031 20.9366 54.2031 19.9256C54.2031 18.5764 53.8917 17.3613 53.2769 16.3131C52.6559 15.2569 51.9277 14.4341 51.1045 13.8627C50.9147 13.7306 50.892 13.458 51.055 13.295C51.2159 13.1341 51.4119 12.9216 51.6327 12.6637C51.8472 12.4184 52.0516 12.1231 52.2436 11.7809C52.4373 11.4445 52.6005 11.0586 52.7367 10.6397C52.8688 10.2334 52.9342 9.79016 52.9342 9.32594C52.9342 8.38922 52.7736 7.50406 52.4558 6.69312C52.1402 5.89469 51.6492 5.185 50.9952 4.58875C50.335 3.98641 49.4975 3.50594 48.5011 3.16328C47.4964 2.81875 46.3017 2.64141 44.9503 2.64141L36.4669 2.64125ZM40.4281 6.24125H44.808C45.66 6.24125 46.3861 6.34875 46.968 6.56328H46.9695C47.3595 6.71391 47.6898 6.91203 47.9414 7.15547C48.5914 7.77844 48.9212 8.53375 48.9212 9.40438C48.9212 10.1575 48.7872 10.7967 48.5191 11.3062C48.2633 11.7931 47.9972 12.1747 47.7331 12.4409L47.6237 12.5503H40.4277C40.3289 12.5499 40.2344 12.5104 40.1648 12.4403C40.0952 12.3703 40.0562 12.2756 40.0564 12.1769L40.057 6.61078C40.0577 6.5127 40.0971 6.41884 40.1666 6.34966C40.2361 6.28048 40.33 6.24141 40.4281 6.24125ZM40.4281 16.1897H46.1058C47.4859 16.1897 48.5277 16.5611 49.2147 17.2977C49.8584 18.0217 50.1844 18.8798 50.1844 19.8516C50.1844 20.8625 49.8108 21.7395 49.0825 22.4575C48.3502 23.1733 47.1663 23.5384 45.5591 23.5384H40.4281C40.3297 23.5381 40.2354 23.4988 40.1659 23.4292C40.0963 23.3596 40.0571 23.2653 40.0567 23.1669V16.5609C40.0567 16.3547 40.2239 16.1897 40.4281 16.1897ZM4.40891 0C1.97234 0 0 1.97219 0 4.41078V25.5592C0 27.998 1.97234 29.9723 4.40891 29.9723H25.5594C27.9958 29.9723 29.9723 27.998 29.9723 25.5594V4.41078C29.9723 1.97219 27.9958 0 25.5594 0H4.40891ZM4.40891 3.43781H7.27641V3.45266C8.15932 3.42678 9.01911 3.73718 9.68188 4.32109C9.73547 4.36859 9.78938 4.42234 9.83891 4.47188C11.1881 5.81906 11.1695 7.855 9.80172 9.43531L5.28562 14.3973C4.9825 14.7295 4.9825 15.2391 5.28562 15.5692L9.77078 20.4958L9.81406 20.5472C11.1942 22.0511 11.2067 24.1305 9.83891 25.4942C9.78938 25.5478 9.73547 25.5958 9.68188 25.6431C9.01969 26.2331 8.16766 26.5403 7.27641 26.5156V26.5305H4.40891C4.28122 26.5306 4.15476 26.5056 4.03677 26.4568C3.91877 26.408 3.81156 26.3364 3.72126 26.2462C3.63096 26.1559 3.55934 26.0487 3.51052 25.9307C3.46169 25.8127 3.43662 25.6863 3.43672 25.5586V4.40937C3.43664 4.28172 3.46173 4.1553 3.51057 4.03736C3.55941 3.91941 3.63103 3.81226 3.72133 3.72203C3.81163 3.6318 3.91884 3.56026 4.03683 3.51152C4.15481 3.46278 4.28125 3.43763 4.40891 3.43781ZM13.3583 3.43875H16.5273V3.45359C17.411 3.42756 18.2716 3.73807 18.935 4.32234C18.9886 4.36984 19.0422 4.42328 19.0917 4.47281C20.4409 5.82 20.4223 7.85641 19.0545 9.43656L14.5902 14.4478C14.4459 14.6104 14.3672 14.8208 14.3694 15.0381C14.3717 15.2554 14.4546 15.4642 14.6022 15.6237L24.8006 26.5311H13.3584C14.8953 23.9337 14.5487 20.5936 12.3166 18.1859L9.40312 14.9856L12.2836 11.8169L12.3452 11.7527C14.5423 9.26859 14.8747 5.99906 13.3583 3.43875ZM22.6092 3.43937H25.5592C25.8169 3.43929 26.0642 3.54158 26.2465 3.72375C26.4288 3.90592 26.5313 4.15305 26.5314 4.41078V23.292L18.7059 14.9286L21.5344 11.8175L21.5941 11.7534C23.7913 9.26969 24.1277 5.99969 22.6092 3.43937Z" fill="#0857C3"/>
</g>
<defs>
<clipPath id="clip0_3802_8213">
<rect width="80" height="40.6905" fill="white"/>
</clipPath>
</defs>
</svg>
