<svg width="80" height="45" viewBox="0 0 80 45" fill="none" xmlns="http://www.w3.org/2000/svg">
<g clip-path="url(#clip0_3802_7802)">
<path d="M15.7915 14.8705C12.6582 14.8705 9.76209 15.9286 7.40703 17.7254V4.8799H0V44.2804H7.40703V42.0026C9.76037 43.7994 12.6582 44.8576 15.7915 44.8576C23.6795 44.8576 30.0764 38.1462 30.0764 29.8632C30.0764 21.5801 23.6795 14.8705 15.7915 14.8705ZM15.082 37.5382C10.8443 37.5382 7.40703 34.1009 7.40703 29.8632C7.40703 25.6254 10.8443 22.1899 15.082 22.1899C19.3198 22.1899 22.7553 25.6254 22.7553 29.8632C22.7553 34.1009 19.3198 37.5382 15.082 37.5382Z" fill="#015BFD"/>
<path d="M80 25.713V44.2787H72.5913V26.5135C72.5913 25.6684 72.337 24.8318 71.8629 24.131C71.0298 22.8993 69.5852 22.2758 68.1388 22.1572C66.8642 22.0525 65.4264 22.2878 64.3064 22.9302C63.932 23.145 63.585 23.4043 63.2741 23.7032C62.2743 24.6652 61.6783 26.0119 61.6783 27.4033V44.2804H54.2695V15.6074H61.6783V17.1517C61.6783 16.7068 63.7018 15.8513 64.066 15.6967C65.009 15.2982 66.0122 15.0525 67.0291 14.9409C73.6734 14.2091 79.9966 18.6976 79.9966 25.7147L80 25.713Z" fill="#015BFD"/>
<path d="M50.8649 22.8083V15.6057H42.4959V7.81557H40.0481L35.0872 11.2752V16.3409L30.0747 20.2488V22.8083H35.0872V33.9738C35.0872 35.0165 35.2005 36.0592 35.4599 37.0675C37.0678 43.3339 42.69 44.8541 45.8421 44.8541C49.3326 44.8541 50.8666 43.729 50.8666 43.729V36.6879C50.8666 36.6879 49.5731 37.7116 46.263 37.7116C44.9386 37.7116 44.0711 37.2582 43.5077 36.7119C42.8463 36.0729 42.4959 35.1762 42.4959 34.2572V22.8066H50.8649V22.8083Z" fill="#015BFD"/>
<path d="M78.4351 0.0770172L55.2933 8.89605C54.6784 9.12967 54.273 9.72058 54.273 10.3785V11.9245C54.273 12.1942 54.5169 12.3986 54.7814 12.3505L76.4408 8.45974C78.5021 8.0887 80 6.29706 80 4.2031V1.15406C80 0.346707 79.1909 -0.211568 78.4368 0.0770172H78.4351Z" fill="#FF0000"/>
</g>
<defs>
<clipPath id="clip0_3802_7802">
<rect width="80" height="44.8576" fill="white"/>
</clipPath>
</defs>
</svg>
