<svg width="62" height="60" viewBox="0 0 62 60" fill="none" xmlns="http://www.w3.org/2000/svg">
<g clip-path="url(#clip0_3802_10468)">
<path d="M8.12817 0H53.646C53.646 15.1717 53.646 30.3434 53.6433 45.5151C38.4716 45.5179 23.2999 45.5151 8.12817 45.5179V0ZM14.1908 8.54441C17.7331 13.2876 21.3277 17.9895 24.8865 22.719C21.358 27.4677 17.7413 32.1504 14.2073 36.8963C22.2862 36.9294 30.3624 36.8963 38.4413 36.9129C42.0772 32.2082 45.5809 27.4016 49.2416 22.7135L49.1728 22.7162C45.6057 17.9868 42.0221 13.2684 38.4606 8.5389C30.3706 8.54441 22.2807 8.53064 14.1908 8.54441Z" fill="#790008"/>
<path d="M14.1908 8.54441C22.2807 8.53064 30.3706 8.54441 38.4606 8.5389C42.0221 13.2684 45.6057 17.9868 49.1728 22.7162C41.0773 22.7328 32.9819 22.7245 24.8865 22.719C21.3277 17.9895 17.7331 13.2876 14.1908 8.54441Z" fill="white"/>
<path d="M24.8865 22.719C32.9819 22.7245 41.0773 22.7328 49.1728 22.7162L49.2416 22.7135C45.5809 27.4016 42.0772 32.2082 38.4413 36.9129C30.3624 36.8963 22.2862 36.9294 14.2073 36.8963C17.7413 32.1504 21.358 27.4677 24.8865 22.719Z" fill="#ED3024"/>
<path d="M0.884179 53.5179C1.57936 52.6511 2.64828 52.0944 3.75888 52.0315C4.81084 51.9502 5.88117 52.3197 6.67173 53.0156C6.31495 53.3752 5.95747 53.7327 5.59787 54.0895C4.98958 53.5964 4.14462 53.4021 3.38726 53.6183C2.54231 53.8401 1.86408 54.5621 1.67544 55.4127C1.44513 56.3361 1.77789 57.3853 2.53736 57.9702C3.40493 58.6803 4.75079 58.6442 5.60352 57.9271C5.961 58.2853 6.32625 58.6372 6.67455 59.0052C5.96877 59.6185 5.05104 59.9873 4.11424 59.9986C2.9337 60.0311 1.75104 59.5118 0.980261 58.6167C0.441211 58.0027 0.0978575 57.2185 0.0208504 56.4047C-0.0872423 55.3788 0.228558 54.3156 0.884179 53.5179Z" fill="#790008"/>
<path d="M8.09031 52.2435C8.60252 52.2435 9.11401 52.2442 9.62622 52.2428C9.62763 54.7572 9.62622 57.2709 9.62692 59.7853C9.11472 59.7853 8.60252 59.786 8.09031 59.7846C8.09102 57.2709 8.09031 54.7572 8.09031 52.2435Z" fill="#790008"/>
<path d="M11.4638 52.2259C11.9619 52.2245 12.46 52.2287 12.9588 52.2238C13.8468 53.8211 14.7123 55.4326 15.6116 57.0243C16.4834 55.422 17.3679 53.8275 18.2398 52.2252C18.7421 52.2266 19.2444 52.2252 19.7474 52.2259C19.7446 54.741 19.7523 57.2554 19.7432 59.7705C19.2317 59.7627 18.7209 59.7719 18.2094 59.7655C18.2129 58.2769 18.2094 56.7891 18.2115 55.3012C17.3305 56.8053 16.4912 58.3349 15.5947 59.8291C14.7384 58.3151 13.8588 56.8145 12.999 55.3026C13.0019 56.7912 12.9997 58.2791 13.0004 59.7676C12.4882 59.7676 11.9767 59.7669 11.4645 59.7683C11.4624 57.2539 11.4645 54.7403 11.4638 52.2259Z" fill="#790008"/>
<path d="M21.4967 52.2428C22.5338 52.2442 23.5702 52.2428 24.6074 52.2435C25.0871 52.2527 25.5795 52.3537 25.9893 52.6144C26.979 53.2192 27.2065 54.7897 26.3799 55.6219C26.274 55.735 26.1482 55.8282 26.0232 55.9186C26.4944 56.1666 26.8561 56.6265 26.9437 57.1564C27.0716 57.8714 26.9084 58.6923 26.3538 59.1968C25.9115 59.6199 25.2828 59.7725 24.6865 59.7803C23.6232 59.7916 22.5593 59.7824 21.496 59.7853C21.4967 57.2709 21.4946 54.7572 21.4967 52.2428ZM23.0326 53.6212C23.0319 54.1687 23.0326 54.7162 23.0326 55.2637C23.4848 55.2623 23.9376 55.2659 24.3905 55.263C24.654 55.2581 24.9387 55.203 25.1316 55.0087C25.4057 54.7176 25.4128 54.2266 25.169 53.9143C24.9818 53.689 24.6724 53.619 24.3919 53.6204C23.9383 53.6212 23.4855 53.6212 23.0326 53.6212ZM23.0326 56.6421C23.0326 57.2242 23.0319 57.8071 23.0326 58.3899C23.5321 58.3906 24.0316 58.3892 24.5311 58.3914C24.7649 58.3984 25.0108 58.3327 25.186 58.1709C25.535 57.8346 25.5413 57.208 25.1853 56.8745C24.9931 56.6923 24.7176 56.6449 24.4625 56.6414C23.9857 56.6407 23.5088 56.6414 23.0326 56.6421Z" fill="#790008"/>
<path d="M30.1321 52.2266C30.3885 52.2294 30.645 52.2174 30.9014 52.2301C31.0187 52.3212 31.0844 52.4639 31.1784 52.5784C32.5857 54.5007 33.9817 56.4316 35.3968 58.3483C35.3954 56.3072 35.3968 54.2669 35.3961 52.2259C35.661 52.2259 35.926 52.2259 36.1909 52.2259C36.1909 54.7339 36.1909 57.2419 36.1909 59.75C35.9231 59.75 35.6554 59.7493 35.3883 59.7514C33.9019 57.7068 32.4161 55.6615 30.9276 53.6183C30.9276 55.6622 30.9276 57.7061 30.9276 59.7492C30.6605 59.7485 30.3935 59.7549 30.1278 59.7436C30.1398 57.2384 30.1299 54.7325 30.1321 52.2266Z" fill="#790008"/>
<path d="M38.1691 52.2259C38.434 52.2259 38.6982 52.2259 38.9639 52.2259C38.9639 54.7339 38.9632 57.2412 38.9639 59.7486C38.6989 59.7507 38.434 59.7493 38.1698 59.75C38.1677 57.2419 38.1698 54.7339 38.1691 52.2259Z" fill="#790008"/>
<path d="M40.1875 59.8009C41.1038 57.2922 42.0209 54.7834 42.9435 52.2775C43.3109 52.281 43.6776 52.2782 44.0449 52.2789C44.9189 54.7693 45.7914 57.2611 46.6681 59.75C46.3559 59.7493 46.0436 59.7507 45.732 59.7493C45.4996 59.0831 45.2636 58.4176 45.0241 57.7535C43.9863 57.7542 42.9492 57.7542 41.9121 57.7542C41.6803 58.436 41.4578 59.122 41.2253 59.8037C40.8792 59.8009 40.533 59.8051 40.1875 59.8009ZM42.23 56.852C43.0559 56.8555 43.8825 56.8527 44.7083 56.8534C44.2943 55.6467 43.886 54.4379 43.479 53.2291C43.0643 54.4372 42.6411 55.6425 42.23 56.852Z" fill="#790008"/>
<path d="M48.4322 53.5102C49.0596 52.8645 49.8989 52.4003 50.8039 52.3169C51.9195 52.2046 53.0301 52.6186 53.9322 53.2537C53.7563 53.4819 53.5712 53.7024 53.3967 53.9313C53.0965 53.5038 52.5645 53.3442 52.0848 53.2149C51.2504 52.9853 50.3037 53.1096 49.5994 53.6275C48.9628 54.1079 48.5375 54.8377 48.3687 55.6113C48.2733 56.411 48.3524 57.2843 48.8272 57.9611C48.9904 58.2168 49.2504 58.3814 49.4729 58.58C49.9448 58.965 50.5637 59.1395 51.1671 59.1338C51.9096 59.1409 52.6443 58.9509 53.3233 58.6591C53.3225 57.8862 53.3247 57.1133 53.3225 56.3404C52.734 56.3411 52.1455 56.3411 51.557 56.3404C51.557 56.1058 51.557 55.8713 51.5563 55.6367C52.3921 55.6318 53.2279 55.6367 54.0644 55.6339C54.0658 56.8293 54.0644 58.024 54.0651 59.2193C53.2674 59.6644 52.3533 59.8509 51.4532 59.9407C50.5001 59.9604 49.5047 59.716 48.7629 59.0936C48.038 58.498 47.6148 57.5916 47.4905 56.6731C47.3951 55.5555 47.6791 54.3651 48.4322 53.5102Z" fill="#790008"/>
<path d="M55.3396 59.793C56.2601 57.2899 57.1764 54.7854 58.0899 52.2795C58.4573 52.2774 58.8247 52.2816 59.1928 52.2759C60.037 54.6533 60.8622 57.0377 61.7036 59.4164C61.7432 59.5231 61.7651 59.6347 61.7743 59.7492C61.4783 59.7506 61.1836 59.7492 60.889 59.7506C60.6495 59.0865 60.4164 58.4196 60.1804 57.7548C59.1391 57.7534 58.0977 57.7526 57.057 57.7555C56.8338 58.4386 56.6021 59.119 56.3774 59.8015C56.0312 59.7993 55.685 59.8128 55.3396 59.793ZM58.6276 53.2339C58.2178 54.4427 57.7904 55.6452 57.3842 56.8554C58.2072 56.8512 59.031 56.854 59.854 56.854C59.4535 55.6445 59.038 54.4399 58.6276 53.2339Z" fill="#790008"/>
</g>
<defs>
<clipPath id="clip0_3802_10468">
<rect width="61.7743" height="60" fill="white"/>
</clipPath>
</defs>
</svg>
