<svg width="80" height="24" viewBox="0 0 80 24" fill="none" xmlns="http://www.w3.org/2000/svg">
<g clip-path="url(#clip0_3802_17329)">
<path d="M44.8375 0C43.7758 0 42.9205 0.859204 42.9205 1.91938C42.9205 2.68213 43.3655 3.34022 44.0078 3.64969L43.9384 3.68953L41.7473 4.9425C41.5606 5.04867 41.4237 5.22487 41.368 5.43344C41.3085 5.64577 41.337 5.86416 41.4447 6.05391C41.5893 6.30765 41.8611 6.46484 42.1517 6.46484C42.2699 6.46484 42.3858 6.43634 42.4912 6.38891L44.4664 5.25266V2.56531C44.4664 2.4742 44.5417 2.40125 44.632 2.40125H45.0581C45.1492 2.40125 45.2223 2.4742 45.2223 2.56531V4.8175L48.2131 3.09781C48.2801 3.06092 48.3614 3.06092 48.4277 3.09781L54.245 6.40844C54.3391 6.44383 54.4362 6.46484 54.5356 6.46484C54.8278 6.46484 55.0982 6.30765 55.2428 6.05391C55.3512 5.86416 55.3791 5.64577 55.3219 5.43344C55.2654 5.22487 55.1291 5.04867 54.9402 4.9425L48.7477 1.40578C48.6249 1.33576 48.4849 1.29594 48.3456 1.29594C48.2063 1.29594 48.0633 1.33576 47.9391 1.40578L46.7786 2.06844L46.7509 2.08484C46.7555 2.02988 46.7577 1.97509 46.7577 1.91938C46.7577 0.859204 45.8992 0 44.8375 0ZM44.1094 0.889219C44.1402 0.889219 44.1704 0.901189 44.193 0.924531C44.2269 0.962932 44.2321 1.01952 44.205 1.06094C44.1869 1.08428 44.1681 1.10397 44.15 1.12656C44.1304 1.14765 44.1094 1.17 44.0944 1.19484C43.9905 1.33791 43.9332 1.49928 43.9189 1.66719C43.8986 1.91416 43.9678 2.14 44.1259 2.33953C44.1342 2.35459 44.1478 2.36569 44.1598 2.38L44.187 2.41016C44.2209 2.45157 44.2269 2.49076 44.2058 2.53594C44.187 2.57735 44.153 2.5993 44.1048 2.60156H44.1027C44.0733 2.60156 44.0469 2.58644 44.0228 2.56234C43.9422 2.48253 43.8753 2.38763 43.8211 2.28297C43.7503 2.14894 43.7065 2.00373 43.693 1.84938C43.6915 1.82528 43.6916 1.801 43.6886 1.77766C43.6916 1.46442 43.7811 1.21745 43.9595 0.999844C43.9949 0.956172 44.0206 0.925358 44.053 0.905781C44.071 0.893734 44.0898 0.889219 44.1094 0.889219ZM45.6094 0.892969C45.635 0.892969 45.6567 0.901331 45.6778 0.920156C45.7328 0.970605 45.7856 1.03392 45.8337 1.10922C45.9249 1.24927 45.9813 1.39905 46.0069 1.56094C46.0189 1.62193 46.0221 1.68736 46.0228 1.73781C46.0198 2.0277 45.9309 2.27317 45.7539 2.49078C45.7163 2.53596 45.6907 2.56683 45.6591 2.58641C45.6425 2.59921 45.6215 2.60297 45.6019 2.60297C45.5702 2.60297 45.5415 2.58949 45.5197 2.56766C45.4843 2.53001 45.4798 2.47038 45.5092 2.43047C45.5243 2.40713 45.5431 2.38611 45.5619 2.36578C45.583 2.34395 45.6018 2.32063 45.6214 2.29578C45.711 2.16477 45.7675 2.02542 45.7878 1.87859C45.8187 1.6512 45.7727 1.43526 45.6462 1.23422C45.6139 1.18452 45.5716 1.13691 45.5317 1.08797C45.4978 1.05107 45.4873 1.01211 45.4978 0.976719C45.5068 0.940577 45.5348 0.911081 45.5717 0.898281C45.5853 0.893011 45.5981 0.892969 45.6094 0.892969ZM44.4903 1.22203C44.5167 1.22203 44.5416 1.23414 44.5627 1.25297C44.5852 1.27706 44.5981 1.30426 44.5981 1.33438C44.6004 1.36449 44.5852 1.39762 44.5581 1.42172C44.5205 1.46313 44.4693 1.51799 44.4452 1.59328C44.3872 1.76496 44.4181 1.91714 44.5394 2.04891C44.5627 2.07526 44.5854 2.09921 44.5922 2.13234C44.6027 2.17677 44.5831 2.22426 44.5447 2.24609C44.5259 2.2604 44.5033 2.26563 44.4822 2.26563C44.4581 2.26563 44.4362 2.25889 44.4197 2.24609C44.3482 2.18887 44.2931 2.11423 44.248 2.01484C44.2103 1.92825 44.1916 1.83716 44.1916 1.74078C44.1953 1.55555 44.2653 1.39523 44.3978 1.26422C44.4234 1.23711 44.4572 1.22203 44.4903 1.22203ZM45.2291 1.225C45.2532 1.225 45.275 1.2326 45.2923 1.24766C45.3639 1.30338 45.4187 1.3793 45.4631 1.47719C45.5008 1.56227 45.5219 1.65497 45.5197 1.74984C45.5159 1.93583 45.446 2.09701 45.3142 2.22953C45.2856 2.25363 45.254 2.26953 45.2223 2.26953C45.1952 2.26953 45.1696 2.25742 45.15 2.23859C45.1267 2.21676 45.1139 2.18812 45.1139 2.15875C45.1139 2.12713 45.1266 2.0963 45.153 2.06844C45.1921 2.03004 45.2411 1.97584 45.2667 1.89828C45.3262 1.72661 45.293 1.57521 45.1741 1.44344C45.1447 1.41181 45.1267 1.39074 45.1192 1.36063C45.1087 1.31695 45.1304 1.26715 45.1658 1.24531C45.1869 1.23025 45.2087 1.225 45.2291 1.225ZM27.4591 1.475L26.2047 2.80094C26.0789 2.94475 25.9894 3.08804 25.9894 3.28531C25.9894 3.41106 26.0255 3.59022 26.2047 3.73328L27.5308 4.82641L28.785 3.50063C28.9107 3.35681 29.0005 3.19561 29.0005 3.01641C29.0005 2.89141 28.9461 2.71134 28.785 2.56828L27.4591 1.475ZM23.1092 1.53C22.034 1.53 21.4603 2.10378 21.4603 3.16094V7.22922C20.9581 5.92132 19.9725 5.38375 18.7361 5.38375C16.3703 5.38375 14.9727 7.39033 14.9727 10.2938C14.9727 13.1972 16.3349 15.1505 18.7361 15.1505C19.9725 15.1505 20.9399 14.685 21.4775 13.6633C21.5852 14.6308 22.1228 15.0255 23.1084 15.0255C23.5384 15.0255 23.9872 14.9359 24.2741 14.7928V1.76266C23.9872 1.61959 23.5211 1.53 23.1092 1.53ZM44.8556 1.60156C44.9332 1.60156 44.9994 1.66703 45.0002 1.74609C45.0002 1.78449 44.9845 1.81914 44.9573 1.84625C44.9317 1.87486 44.894 1.88922 44.8556 1.88922C44.7773 1.88922 44.7134 1.82521 44.7111 1.74766C44.7111 1.6686 44.7773 1.60307 44.8556 1.60156ZM31.7902 1.95313C31.5854 1.95313 31.3753 1.97424 31.1584 2.01641C30.9423 2.05933 30.7616 2.11584 30.617 2.18813V13.5444C30.617 14.0737 30.7639 14.4803 31.0591 14.7627C31.3535 15.045 31.7781 15.1866 32.3316 15.1866C32.8007 15.1866 33.1915 15.1082 33.5047 14.9516V9.82469H38.0902V13.5436C38.0902 14.0729 38.237 14.4795 38.5322 14.7619C38.8266 15.0442 39.2513 15.1858 39.8047 15.1858C40.2738 15.1858 40.6646 15.1076 40.9778 14.9509V3.59547C40.9778 3.06614 40.8302 2.66015 40.5358 2.37703C40.2414 2.09467 39.8167 1.95313 39.2633 1.95313C39.0585 1.95313 38.8484 1.97424 38.6316 2.01641C38.4155 2.05933 38.2347 2.11584 38.0902 2.18813V7.29625H33.5047V3.59547C33.5047 3.06614 33.3571 2.66015 33.0627 2.37703C32.7675 2.09467 32.3436 1.95313 31.7902 1.95313ZM1.16484 1.96141C0.752973 1.96141 0.286876 2.051 0 2.19406V13.4667C0 14.5239 0.591128 15.0977 1.7025 15.0977C2.11437 15.0977 2.58046 15.0081 2.86734 14.865V3.59234C2.86734 2.53518 2.27622 1.96141 1.16484 1.96141ZM48.32 3.53219L42.8075 6.70281V14.6422C42.8075 15.1512 43.2239 15.5669 43.7314 15.5669H53.1262C53.6345 15.5669 54.05 15.1512 54.05 14.6422V6.79484L48.32 3.53219ZM48.4292 5.33781C51.3507 5.33781 53.2858 7.29101 53.2858 10.2125C53.2858 13.134 51.35 15.1044 48.4292 15.1044C45.5077 15.1044 43.5725 13.1513 43.5725 10.2125C43.5725 7.27369 45.5077 5.33781 48.4292 5.33781ZM75.7686 5.38141C73.0444 5.38141 71.2342 7.26314 71.2342 10.1666C71.2342 13.195 73.1694 15.1481 76.0728 15.1481C78.2775 15.1481 79.693 14.3779 79.693 13.0873C79.693 12.4955 79.3527 12.0655 78.7789 11.9044C78.2955 12.6393 77.4709 12.9977 76.4853 12.9977C74.944 12.9977 74.0661 12.1731 74.0661 10.8291H79.9445C80.016 10.3811 79.998 9.98664 79.998 9.66438C79.998 7.10204 78.4928 5.38141 75.7686 5.38141ZM61.1911 5.38297C59.9193 5.38297 58.8796 5.99204 58.4497 7.15688V7.03125C58.4497 6.11716 57.8578 5.50797 56.8187 5.50797C56.3888 5.50797 55.9408 5.59756 55.6539 5.74063V14.9697H58.4677V9.1275C58.4677 8.15994 59.0595 7.53266 59.9375 7.53266C60.8697 7.53266 61.3711 8.23135 61.3711 9.48578V14.9697H64.1488V9.1275C64.1488 8.17801 64.7761 7.53266 65.7083 7.53266C66.6404 7.53266 67.0703 8.14174 67.0703 9.48578V14.9697H69.8661V8.66141C69.8661 6.67208 68.6463 5.38297 66.7466 5.38297C65.456 5.38297 64.3988 5.99217 63.8792 7.37234C63.3951 5.99217 62.374 5.38297 61.1911 5.38297ZM10.4308 5.38438C9.14096 5.38438 8.11926 6.01165 7.67125 7.14109V7.12297C7.67125 6.15541 7.0794 5.51016 6.04031 5.51016C5.61037 5.51016 5.16235 5.59975 4.87547 5.74281V14.9719H7.68922V9.14781C7.68922 8.19833 8.33453 7.53484 9.32016 7.53484C10.3058 7.53484 10.7719 8.14406 10.7719 9.41656V14.9719H13.5677V8.77125C13.5677 6.675 12.3659 5.38438 10.4308 5.38438ZM26.097 5.56063V13.3914C26.097 14.4486 26.6707 15.0223 27.7459 15.0223C28.1578 15.0223 28.6241 14.9328 28.9109 14.7897V5.56063H26.097ZM75.8402 7.40688C76.9515 7.40688 77.489 8.12378 77.5425 9.18094H74.0661C74.0842 8.05224 74.7288 7.40688 75.8402 7.40688ZM48.4292 7.48813C47.1386 7.48813 46.4217 8.45659 46.4217 10.2125C46.4217 11.9684 47.1386 12.9539 48.4292 12.9539C49.7198 12.9539 50.4366 11.9684 50.4366 10.2125C50.4366 8.47391 49.7198 7.48813 48.4292 7.48813ZM19.7036 7.53484C20.7246 7.53484 21.4595 8.32328 21.4595 9.30891V11.4233C21.4595 12.2832 20.6719 13.018 19.7397 13.018C18.5387 13.018 17.8219 12.0323 17.8219 10.2764C17.8219 8.5205 18.5742 7.53484 19.7036 7.53484ZM55.4239 17.3108V22.0559C55.4239 22.5466 55.7736 22.7705 56.1161 22.7705C56.4586 22.7705 56.6758 22.6564 56.6758 22.6564C56.6758 22.6564 56.4659 22.4874 56.4659 21.7359V17.9425C56.4659 17.6183 56.2592 17.3108 55.8778 17.3108H55.4239ZM57.1495 17.3108V22.7081H58.1914V21.0017L59.1103 22.0764C59.3883 22.4015 59.5896 22.7081 60.0461 22.7081H60.8795L59.7789 21.4359C59.5281 21.146 59.3406 20.8668 58.9747 20.8139C58.9643 20.8124 58.9558 20.8055 58.9558 20.795C58.9558 20.7845 58.9645 20.7783 58.9747 20.7761C59.2903 20.7068 59.4721 20.4416 59.6977 20.1634L60.7295 18.8911H59.5494L58.1914 20.5484V17.3108H57.1495ZM78.7481 17.3108V22.0559C78.7481 22.5466 79.0978 22.7705 79.4403 22.7705C79.7828 22.7705 80 22.6564 80 22.6564C80 22.6564 79.7902 22.4874 79.7902 21.7359V17.9425C79.7902 17.6183 79.5835 17.3108 79.202 17.3108H78.7481ZM48.6656 17.4767C48.3507 17.4767 48.0705 17.7332 48.0705 18.0252V18.5609H49.5842V22.0559C49.5842 22.5466 49.9339 22.7705 50.2764 22.7705C50.6189 22.7705 50.8361 22.6564 50.8361 22.6564C50.8361 22.6564 50.6262 22.4874 50.6262 21.7359V18.3845C50.6262 18.0604 50.2485 17.4767 49.6267 17.4767H48.6656ZM50.2936 17.4767C50.2737 17.4767 50.2578 17.4926 50.2578 17.5125C50.2578 17.5324 50.2777 17.5472 50.2936 17.5591C50.3595 17.6083 50.565 17.7538 50.6631 17.9531C50.7612 18.1524 50.7636 18.3333 50.8273 18.4378C50.8911 18.5423 50.9951 18.5609 51.1052 18.5609H51.8962C52.0711 18.5609 52.1398 18.4436 52.1398 18.3042V17.4767H50.2936ZM53.1833 18.8314C52.0219 18.8287 51.2591 19.6584 51.2591 20.8448C51.259 22.1779 52.2987 22.7705 53.3092 22.7705C53.9213 22.7705 54.3946 22.5484 54.6366 22.3973V21.4967C54.4687 21.6392 53.956 21.9212 53.442 21.9231C52.8495 21.9253 52.36 21.6734 52.2537 21.098H54.8681C54.8807 20.9981 54.9038 20.8596 54.9033 20.7016C54.8997 19.5343 54.1167 18.8336 53.1833 18.8314ZM62.5553 18.8314C61.3786 18.8296 60.5545 19.6708 60.5561 20.797C60.5577 21.9232 61.3653 22.7709 62.5553 22.7705C63.7453 22.77 64.536 21.9105 64.5361 20.797C64.5362 19.6835 63.732 18.8332 62.5553 18.8314ZM67.087 18.8314C66.5831 18.8314 66.2378 19.0222 66.0802 19.4111C66.0622 19.1362 65.798 18.8911 65.4931 18.8911H65.0392V22.7081H66.0811V20.7539C66.0811 20.1984 66.3223 19.7096 66.7991 19.7156C67.2791 19.7217 67.4083 20.0065 67.4083 20.4189V22.7081H68.45V20.7539C68.45 20.1984 68.6727 19.7096 69.1495 19.7156C69.6296 19.7217 69.7798 20.0065 69.7798 20.4189V22.7081H70.8217V20.1764C70.8217 19.2991 70.1843 18.8314 69.4055 18.8314C68.9014 18.8314 68.5111 19.0727 68.2272 19.467C68.0099 19.024 67.6322 18.8314 67.087 18.8314ZM72.8817 18.8314C71.9768 18.8314 71.3523 19.2628 71.3522 20.0319C71.3521 20.4939 71.6889 20.8725 72.3561 21.0775C73.0233 21.2825 73.3052 21.3638 73.303 21.5891C73.3008 21.8143 73.1399 21.9577 72.6708 21.9577C72.2016 21.9577 71.7222 21.7493 71.3806 21.4409V22.3814C71.6358 22.5722 72.1242 22.7705 72.7133 22.7705C73.7151 22.7705 74.2969 22.333 74.3016 21.5283C74.3046 21.013 73.9546 20.6739 73.4283 20.4897C72.902 20.3055 72.3588 20.2468 72.358 19.9681C72.3572 19.733 72.5324 19.6286 72.9203 19.6323C73.4093 19.6371 73.8557 19.7972 74.0692 20.0088V19.1338C73.8702 19.0186 73.5122 18.8314 72.8817 18.8314ZM76.5128 18.8314C75.3514 18.8287 74.5886 19.6584 74.5886 20.8448C74.5886 22.1779 75.6282 22.7705 76.6387 22.7705C77.2509 22.7705 77.7242 22.5484 77.9661 22.3973V21.4967C77.7982 21.6392 77.2855 21.9212 76.7716 21.9231C76.179 21.9253 75.6896 21.6734 75.5833 21.098H78.1977C78.2102 20.9981 78.2331 20.8596 78.2327 20.7016C78.2291 19.5343 77.4462 18.8336 76.5128 18.8314ZM42.9012 19.2331C42.7499 19.2331 42.6417 19.3412 42.6417 19.4925V22.1733C42.6417 22.316 42.7586 22.4328 42.9012 22.4328C43.0526 22.4328 43.165 22.316 43.165 22.1733V22.0566C43.325 22.2684 43.5628 22.4588 43.9433 22.4588C44.4838 22.4588 45.0027 22.0351 45.0027 21.2741V21.2653C45.0027 20.5043 44.4794 20.0806 43.9433 20.0806C43.5671 20.0806 43.3336 20.2708 43.165 20.5086V19.4925C43.165 19.3412 43.0526 19.2331 42.9012 19.2331ZM53.1541 19.6033C53.6699 19.5992 53.8989 20.0417 53.9055 20.3833H52.2803C52.4157 19.7839 52.809 19.606 53.1541 19.6033ZM76.4836 19.6033C76.9994 19.5992 77.2285 20.0417 77.235 20.3833H75.6098C75.7453 19.7839 76.1386 19.606 76.4836 19.6033ZM62.5553 19.7306C63.1169 19.7306 63.5016 20.1602 63.5016 20.797C63.5016 21.4339 63.1037 21.8634 62.5553 21.8634C62.007 21.8634 61.5933 21.4538 61.5933 20.797C61.5933 20.1403 61.9937 19.7306 62.5553 19.7306ZM45.5777 20.1022C45.4263 20.1022 45.3183 20.206 45.3183 20.3573C45.3183 20.3963 45.327 20.4351 45.3486 20.4827L46.1959 22.3766L46.1787 22.4242C46.0923 22.6015 46.01 22.6663 45.8544 22.6663C45.7809 22.6663 45.7377 22.6534 45.6728 22.6361C45.6425 22.6231 45.6252 22.6188 45.5777 22.6188C45.4609 22.6188 45.3658 22.7008 45.3658 22.8348C45.3658 22.9602 45.448 23.0208 45.5302 23.0511C45.6383 23.0987 45.7419 23.1159 45.8933 23.1159C46.2608 23.1159 46.4684 22.9431 46.663 22.4761L47.4975 20.4741C47.5105 20.4438 47.5191 20.3963 47.5191 20.3488C47.5191 20.2104 47.4066 20.1022 47.2683 20.1022C47.1342 20.1022 47.0651 20.193 47.0175 20.3011L46.4467 21.8188L45.8328 20.3011C45.7853 20.18 45.7117 20.1022 45.5777 20.1022ZM43.8178 20.5345C44.1767 20.5345 44.4708 20.8243 44.4708 21.2653V21.2741C44.4708 21.7237 44.1767 22.0047 43.8178 22.0047C43.4589 22.0047 43.152 21.7108 43.152 21.2741V21.2653C43.152 20.8286 43.4589 20.5345 43.8178 20.5345Z" fill="#FF0025"/>
</g>
<defs>
<clipPath id="clip0_3802_17329">
<rect width="80" height="23.1159" fill="white"/>
</clipPath>
</defs>
</svg>
