<svg width="68" height="60" viewBox="0 0 68 60" fill="none" xmlns="http://www.w3.org/2000/svg">
<g clip-path="url(#clip0_3802_18257)">
<path fill-rule="evenodd" clip-rule="evenodd" d="M6.66599 1.62505H10.9188C11.2427 1.62505 11.4914 1.91112 11.4452 2.23041L9.47015 15.8845C9.3941 16.41 9.80333 16.8806 10.336 16.8806H17.7966C18.0085 16.8806 18.1709 17.0682 18.1401 17.2769L17.5613 21.1986C17.5313 21.4023 17.3559 21.5536 17.1489 21.5536H8.71308C6.20378 21.5536 3.79732 19.5027 4.15139 17.0269L6.13895 2.08536C6.17386 1.82197 6.3992 1.62505 6.66599 1.62505Z" fill="#E82529"/>
<path fill-rule="evenodd" clip-rule="evenodd" d="M20.8473 7.07328L18.9005 20.9982C18.8697 21.219 19.0417 21.4162 19.2655 21.4162H23.3809C23.6736 21.4162 23.9216 21.2013 23.9622 20.9125L25.8899 7.21398C25.931 6.89841 25.6845 6.61856 25.365 6.61856H21.3715C21.1072 6.61856 20.8837 6.81268 20.8473 7.07328Z" fill="#E82529"/>
<path fill-rule="evenodd" clip-rule="evenodd" d="M29.336 20.3485C28.0663 20.3029 27.4722 20.6995 26.7229 21.1449C26.9037 19.8894 28.3215 10.1058 28.4509 9.50478C28.5877 8.86401 28.7121 7.79492 29.2774 7.25571C29.9401 6.62271 30.9658 6.26054 36.0692 6.24408C41.2786 6.22731 42.2878 9.96354 42.0113 12.3912C41.7757 14.4691 41.0005 19.6031 40.7817 21.0374C40.7484 21.2555 40.5614 21.416 40.341 21.416H36.317C36.0221 21.416 35.7955 21.157 35.8367 20.8663C36.0402 19.4319 36.586 15.6081 36.7711 14.4977C37.0008 13.1242 37.1847 11.6128 36.8169 11.0162C36.4491 10.4207 35.3458 9.96354 33.2317 10.3301L31.668 21.348C31.668 21.348 30.6619 20.3963 29.336 20.3485Z" fill="#E82529"/>
<path fill-rule="evenodd" clip-rule="evenodd" d="M46.3757 0.834069H50.8395C51.0056 0.834069 51.1334 0.980361 51.1107 1.14436L48.333 21.1968C48.3124 21.3456 48.1846 21.4565 48.0338 21.4565H43.6267C43.4434 21.4565 43.3025 21.2953 43.3278 21.1145L46.1045 1.06981C46.1232 0.934703 46.2388 0.834069 46.3757 0.834069Z" fill="#E82529"/>
<path fill-rule="evenodd" clip-rule="evenodd" d="M49.8297 12.916L54.8745 7.0285C55.0335 6.84307 55.266 6.73622 55.511 6.73622H59.9396C60.2593 6.73622 60.4277 7.1136 60.2138 7.34997L55.0556 13.0548L59.771 23.1612C59.9439 23.532 59.6721 23.9563 59.262 23.9563H55.2591C55.05 23.9563 54.8602 23.8349 54.7729 23.6457L49.8297 12.916Z" fill="#E82529"/>
<path fill-rule="evenodd" clip-rule="evenodd" d="M26.7522 2.84791C26.3913 4.3652 25.0203 5.49423 23.5847 5.49423C22.1494 5.49423 21.0486 4.26425 21.4098 2.74727C21.7707 1.22998 22.9591 0 24.6625 0C26.0977 0 27.1132 1.33062 26.7522 2.84791Z" fill="#E82529"/>
<path fill-rule="evenodd" clip-rule="evenodd" d="M31.2895 24.9657C30.9286 26.483 29.5575 27.612 28.122 27.612C26.6867 27.612 25.5858 26.3821 25.9471 24.8651C26.308 23.3478 27.4964 22.1178 29.1997 22.1178C30.635 22.1178 31.6505 23.4484 31.2895 24.9657Z" fill="#E82529"/>
<path fill-rule="evenodd" clip-rule="evenodd" d="M52.882 43.0974C52.5778 44.5966 51.1924 45.712 49.6833 45.7111C48.1738 45.7105 46.9555 44.4941 47.2597 42.9952C47.5639 41.4959 48.7523 40.2808 50.5432 40.2818C52.0523 40.2827 53.1862 41.5981 52.882 43.0974Z" fill="#E82529"/>
<path fill-rule="evenodd" clip-rule="evenodd" d="M14.8862 35.6299H12.1837C12.0833 35.6299 12.0145 35.5292 12.0512 35.436L14.4031 29.4868C14.448 29.3734 14.6157 29.3976 14.6266 29.5188L15.1552 35.3363C15.1696 35.4938 15.0452 35.6299 14.8862 35.6299ZM21.4333 43.1008L18.4175 25.112C18.2857 24.3255 17.6025 23.7493 16.8024 23.7493H13.7764C12.8535 23.7493 12.0157 24.2864 11.6336 25.1234L3.50973 43.1231C3.39192 43.3843 3.58454 43.6791 3.87159 43.6776L8.09263 43.653C8.38155 43.6515 8.64149 43.4788 8.75431 43.2141L10.1575 39.9246C10.1955 39.8348 10.2837 39.7767 10.3816 39.7767H15.49C15.6153 39.7767 15.7203 39.8714 15.7324 39.9957L16.0373 43.1085C16.0725 43.4707 16.3782 43.7471 16.7435 43.7471H20.8838C21.2282 43.7471 21.49 43.439 21.4333 43.1008Z" fill="#E82529"/>
<path fill-rule="evenodd" clip-rule="evenodd" d="M19.4197 46.3593L20.3946 49.3606C20.5698 49.8545 20.7019 49.9641 21.0444 49.8921C22.2759 49.6333 25.2514 48.7571 26.7073 46.7944C28.6051 44.2357 28.8653 39.7121 29.2004 37.413C29.4762 35.5193 30.0803 30.8578 30.2847 29.2734C30.3215 28.9883 30.0986 28.7364 29.81 28.7364H26.026C25.6915 28.7364 25.4088 28.9824 25.364 29.3125C25.0588 31.5504 23.9599 39.5978 23.7679 40.7132C23.5447 42.0112 23.5001 43.8807 21.5734 44.9967C20.6118 45.5533 20.1188 45.6595 19.7382 45.8365C19.5447 45.9266 19.3259 46.0232 19.4197 46.3593Z" fill="#E82529"/>
<path fill-rule="evenodd" clip-rule="evenodd" d="M40.2443 39.43C40.2443 39.43 38.2711 40.0987 37.3239 39.3906C36.3764 38.6827 36.2975 37.2275 36.8501 35.1431C37.4027 33.0583 38.7841 32.7045 39.376 32.6651C39.9681 32.6257 41.0811 32.9049 41.0811 32.9049L40.2443 39.43ZM45.7083 29.2749C44.4323 28.9568 42.287 28.258 38.8383 28.5099C35.6564 28.7422 32.0634 30.2089 31.3905 36.4684C30.7176 42.728 33.5891 43.9353 37.7166 44.1142C40.7414 44.2453 43.1155 43.416 44.1683 42.9634C44.5348 42.8059 44.7901 42.4683 44.8437 42.0742L46.3687 30.0225C46.4286 29.5442 46.1886 29.3945 45.7083 29.2749Z" fill="#E82529"/>
<path fill-rule="evenodd" clip-rule="evenodd" d="M48.6514 38.2864L49.7619 26.746C49.8018 26.3326 50.15 26.1639 50.5667 26.1639H54.3975C54.7544 26.1639 54.9055 26.4338 54.807 26.8758L52.4688 38.4317C52.4215 38.6554 52.2239 38.8153 51.9945 38.8153H49.1336C48.8478 38.8153 48.624 38.57 48.6514 38.2864Z" fill="#E82529"/>
<path fill-rule="evenodd" clip-rule="evenodd" d="M3.82271 59.5664C4.58133 59.9842 5.46743 60.1056 6.31083 59.9065C9.67039 59.1132 17.1051 56.9778 32.832 54.7123C52.5904 51.866 67.1788 51.8778 67.1788 51.8778L67.2171 51.8545C67.2171 51.8545 54.2869 50.084 33.0658 52.1495C11.8443 54.2151 0 57.4611 0 57.4611L3.82271 59.5664Z" fill="#E82529"/>
</g>
<defs>
<clipPath id="clip0_3802_18257">
<rect width="67.2171" height="60" fill="white"/>
</clipPath>
</defs>
</svg>
