<svg width="80" height="25" viewBox="0 0 80 25" fill="none" xmlns="http://www.w3.org/2000/svg">
<g clip-path="url(#clip0_3802_9991)">
<path fill-rule="evenodd" clip-rule="evenodd" d="M13.2964 17.1355L14.4413 15.9906L15.604 17.1533L14.4591 18.2982L13.2964 17.1355ZM16.3927 17.1355L17.5376 15.9906L18.7016 17.1533L17.5567 18.2982L16.3927 17.1355ZM5.62166 8.8667L6.78438 7.70271L7.96619 8.88451L6.80347 10.0498L5.62166 8.86925V8.8667ZM12.3118 3.11161C10.3425 4.5313 9.42913 5.47013 9.10092 7.23711C8.55009 10.1986 9.78787 12.4528 9.92144 12.8815H7.58328C8.43433 13.4031 9.26884 14.6854 9.81458 14.7134C10.3896 14.7439 10.7051 14.735 10.7051 14.735C11.4556 16.2094 11.3602 18.0553 11.0053 18.9686C10.6122 19.9863 9.66193 21.1249 7.46751 20.4379C5.3049 19.7586 2.85225 18.0362 2.40319 15.5275C2.23018 14.5582 2.40319 13.2174 2.68433 12.6017C3.10159 11.7023 3.92465 10.7634 4.76807 9.58672C3.11431 10.9212 0.835938 13.4031 0.188427 15.8316C-0.558309 18.6582 1.05602 20.6657 2.54821 21.9123C4.04041 23.159 6.64572 23.72 7.92548 23.3117C9.24467 22.8982 9.56652 22.3792 10.3133 21.5129C11.2305 20.4443 11.9263 19.3172 12.1235 18.4878C12.4797 16.9879 12.1718 14.7134 12.1718 14.7134C12.1718 14.7134 15.5048 14.8406 17.0593 14.7439C18.1521 14.6752 20.3198 13.6143 20.4864 11.3868C20.6556 9.13512 18.2793 7.46609 16.4042 6.65321C17.5211 7.85918 17.7488 9.23435 17.3659 10.2508C16.9372 11.3957 15.8661 12.2862 14.6334 12.6373C13.724 12.8851 12.7742 12.9491 11.8398 12.8256C11.0765 11.6565 10.6504 6.36062 12.3118 3.11161ZM13.3129 2.7427C16.2388 3.25155 20.4203 5.52356 21.9303 8.79419C23.5739 12.3561 22.0333 16.0453 19.5718 18.5539C17.8188 20.3425 15.5391 20.99 14.2657 21.2661C13.3905 21.4518 12.8664 21.2203 12.383 21.378C11.2381 21.747 10.4634 23.1412 9.40241 24.0126C12.2876 24.1106 16.7693 24.4235 20.2752 21.9314C24.6475 18.8223 24.2404 12.7912 23.5013 10.2419C22.7622 7.69253 20.592 2.51244 15.4539 0C14.8433 1.17035 14.3433 1.90819 13.3129 2.7427Z" fill="#6FBD62"/>
<path fill-rule="evenodd" clip-rule="evenodd" d="M38.1308 9.7152H38.7821V9.17709C38.5417 9.27886 38.1181 9.2954 38.1181 8.92267V5.74236C38.1288 5.35554 38.0799 4.96938 37.973 4.59745C37.8961 4.33887 37.7578 4.10274 37.5698 3.90923C37.1449 3.49707 36.6335 3.45763 36.0903 3.43092C35.4341 3.39749 34.7783 3.50282 34.1656 3.74004L34.1567 4.35702C34.8347 4.07207 35.9733 3.79729 36.6907 4.1026C36.8894 4.17828 37.0618 4.31007 37.1869 4.48195C37.312 4.65383 37.3845 4.85837 37.3955 5.07068C37.4146 5.35945 37.4158 5.64568 37.4158 5.93445C35.743 5.60243 33.5791 5.77289 33.5995 7.93932C33.6002 8.29698 33.7059 8.64655 33.9036 8.94463C34.1012 9.24271 34.3821 9.47615 34.7113 9.61598C35.6616 9.99761 36.9388 9.83096 37.51 8.91376V9.0855C37.512 9.25177 37.579 9.41065 37.6967 9.52812C37.8144 9.64558 37.9734 9.71228 38.1397 9.71393L38.1308 9.7152ZM37.3611 7.73323C37.3421 8.31587 37.178 9.2865 35.7226 9.2865C35.534 9.29174 35.3462 9.2585 35.1709 9.18879C34.9955 9.11908 34.8362 9.01436 34.7026 8.88103C34.569 8.74771 34.464 8.58856 34.394 8.41331C34.324 8.23806 34.2904 8.05038 34.2953 7.86172C34.2953 6.00824 36.2608 6.25757 37.3815 6.46238L37.3611 7.73323Z" fill="#420655"/>
<path fill-rule="evenodd" clip-rule="evenodd" d="M40.8238 3.54159H39.5377V4.0708H40.1903V9.72538H40.834V5.60498C40.8238 4.69287 41.9789 3.90542 42.8796 3.96521C43.2282 3.98811 43.7205 4.18274 43.9507 4.48805C44.181 4.79336 44.237 5.31112 44.237 5.70675V9.72538H44.9443V5.64823C44.9443 4.23363 44.2675 3.48562 42.8134 3.43092C41.9726 3.40293 41.147 3.72987 40.8238 4.41427V3.54159Z" fill="#420655"/>
<path fill-rule="evenodd" clip-rule="evenodd" d="M51.6573 9.172C50.8762 9.21526 51.0568 9.36155 49.3115 6.17234L51.2197 3.55049H50.4335L48.6881 5.9917H47.6323C47.6323 4.34896 47.6323 2.70665 47.6323 1.06477H46.2698V1.81659H46.9059V9.72538H47.6373V6.52217L48.7034 6.54125C50.7388 9.97599 50.3228 9.72156 51.6586 9.67068L51.6573 9.172Z" fill="#420655"/>
<path fill-rule="evenodd" clip-rule="evenodd" d="M26.4552 1.66394V2.22113H27.1905V9.72666H29.862C30.5311 9.72666 31.1557 9.61344 31.6989 9.13258C32.1798 8.70641 32.3579 8.1047 32.3579 7.43047C32.3579 6.4662 31.8236 5.72583 30.872 5.46759C31.2027 5.30048 31.4782 5.04181 31.6659 4.72242C31.8536 4.40303 31.9454 4.0364 31.9305 3.66626C31.9305 2.42339 30.9128 1.66521 29.7144 1.66521L26.4552 1.66394ZM27.9551 5.27168V2.22622H29.6406C30.8364 2.28092 31.1201 2.92207 31.1201 3.76167C31.129 4.70304 30.68 5.27422 29.7093 5.27422L27.9551 5.27168ZM27.9551 9.12621V5.87721H29.7157C30.9585 5.87721 31.5297 6.25885 31.5297 7.4292C31.5297 8.66189 30.8046 9.12621 29.8569 9.12621H27.9551Z" fill="#420655"/>
<path fill-rule="evenodd" clip-rule="evenodd" d="M40.53 21.1376C40.1827 21.6464 39.4385 21.8309 38.7796 21.8309C37.2848 21.8309 36.5966 20.9646 36.5966 19.5487V15.5962H37.8318V19.4927C37.8318 20.1352 37.9234 20.9519 39.0289 20.9519C39.665 20.9519 40.2896 20.8247 40.4931 19.807V15.5962H41.6953V20.471C41.7118 20.9582 41.8288 21.0625 42.4318 20.8094V21.5103C42.1164 21.78 40.8506 22.0281 40.53 21.1376Z" fill="#420655"/>
<path fill-rule="evenodd" clip-rule="evenodd" d="M67.1148 14.0163H66.3936V13.0723H68.3373V20.5499C68.3373 21.0091 68.6413 21.0854 69.1095 20.8145V21.5307C68.5548 21.9759 67.1212 21.9123 67.1148 20.8361V14.0163Z" fill="#420655"/>
<path fill-rule="evenodd" clip-rule="evenodd" d="M77.1125 16.5083H76.1469V15.6255H77.1125V14.0989L78.3401 13.66V15.628H79.7394V16.5109H78.3401V19.9965C78.3362 20.1457 78.3477 20.2949 78.3744 20.4417C78.5347 21.1707 79.5486 21.0027 80.0091 20.658V21.4989C79.1046 22.0319 77.3847 22.0612 77.1544 20.7127C77.1245 20.4594 77.1105 20.2045 77.1125 19.9494V16.5083Z" fill="#420655"/>
<path fill-rule="evenodd" clip-rule="evenodd" d="M48.1882 20.5473C48.1882 21.1147 48.697 20.9633 48.968 20.7661V21.5459C48.3167 21.9276 47.4834 21.9021 47.0153 21.2572C46.4555 22.0306 44.0372 22.1655 43.4813 20.7636C42.718 18.8236 44.0818 17.0566 47.014 17.9077C47.0484 15.5988 44.7763 16.3392 43.8248 16.8823L43.8528 15.9486C44.7903 15.2935 46.6515 15.3265 47.5826 16.0758C47.8043 16.2609 47.9736 16.5008 48.0737 16.7717C48.2073 17.1062 48.1882 17.4955 48.1882 17.853V20.5473ZM47.0153 18.7104C44.4405 18.0247 44.2319 19.6658 44.7318 20.5321C45.2559 21.4467 47.0331 20.9824 47.0153 19.7904V18.7104Z" fill="#420655"/>
<path fill-rule="evenodd" clip-rule="evenodd" d="M51.0873 16.3188C51.357 15.8557 52.0834 15.4817 52.7411 15.4817C53.6316 15.4817 54.5742 15.7362 54.8923 16.4816C55.1149 15.7807 56.0791 15.3952 56.8615 15.4538C58.3219 15.5632 58.9223 16.3684 58.9223 17.7105V21.7215H57.6502V17.7665C57.668 15.7832 55.106 16.3023 55.1136 17.6978V21.7215H53.9229V17.7665C53.9229 15.8456 51.4257 16.2399 51.4041 17.6062V21.7215H50.1421V16.5058H49.3674V15.5937L50.8558 15.5797L51.0873 16.3188Z" fill="#420655"/>
<path fill-rule="evenodd" clip-rule="evenodd" d="M33.789 16.1038L31.5005 21.677H30.7041L28.2629 16.0885V21.6948H27.1473V13.7695H28.4575L31.129 19.9965L33.6745 13.7695H34.911V21.6948H33.789V16.1038Z" fill="#420655"/>
<path fill-rule="evenodd" clip-rule="evenodd" d="M65.1812 20.5473C65.1812 21.1147 65.69 20.9633 65.9623 20.7661V21.5459C65.3109 21.9276 64.4764 21.9021 64.0083 21.2572C63.4486 22.0306 61.0302 22.1655 60.4756 20.7636C59.7123 18.8236 61.076 17.0566 64.0083 17.9077C64.0426 15.5988 61.7694 16.3392 60.8178 16.8823L60.8471 15.9486C61.7846 15.2935 63.6457 15.3265 64.5769 16.0758C64.7978 16.2616 64.967 16.5013 65.068 16.7717C65.1952 17.1062 65.1812 17.4955 65.1812 17.853V20.5473ZM64.0083 18.7104C61.4348 18.0247 61.2249 19.6658 61.7261 20.5321C62.2489 21.4467 64.0274 20.9824 64.0083 19.7904V18.7104Z" fill="#420655"/>
<path fill-rule="evenodd" clip-rule="evenodd" d="M74.9269 20.5473C74.9269 21.1147 75.4358 20.9633 75.708 20.7661V21.5459C75.0567 21.9276 74.2222 21.9021 73.754 21.2572C73.1943 22.0306 70.776 22.1655 70.2214 20.7636C69.4581 18.8236 70.8218 17.0566 73.754 17.9077C73.7884 15.5988 71.5151 16.3392 70.5636 16.8823L70.5928 15.9486C71.5304 15.2935 73.3915 15.3265 74.3227 16.0758C74.5436 16.2616 74.7127 16.5013 74.8137 16.7717C74.9409 17.1062 74.9269 17.4955 74.9269 17.853V20.5473ZM73.754 18.7104C71.1806 18.0247 70.9707 19.6658 71.4719 20.5321C71.9947 21.4467 73.7731 20.9824 73.754 19.7904V18.7104Z" fill="#420655"/>
</g>
<defs>
<clipPath id="clip0_3802_9991">
<rect width="80.0091" height="24.0796" fill="white"/>
</clipPath>
</defs>
</svg>
