<svg width="81" height="60" viewBox="0 0 81 60" fill="none" xmlns="http://www.w3.org/2000/svg">
<g clip-path="url(#clip0_3802_18066)">
<path fill-rule="evenodd" clip-rule="evenodd" d="M26.4379 2.90172C31.8084 2.90172 36.1886 7.30957 36.1886 12.7169C36.1886 18.1196 31.8084 22.5321 26.4379 22.5321C21.0674 22.5321 16.6872 18.1242 16.6872 12.7169C16.6872 7.31418 21.0674 2.90172 26.4379 2.90172ZM26.4379 1.00409C32.8493 1.00409 38.0724 6.26403 38.0724 12.7169C38.0724 19.1652 32.8447 24.4297 26.4379 24.4297C20.0265 24.4297 14.8034 19.1698 14.8034 12.7169C14.8034 6.26403 20.0311 1.00409 26.4379 1.00409ZM26.4379 1.68115C32.4763 1.68115 37.4 6.63711 37.4 12.7169C37.4 18.7967 32.4716 23.7527 26.4379 23.7527C20.3996 23.7527 15.4712 18.7967 15.4712 12.7169C15.4712 6.63711 20.3996 1.68115 26.4379 1.68115Z" fill="#00AEEF"/>
<path fill-rule="evenodd" clip-rule="evenodd" d="M12.1504 41.3933H0.0184465V14.0941C0.0184465 5.32903 6.13048 0 21.7261 0C18.2302 0 12.1504 4.15453 12.1504 10.6949V41.3933Z" fill="#009B4C"/>
<path fill-rule="evenodd" clip-rule="evenodd" d="M40.7392 41.3933H52.8712V14.0941C52.8712 5.32904 46.7591 3.71906e-06 31.1635 3.71906e-06C34.6594 3.71906e-06 40.7392 4.15453 40.7392 10.6949V41.3933Z" fill="#009B4C"/>
<path fill-rule="evenodd" clip-rule="evenodd" d="M54.2944 41.3933H66.4264V14.0941C66.4264 5.32904 58.4904 3.71906e-06 42.2592 3.71906e-06C45.7551 3.71906e-06 54.299 3.87818 54.299 12.1642V41.3933H54.2944Z" fill="#009B4C"/>
<path fill-rule="evenodd" clip-rule="evenodd" d="M67.845 41.3933H79.977V14.0941C79.977 5.32903 69.669 0 54.0734 0C58.7576 0 67.845 4.61512 67.845 12.3484V41.3933Z" fill="#009B4C"/>
<path d="M2.64379 52.5027V46.2065H0.409929V44.926H6.393V46.2065H4.16374V52.5027H2.64379ZM7.328 52.5027V44.926H8.84795V52.5027H7.328ZM10.2988 52.5027V44.926H13.4999C14.306 44.926 14.8863 44.9951 15.2548 45.1287C15.6186 45.2623 15.9134 45.5064 16.1299 45.8518C16.351 46.2019 16.4569 46.598 16.4569 47.0447C16.4569 47.6113 16.2911 48.0857 15.9595 48.4541C15.6278 48.8226 15.1304 49.0575 14.4718 49.1542C14.8034 49.3477 15.0751 49.5596 15.287 49.7899C15.4989 50.0202 15.7891 50.4301 16.1529 51.0196L17.0741 52.4981H15.2548L14.154 50.8492C13.7625 50.2597 13.4953 49.8912 13.3525 49.7346C13.2097 49.5826 13.0577 49.4767 12.8965 49.4168C12.7353 49.3615 12.482 49.3339 12.132 49.3339H11.8234V52.4981H10.3034L10.2988 52.5027ZM11.8188 48.1271H12.9426C13.6703 48.1271 14.1263 48.0949 14.3106 48.035C14.4902 47.9751 14.633 47.8646 14.7343 47.7126C14.8356 47.5606 14.8863 47.3718 14.8863 47.1461C14.8863 46.8881 14.8172 46.6855 14.6836 46.5289C14.5501 46.3723 14.3566 46.2709 14.1125 46.2295C13.9881 46.2157 13.6197 46.2065 13.0025 46.2065H11.8188V48.1271ZM19.5797 52.5027V46.2065H17.3458V44.926H23.3289V46.2065H21.0997V52.5027H19.5797ZM28.6672 52.5027L28.0085 50.7801H25.0009L24.3791 52.5027H22.767L25.701 44.926H27.3084L30.3253 52.5027H28.6672ZM27.5203 49.5043L26.484 46.6901L25.4661 49.5043H27.5203ZM33.6508 44.926H36.4281C37.0545 44.926 37.5289 44.9721 37.8606 45.0688C38.3027 45.1978 38.6804 45.4327 38.9936 45.7689C39.3068 46.1005 39.5509 46.5105 39.7121 46.9941C39.8733 47.4777 39.9562 48.0765 39.9562 48.7858C39.9562 49.4076 39.8779 49.9465 39.7259 50.3978C39.5371 50.9459 39.27 51.3927 38.9199 51.7336C38.6574 51.9915 38.3027 52.1941 37.8513 52.3369C37.5151 52.4429 37.0683 52.4981 36.5064 52.4981H33.6462V44.9214L33.6508 44.926ZM35.1707 46.2065V51.2223H36.3038C36.7275 51.2223 37.0361 51.1993 37.2249 51.1486C37.4691 51.0887 37.6763 50.9828 37.8375 50.8354C37.9987 50.688 38.1323 50.4439 38.2336 50.1031C38.335 49.7622 38.3902 49.3016 38.3902 48.7167C38.3902 48.1317 38.3396 47.685 38.2336 47.3672C38.1323 47.054 37.9849 46.8098 37.8007 46.6348C37.6164 46.4598 37.3815 46.34 37.096 46.2802C36.8841 46.2295 36.4696 46.2065 35.8478 46.2065H35.1661H35.1707ZM41.2551 52.5027V44.926H42.7751V47.906H45.7551V44.926H47.275V52.5027H45.7551V49.1911H42.7751V52.5027H41.2551ZM53.9812 52.5027L53.3226 50.7801H50.3149L49.6931 52.5027H48.0811L51.015 44.926H52.6225L55.6394 52.5027H53.9812ZM52.8344 49.5043L51.798 46.6901L50.7801 49.5043H52.8344ZM56.4454 52.5027V44.926H59.6465C60.4525 44.926 61.0329 44.9951 61.4013 45.1287C61.7652 45.2623 62.06 45.5064 62.2765 45.8518C62.4976 46.2019 62.6035 46.598 62.6035 47.0447C62.6035 47.6113 62.4377 48.0857 62.1061 48.4541C61.7744 48.8226 61.277 49.0575 60.6183 49.1542C60.95 49.3477 61.2171 49.5596 61.4336 49.7899C61.6455 50.0202 61.9356 50.4301 62.2995 51.0196L63.2207 52.4981H61.4013L60.3005 50.8492C59.909 50.2597 59.6419 49.8912 59.4991 49.7346C59.3563 49.5826 59.2043 49.4767 59.0431 49.4168C58.8819 49.3615 58.6286 49.3339 58.2785 49.3339H57.9699V52.4981H56.45L56.4454 52.5027ZM57.9653 48.1271H59.0892C59.8169 48.1271 60.2729 48.0949 60.4571 48.035C60.6368 47.9751 60.7796 47.8646 60.8809 47.7126C60.9822 47.5606 61.0329 47.3718 61.0329 47.1461C61.0329 46.8881 60.9638 46.6855 60.8302 46.5289C60.6966 46.3723 60.5032 46.2709 60.2591 46.2295C60.1347 46.2157 59.7663 46.2065 59.1491 46.2065H57.9653V48.1271ZM64.0129 52.5027V44.926H66.2882L67.6516 50.0938L69.0011 44.926H71.281V52.5027H69.8716V46.5381L68.3747 52.5027H66.91L65.4177 46.5381V52.5027H64.0083H64.0129ZM77.9273 52.5027L77.2687 50.7801H74.261L73.6392 52.5027H72.0272L74.9611 44.926H76.5686L79.5855 52.5027H77.9273ZM76.7805 49.5043L75.7441 46.6901L74.7262 49.5043H76.7805Z" fill="#00AEEF"/>
<path d="M0 59.8169V56.4684H1.08699C1.49692 56.4684 1.76406 56.4869 1.88842 56.5191C2.08187 56.5698 2.24308 56.6803 2.37204 56.8461C2.50101 57.0165 2.56549 57.233 2.56549 57.5002C2.56549 57.7074 2.52864 57.8778 2.45495 58.0206C2.38125 58.1588 2.28453 58.2693 2.16938 58.3523C2.05423 58.4306 1.93909 58.4858 1.81933 58.5089C1.65813 58.5411 1.42323 58.5549 1.11924 58.5549H0.677068V59.8169H0ZM0.677068 57.035V57.9884H1.04554C1.31268 57.9884 1.48771 57.97 1.57983 57.9331C1.66734 57.8963 1.74103 57.8456 1.7917 57.7673C1.84236 57.6936 1.87 57.6061 1.87 57.5048C1.87 57.3804 1.83315 57.2837 1.76406 57.2008C1.69037 57.1225 1.60286 57.0718 1.49231 57.0488C1.41401 57.035 1.2482 57.0258 1.00869 57.0258H0.681674L0.677068 57.035ZM3.1182 59.8169V56.4684H5.59618V57.035H3.79527V57.7811H5.47182V58.3476H3.79527V59.255H5.66066V59.8215H3.11359L3.1182 59.8169ZM6.241 56.4684H7.66423C8.02349 56.4684 8.28142 56.5007 8.44263 56.5606C8.60383 56.6204 8.73741 56.7264 8.83413 56.883C8.93085 57.0396 8.98152 57.2146 8.98152 57.4126C8.98152 57.666 8.90782 57.8732 8.76044 58.0344C8.61305 58.2003 8.39196 58.3016 8.10179 58.343C8.24918 58.4259 8.36893 58.5227 8.46105 58.624C8.55778 58.7253 8.68213 58.9096 8.84334 59.1675L9.25327 59.8215H8.44263L7.95901 59.0892C7.78398 58.8313 7.66423 58.6655 7.59975 58.5964C7.53526 58.5273 7.46618 58.4812 7.39709 58.4582C7.32339 58.4352 7.21285 58.4213 7.05625 58.4213H6.91807V59.8215H6.241V56.4684ZM6.91807 57.8825H7.42012C7.74253 57.8825 7.94519 57.8686 8.0281 57.841C8.1064 57.8134 8.17088 57.7673 8.21694 57.6982C8.263 57.6291 8.28603 57.5462 8.28603 57.4449C8.28603 57.3297 8.25379 57.2422 8.19391 57.1731C8.13403 57.1041 8.05113 57.058 7.94058 57.0442C7.88531 57.035 7.7195 57.0304 7.44775 57.0304H6.91807V57.8825ZM9.61713 56.4638H10.2942V58.2786C10.2942 58.5687 10.3034 58.753 10.3172 58.8405C10.3449 58.9787 10.414 59.0892 10.5199 59.1721C10.6304 59.255 10.7778 59.2965 10.9621 59.2965C11.1509 59.2965 11.2937 59.2596 11.3904 59.1767C11.4871 59.0984 11.547 59.0017 11.5654 58.8865C11.5839 58.7714 11.5931 58.5825 11.5931 58.3154V56.4592H12.2701V58.2233C12.2701 58.624 12.2517 58.9096 12.2149 59.0754C12.178 59.2412 12.1089 59.384 12.0122 59.4945C11.9155 59.6097 11.7819 59.7018 11.6207 59.7663C11.4549 59.8354 11.243 59.8676 10.9759 59.8676C10.6581 59.8676 10.414 59.8308 10.2527 59.7571C10.0869 59.6834 9.95797 59.5866 9.86125 59.4669C9.76452 59.3471 9.70465 59.2274 9.6724 59.0938C9.62635 58.9004 9.60792 58.6194 9.60792 58.2417V56.4546L9.61713 56.4638ZM12.8182 58.7299L13.4769 58.6655C13.5183 58.8865 13.5966 59.0477 13.7164 59.1537C13.8361 59.255 14.002 59.3103 14.2046 59.3103C14.4211 59.3103 14.5869 59.2642 14.6974 59.1721C14.808 59.08 14.8633 58.9741 14.8633 58.8497C14.8633 58.7714 14.8402 58.7023 14.7942 58.647C14.7481 58.5918 14.6652 58.5411 14.5501 58.5042C14.4718 58.4766 14.2921 58.4259 14.0112 58.3569C13.6519 58.2647 13.3986 58.1542 13.2512 58.0252C13.0439 57.841 12.9426 57.6153 12.9426 57.3482C12.9426 57.1777 12.9887 57.0165 13.0854 56.8692C13.1821 56.7218 13.3203 56.6066 13.5045 56.5283C13.6841 56.45 13.9052 56.4132 14.1632 56.4132C14.5823 56.4132 14.8955 56.5053 15.1074 56.6941C15.3192 56.8784 15.4298 57.1271 15.439 57.4403L14.7619 57.4633C14.7343 57.2883 14.6698 57.1639 14.5777 57.0902C14.481 57.0165 14.3428 56.9751 14.154 56.9751C13.9605 56.9751 13.8039 57.0165 13.698 57.0948C13.6289 57.1455 13.592 57.2146 13.592 57.3021C13.592 57.3804 13.6243 57.4495 13.6934 57.5048C13.7763 57.5785 13.9835 57.6522 14.3152 57.7305C14.6422 57.8088 14.8863 57.8871 15.0429 57.97C15.1995 58.0529 15.3239 58.168 15.4114 58.3108C15.4989 58.4536 15.5449 58.6332 15.5449 58.8451C15.5449 59.0385 15.4897 59.2182 15.3837 59.384C15.2778 59.5498 15.1258 59.6788 14.9324 59.7571C14.7389 59.84 14.4948 59.8814 14.2046 59.8814C13.7809 59.8814 13.4539 59.7847 13.2282 59.5866C13.0025 59.3932 12.8643 59.1076 12.8228 58.7345L12.8182 58.7299ZM19.1375 59.8169H18.4052L18.115 59.0524H16.7701L16.4938 59.8169H15.7752L17.0741 56.4684H17.7926L19.1329 59.8169H19.1375ZM17.8986 58.4858L17.4334 57.2468L16.982 58.4858H17.8986ZM19.5014 59.8169V56.4684H20.1785V57.7903H21.5004V56.4684H22.1774V59.8169H21.5004V58.3523H20.1785V59.8169H19.5014ZM25.899 59.8169H25.1667L24.8765 59.0524H23.5316L23.2552 59.8169H22.5367L23.8356 56.4684H24.5541L25.8944 59.8169H25.899ZM24.66 58.4858L24.1948 57.2468L23.7435 58.4858H24.66ZM29.2798 59.8169H28.5474L28.2572 59.0524H26.9123L26.636 59.8169H25.9174L27.2163 56.4684H27.9348L29.2751 59.8169H29.2798ZM28.0408 58.4858L27.5756 57.2468L27.1242 58.4858H28.0408ZM29.6436 59.8169V56.4684H30.3023L31.6794 58.7161V56.4684H32.3058V59.8169H31.6288L30.27 57.6153V59.8169H29.6436ZM34.3232 56.4684H35.5576C35.834 56.4684 36.0504 56.4915 36.1932 56.5329C36.3913 56.5928 36.5571 56.6941 36.6953 56.8415C36.8334 56.9889 36.9394 57.1685 37.0131 57.385C37.0868 57.5969 37.1236 57.864 37.1236 58.1772C37.1236 58.4536 37.0914 58.6885 37.0223 58.8911C36.9394 59.1353 36.8196 59.3333 36.663 59.4853C36.5479 59.6005 36.3867 59.688 36.1886 59.7524C36.0412 59.7985 35.8386 59.8215 35.5898 59.8215H34.3186V56.473L34.3232 56.4684ZM35.0003 57.035V59.255H35.5023C35.6912 59.255 35.8247 59.2458 35.9076 59.2228C36.0182 59.1951 36.1103 59.1491 36.1794 59.0846C36.2531 59.0201 36.3084 58.9096 36.3544 58.7622C36.4005 58.6102 36.4235 58.4075 36.4235 58.1496C36.4235 57.8917 36.4005 57.6936 36.3544 57.5554C36.3084 57.4173 36.2439 57.3067 36.1656 57.233C36.0827 57.1547 35.9813 57.1041 35.8524 57.0764C35.7603 57.0534 35.576 57.0442 35.2997 57.0442H34.9957L35.0003 57.035ZM40.7208 59.8169H39.9885L39.6983 59.0524H38.3534L38.077 59.8169H37.3585L38.6574 56.4684H39.3759L40.7162 59.8169H40.7208ZM39.4818 58.4858L39.0166 57.2468L38.5653 58.4858H39.4818ZM41.0847 59.8169V56.4684H43.5627V57.035H41.7618V57.7811H43.4383V58.3476H41.7618V59.255H43.6272V59.8215H41.0801L41.0847 59.8169ZM44.2075 56.4684H45.6307C45.99 56.4684 46.2479 56.5007 46.4091 56.5606C46.5703 56.6204 46.7039 56.7264 46.8006 56.883C46.8973 57.0396 46.948 57.2146 46.948 57.4126C46.948 57.666 46.8743 57.8732 46.7269 58.0344C46.5795 58.2003 46.3585 58.3016 46.0683 58.343C46.2157 58.4259 46.3354 58.5227 46.4275 58.624C46.5243 58.7253 46.6486 58.9096 46.8098 59.1675L47.2198 59.8215H46.4091L45.9255 59.0892C45.7505 58.8313 45.6307 58.6655 45.5662 58.5964C45.5018 58.5273 45.4327 58.4812 45.3636 58.4582C45.2899 58.4352 45.1793 58.4213 45.0227 58.4213H44.8846V59.8215H44.2075V56.4684ZM44.8846 57.8825H45.3866C45.709 57.8825 45.9117 57.8686 45.9946 57.841C46.0729 57.8134 46.1374 57.7673 46.1834 57.6982C46.2295 57.6291 46.2525 57.5462 46.2525 57.4449C46.2525 57.3297 46.2203 57.2422 46.1604 57.1731C46.1005 57.1041 46.0176 57.058 45.9071 57.0442C45.8518 57.035 45.686 57.0304 45.4142 57.0304H44.8846V57.8825ZM50.6051 59.8169H49.8728L49.5826 59.0524H48.2377L47.9613 59.8169H47.2428L48.5417 56.4684H49.2602L50.6005 59.8169H50.6051ZM49.3661 58.4858L48.9009 57.2468L48.4495 58.4858H49.3661ZM50.969 59.8169V56.4684H51.646V57.7903H52.9679V56.4684H53.645V59.8169H52.9679V58.3523H51.646V59.8169H50.969ZM58.495 59.8169H57.7627L57.4725 59.0524H56.1276L55.8512 59.8169H55.1327L56.4316 56.4684H57.1501L58.4904 59.8169H58.495ZM57.256 58.4858L56.7908 57.2468L56.3395 58.4858H57.256ZM58.8359 59.8169V56.4684H59.5129V59.8169H58.8359ZM60.1578 56.4684H61.581C61.9402 56.4684 62.1982 56.5007 62.3594 56.5606C62.5206 56.6204 62.6542 56.7264 62.7509 56.883C62.8476 57.0396 62.8983 57.2146 62.8983 57.4126C62.8983 57.666 62.8246 57.8732 62.6772 58.0344C62.5298 58.2003 62.3087 58.3016 62.0185 58.343C62.1659 58.4259 62.2857 58.5227 62.3778 58.624C62.4745 58.7253 62.5989 58.9096 62.7601 59.1675L63.17 59.8215H62.3594L61.8758 59.0892C61.7007 58.8313 61.581 58.6655 61.5165 58.5964C61.452 58.5273 61.3829 58.4812 61.3138 58.4582C61.2401 58.4352 61.1296 58.4213 60.973 58.4213H60.8348V59.8215H60.1578V56.4684ZM60.8348 57.8825H61.3369C61.6593 57.8825 61.8619 57.8686 61.9448 57.841C62.0231 57.8134 62.0876 57.7673 62.1337 57.6982C62.1797 57.6291 62.2028 57.5462 62.2028 57.4449C62.2028 57.3297 62.1705 57.2422 62.1107 57.1731C62.0508 57.1041 61.9679 57.058 61.8573 57.0442C61.8021 57.035 61.6362 57.0304 61.3645 57.0304H60.8348V57.8825ZM64.8281 59.8169V56.4684H65.846L66.4448 58.753L67.039 56.4684H68.0569V59.8169H67.4305V57.1777L66.7718 59.8169H66.1178L65.4592 57.1777L65.4545 59.8169H64.8281ZM68.7109 59.8169V56.4684H69.388V59.8169H68.7109ZM70.0328 59.8169V56.4684H70.6915L72.0686 58.7161V56.4684H72.695V59.8169H72.018L70.6592 57.6153V59.8169H70.0328ZM73.4136 56.4684H74.0906V58.2832C74.0906 58.5733 74.0998 58.7576 74.1136 58.8451C74.1413 58.9833 74.2104 59.0938 74.3163 59.1767C74.4268 59.2596 74.5742 59.3011 74.7585 59.3011C74.9473 59.3011 75.0901 59.2642 75.1868 59.1813C75.2835 59.103 75.3434 59.0063 75.3618 58.8911C75.3803 58.776 75.3895 58.5872 75.3895 58.32V56.4638H76.0666V58.2279C76.0666 58.6286 76.0481 58.9142 76.0113 59.08C75.9744 59.2458 75.9053 59.3886 75.8086 59.4991C75.7119 59.6143 75.5783 59.7064 75.4171 59.7709C75.2513 59.84 75.0394 59.8722 74.7723 59.8722C74.4545 59.8722 74.2104 59.8354 74.0492 59.7617C73.8834 59.688 73.7544 59.5912 73.6577 59.4715C73.5609 59.3517 73.5011 59.232 73.4688 59.0984C73.4228 58.905 73.4043 58.624 73.4043 58.2463V56.4592L73.4136 56.4684ZM76.7851 59.8169V56.4684H77.803L78.4017 58.753L78.9959 56.4684H80.0138V59.8169H79.3874V57.1777L78.7288 59.8169H78.0747L77.4161 57.1777L77.4115 59.8169H76.7851Z" fill="#00AEEF"/>
</g>
<defs>
<clipPath id="clip0_3802_18066">
<rect width="80.0138" height="59.8814" fill="white"/>
</clipPath>
</defs>
</svg>
