<svg width="80" height="80" viewBox="0 0 80 80" fill="none" xmlns="http://www.w3.org/2000/svg">
<g clip-path="url(#clip0_3802_18145)">
<path d="M80 0H0V80.0001H80V0Z" fill="#F7E82E"/>
<path fill-rule="evenodd" clip-rule="evenodd" d="M16.1279 28.9913C18.2726 27.8077 21.2763 26.8746 23.6818 26.8746C28.2755 26.8746 29.3389 28.9913 31.5962 28.9913C33.8534 28.9913 36.172 26.8746 40.3464 26.8746C44.1451 26.8746 46.1518 28.9913 49.5262 28.9913C52.9082 28.9913 52.2052 26.8746 56.9651 26.8746C61.7019 26.8746 63.8697 28.9913 63.8697 28.9913V34.3877C63.8697 34.3877 61.3415 32.1355 57.3664 32.0819C53.422 32.0358 53.5268 34.3877 49.5364 34.3877C45.5434 34.3877 45.2239 32.0819 40.5356 32.0819C35.8499 32.0819 35.1418 34.3877 31.522 34.3877C27.8921 34.3877 27.2121 31.9873 23.4313 32.0358C19.6505 32.0819 16.1279 34.3877 16.1279 34.3877V28.9913Z" fill="#28A8E0"/>
<path fill-rule="evenodd" clip-rule="evenodd" d="M16.1279 41.576C18.2726 40.3899 21.2763 39.4619 23.6818 39.4619C28.2755 39.4619 29.3389 41.576 31.5962 41.576C33.8534 41.576 36.172 39.4619 40.3464 39.4619C44.1451 39.4619 46.1518 41.576 49.5262 41.576C52.9082 41.576 52.2052 39.4619 56.9651 39.4619C61.7019 39.4619 63.8697 41.576 63.8697 41.576V46.975C63.8697 46.975 61.3415 44.7075 57.3664 44.6666C53.422 44.6283 53.5268 46.975 49.5364 46.975C45.5434 46.975 45.2239 44.6666 40.5356 44.6666C35.8499 44.6666 35.1418 46.975 31.522 46.975C27.8921 46.975 27.2121 44.5797 23.4313 44.6283C19.6505 44.6666 16.1279 46.975 16.1279 46.975V41.576Z" fill="#28A8E0"/>
<path fill-rule="evenodd" clip-rule="evenodd" d="M16.1279 54.1506C18.2726 52.9593 21.2763 52.0339 23.6818 52.0339C28.2755 52.0339 29.3389 54.1506 31.5962 54.1506C33.8534 54.1506 36.172 52.0339 40.3464 52.0339C44.1451 52.0339 46.1518 54.1506 49.5262 54.1506C52.9082 54.1506 52.2052 52.0339 56.9651 52.0339C61.7019 52.0339 63.8697 54.1506 63.8697 54.1506V59.5648C63.8697 59.5648 61.3415 57.2948 57.3664 57.2463C53.422 57.2054 53.5268 59.5648 49.5364 59.5648C45.5434 59.5648 45.2239 57.2463 40.5356 57.2463C35.8499 57.2463 35.1418 59.5648 31.522 59.5648C27.8921 59.5648 27.2121 57.1619 23.4313 57.2054C19.6505 57.2463 16.1279 59.5648 16.1279 59.5648V54.1506Z" fill="#28A8E0"/>
<path fill-rule="evenodd" clip-rule="evenodd" d="M37.7364 71.6051L43.7923 41.1772L22.2757 50.6407L34.8503 10.688H45.0934L33.1554 38.3857L54.401 29.7914L37.7364 71.6051Z" fill="#E62A2B"/>
</g>
<defs>
<clipPath id="clip0_3802_18145">
<rect width="80" height="80.0001" fill="white"/>
</clipPath>
</defs>
</svg>
